<svg width="487" height="64" viewBox="0 0 487 64" fill="none" xmlns="http://www.w3.org/2000/svg">
<path d="M100.488 15.072C101.528 15.232 102.352 15.68 102.96 16.416C103.568 17.152 103.872 18.088 103.872 19.224C103.872 20.728 103.376 21.904 102.384 22.752C101.408 23.584 100.184 24 98.712 24H91.68V7.2H98.064C99.536 7.2 100.72 7.584 101.616 8.352C102.512 9.12 102.96 10.16 102.96 11.472C102.96 12.32 102.744 13.064 102.312 13.704C101.88 14.344 101.272 14.784 100.488 15.024V15.072ZM97.536 9.552H94.176V14.208H97.32C99.272 14.208 100.248 13.432 100.248 11.88C100.248 11.112 100 10.536 99.504 10.152C99.024 9.752 98.368 9.552 97.536 9.552ZM98.208 21.648C99.136 21.648 99.856 21.416 100.368 20.952C100.896 20.472 101.16 19.84 101.16 19.056C101.16 18.272 100.888 17.648 100.344 17.184C99.816 16.704 99.024 16.464 97.968 16.464H94.176V21.648H98.208ZM111.508 16.896C112.74 16.896 113.708 17.216 114.412 17.856C115.132 18.496 115.492 19.352 115.492 20.424C115.492 21.448 115.132 22.304 114.412 22.992C113.692 23.664 112.716 24 111.484 24H106.276V12.912H108.628V16.896H111.508ZM116.572 12.912H118.924V24H116.572V12.912ZM111.268 21.912C112.42 21.912 112.996 21.432 112.996 20.472C112.996 19.48 112.42 18.984 111.268 18.984H108.628V21.912H111.268ZM127.287 24.36C125.447 24.36 123.951 23.768 122.799 22.584C121.663 21.4 121.095 19.56 121.095 17.064C121.095 13.416 122.071 10.968 124.023 9.72C124.311 9.528 124.671 9.352 125.103 9.192C125.551 9.016 125.943 8.88 126.279 8.784C126.631 8.688 127.079 8.576 127.623 8.448C128.183 8.304 128.567 8.2 128.775 8.136C129.607 7.912 130.031 7.568 130.047 7.104H132.375C132.375 7.984 132.199 8.64 131.847 9.072C131.511 9.488 130.951 9.808 130.167 10.032C129.863 10.128 129.359 10.256 128.655 10.416C127.967 10.56 127.335 10.72 126.759 10.896C126.183 11.056 125.711 11.232 125.343 11.424C124.143 12.096 123.431 13.48 123.207 15.576H123.279C123.679 14.648 124.287 13.936 125.103 13.44C125.919 12.944 126.879 12.696 127.983 12.696C129.615 12.696 130.919 13.216 131.895 14.256C132.887 15.296 133.383 16.656 133.383 18.336C133.383 20.128 132.831 21.584 131.727 22.704C130.623 23.808 129.143 24.36 127.287 24.36ZM124.743 21.096C125.431 21.736 126.287 22.056 127.311 22.056C128.335 22.056 129.183 21.736 129.855 21.096C130.543 20.44 130.887 19.56 130.887 18.456C130.887 17.352 130.543 16.48 129.855 15.84C129.183 15.184 128.335 14.856 127.311 14.856C126.287 14.856 125.431 15.184 124.743 15.84C124.071 16.48 123.735 17.352 123.735 18.456C123.735 19.56 124.071 20.44 124.743 21.096ZM140.493 12.552C142.157 12.552 143.453 13.088 144.381 14.16C145.325 15.216 145.797 16.648 145.797 18.456V18.84H137.205C137.253 19.816 137.581 20.608 138.189 21.216C138.813 21.808 139.605 22.104 140.565 22.104C141.877 22.104 143.013 21.456 143.973 20.16L145.629 21.72C144.349 23.48 142.677 24.36 140.613 24.36C138.853 24.36 137.445 23.824 136.389 22.752C135.349 21.664 134.829 20.24 134.829 18.48C134.829 16.752 135.333 15.336 136.341 14.232C137.365 13.112 138.749 12.552 140.493 12.552ZM140.349 14.712C139.533 14.712 138.861 14.92 138.333 15.336C137.805 15.752 137.469 16.352 137.325 17.136H143.253C143.205 16.368 142.917 15.776 142.389 15.36C141.877 14.928 141.197 14.712 140.349 14.712ZM147.948 28.8V12.912H150.3V14.544H150.348C151.116 13.216 152.364 12.552 154.092 12.552C155.612 12.552 156.892 13.088 157.932 14.16C158.972 15.232 159.492 16.664 159.492 18.456C159.492 20.248 158.972 21.68 157.932 22.752C156.892 23.824 155.612 24.36 154.092 24.36C152.364 24.36 151.116 23.696 150.348 22.368H150.3V28.8H147.948ZM151.116 21.072C151.74 21.728 152.564 22.056 153.588 22.056C154.612 22.056 155.436 21.728 156.06 21.072C156.684 20.4 156.996 19.528 156.996 18.456C156.996 17.384 156.684 16.52 156.06 15.864C155.436 15.192 154.612 14.856 153.588 14.856C152.564 14.856 151.74 15.192 151.116 15.864C150.492 16.52 150.18 17.384 150.18 18.456C150.18 19.528 150.492 20.4 151.116 21.072ZM161.659 24V12.912H164.011V20.28H164.059L169.555 12.912H171.739V24H169.387V16.632H169.339L163.843 24H161.659ZM190.797 22.2H192.357V27.12H190.293V24.36H182.205V27.12H180.141V22.2H181.581C182.189 21.112 182.493 19.92 182.493 18.624V12.912H190.797V22.2ZM184.845 18.768C184.845 20.032 184.589 21.176 184.077 22.2H188.445V15.072H184.845V18.768ZM194.565 14.232C195.717 13.112 197.165 12.552 198.909 12.552C200.653 12.552 202.101 13.112 203.253 14.232C204.405 15.352 204.981 16.76 204.981 18.456C204.981 20.152 204.405 21.56 203.253 22.68C202.101 23.8 200.653 24.36 198.909 24.36C197.165 24.36 195.717 23.8 194.565 22.68C193.413 21.56 192.837 20.152 192.837 18.456C192.837 16.76 193.413 15.352 194.565 14.232ZM201.477 15.84C200.821 15.184 199.965 14.856 198.909 14.856C197.853 14.856 196.989 15.184 196.317 15.84C195.661 16.496 195.333 17.368 195.333 18.456C195.333 19.544 195.661 20.416 196.317 21.072C196.989 21.728 197.853 22.056 198.909 22.056C199.965 22.056 200.821 21.728 201.477 21.072C202.149 20.416 202.485 19.544 202.485 18.456C202.485 17.368 202.149 16.496 201.477 15.84ZM217.015 12.912V24H214.663V15.12H209.503V24H207.151V12.912H217.015ZM220.909 14.232C222.061 13.112 223.509 12.552 225.253 12.552C226.997 12.552 228.445 13.112 229.597 14.232C230.749 15.352 231.325 16.76 231.325 18.456C231.325 20.152 230.749 21.56 229.597 22.68C228.445 23.8 226.997 24.36 225.253 24.36C223.509 24.36 222.061 23.8 220.909 22.68C219.757 21.56 219.181 20.152 219.181 18.456C219.181 16.76 219.757 15.352 220.909 14.232ZM227.821 15.84C227.165 15.184 226.309 14.856 225.253 14.856C224.197 14.856 223.333 15.184 222.661 15.84C222.005 16.496 221.677 17.368 221.677 18.456C221.677 19.544 222.005 20.416 222.661 21.072C223.333 21.728 224.197 22.056 225.253 22.056C226.309 22.056 227.165 21.728 227.821 21.072C228.493 20.416 228.829 19.544 228.829 18.456C228.829 17.368 228.493 16.496 227.821 15.84ZM243.194 12.912V24H240.842V15.12H236.282V20.952C236.282 22.008 236.018 22.808 235.49 23.352C234.962 23.896 234.242 24.168 233.33 24.168H232.178V22.032H232.946C233.602 22.032 233.93 21.664 233.93 20.928V12.912H243.194ZM254.073 12.912H256.425V24H254.073V19.344H248.433V24H246.081V12.912H248.433V17.136H254.073V12.912ZM259.299 24V12.912H261.651V20.28H261.699L267.195 12.912H269.379V24H267.027V16.632H266.979L261.483 24H259.299ZM280.996 12.912V15.072H277.132V24H274.78V15.072H270.94V12.912H280.996ZM286.767 12.552C288.431 12.552 289.727 13.088 290.655 14.16C291.599 15.216 292.071 16.648 292.071 18.456V18.84H283.479C283.527 19.816 283.855 20.608 284.463 21.216C285.087 21.808 285.879 22.104 286.839 22.104C288.151 22.104 289.287 21.456 290.247 20.16L291.903 21.72C290.623 23.48 288.951 24.36 286.887 24.36C285.127 24.36 283.719 23.824 282.663 22.752C281.623 21.664 281.103 20.24 281.103 18.48C281.103 16.752 281.607 15.336 282.615 14.232C283.639 13.112 285.023 12.552 286.767 12.552ZM286.623 14.712C285.807 14.712 285.135 14.92 284.607 15.336C284.079 15.752 283.743 16.352 283.599 17.136H289.527C289.479 16.368 289.191 15.776 288.663 15.36C288.151 14.928 287.471 14.712 286.623 14.712ZM303.92 12.912V24H301.568V15.12H297.008V20.952C297.008 22.008 296.744 22.808 296.216 23.352C295.688 23.896 294.968 24.168 294.056 24.168H292.904V22.032H293.672C294.328 22.032 294.656 21.664 294.656 20.928V12.912H303.92ZM312.039 16.896C313.271 16.896 314.239 17.216 314.943 17.856C315.663 18.496 316.023 19.352 316.023 20.424C316.023 21.448 315.663 22.304 314.943 22.992C314.223 23.664 313.247 24 312.015 24H306.807V12.912H309.159V16.896H312.039ZM311.799 21.912C312.951 21.912 313.527 21.432 313.527 20.472C313.527 19.48 312.951 18.984 311.799 18.984H309.159V21.912H311.799ZM325.862 12.912H328.214V24H325.862V19.344H320.222V24H317.87V12.912H320.222V17.136H325.862V12.912ZM336.32 16.896C337.552 16.896 338.52 17.216 339.224 17.856C339.944 18.496 340.304 19.352 340.304 20.424C340.304 21.448 339.944 22.304 339.224 22.992C338.504 23.664 337.528 24 336.296 24H331.088V12.912H333.44V16.896H336.32ZM341.384 12.912H343.736V24H341.384V12.912ZM336.08 21.912C337.232 21.912 337.808 21.432 337.808 20.472C337.808 19.48 337.232 18.984 336.08 18.984H333.44V21.912H336.08ZM351.572 12.552C353.236 12.552 354.532 13.088 355.46 14.16C356.404 15.216 356.876 16.648 356.876 18.456V18.84H348.284C348.332 19.816 348.66 20.608 349.268 21.216C349.892 21.808 350.684 22.104 351.644 22.104C352.956 22.104 354.092 21.456 355.052 20.16L356.708 21.72C355.428 23.48 353.756 24.36 351.692 24.36C349.932 24.36 348.524 23.824 347.468 22.752C346.428 21.664 345.908 20.24 345.908 18.48C345.908 16.752 346.412 15.336 347.42 14.232C348.444 13.112 349.828 12.552 351.572 12.552ZM351.428 14.712C350.612 14.712 349.94 14.92 349.412 15.336C348.884 15.752 348.548 16.352 348.404 17.136H354.332C354.284 16.368 353.996 15.776 353.468 15.36C352.956 14.928 352.276 14.712 351.428 14.712ZM373.006 12.912H375.598L368.686 28.8H366.19L368.854 22.992L364.198 12.912H367.006L370.054 20.184L373.006 12.912ZM381.933 24.36C380.141 24.36 378.677 23.816 377.541 22.728C376.405 21.64 375.837 20.216 375.837 18.456C375.837 16.696 376.405 15.272 377.541 14.184C378.677 13.096 380.141 12.552 381.933 12.552C383.325 12.552 384.589 12.928 385.725 13.68L384.621 15.672C383.725 15.112 382.805 14.832 381.861 14.832C380.805 14.832 379.949 15.176 379.293 15.864C378.653 16.536 378.333 17.4 378.333 18.456C378.333 19.512 378.653 20.384 379.293 21.072C379.949 21.744 380.805 22.08 381.861 22.08C382.805 22.08 383.725 21.8 384.621 21.24L385.725 23.232C384.589 23.984 383.325 24.36 381.933 24.36ZM397.459 12.912V24H395.107V15.12H390.547V20.952C390.547 22.008 390.283 22.808 389.755 23.352C389.227 23.896 388.507 24.168 387.595 24.168H386.443V22.032H387.211C387.867 22.032 388.195 21.664 388.195 20.928V12.912H397.459ZM407.6 12.912H410.192L403.28 28.8H400.784L403.448 22.992L398.792 12.912H401.6L404.648 20.184L407.6 12.912ZM418.726 12.912V15.12H413.878V24H411.526V12.912H418.726ZM420.292 24V12.912H422.644V20.28H422.692L428.188 12.912H430.372V24H428.02V16.632H427.972L422.476 24H420.292Z" fill="#141B41"/>
<path d="M101.988 45.4L105.066 58H103.59L101.25 48.082H101.214L98.136 55.984H97.056L93.978 48.082H93.942L91.602 58H90.126L93.204 45.4H94.356L97.578 53.824H97.614L100.836 45.4H101.988ZM110.264 49.414C111.572 49.414 112.646 49.834 113.486 50.674C114.338 51.502 114.764 52.558 114.764 53.842C114.764 55.126 114.338 56.188 113.486 57.028C112.646 57.856 111.572 58.27 110.264 58.27C108.968 58.27 107.894 57.856 107.042 57.028C106.19 56.188 105.764 55.126 105.764 53.842C105.764 52.558 106.19 51.502 107.042 50.674C107.894 49.834 108.968 49.414 110.264 49.414ZM112.514 51.556C111.926 50.98 111.176 50.692 110.264 50.692C109.352 50.692 108.602 50.98 108.014 51.556C107.426 52.132 107.132 52.894 107.132 53.842C107.132 54.79 107.426 55.552 108.014 56.128C108.602 56.704 109.352 56.992 110.264 56.992C111.176 56.992 111.926 56.704 112.514 56.128C113.102 55.552 113.396 54.79 113.396 53.842C113.396 52.894 113.102 52.132 112.514 51.556ZM127.026 58H125.28L121.59 53.734V58H120.312V53.734L116.622 58H114.876L118.872 53.5L115.254 49.684H117.018L120.312 53.338V49.684H121.59V53.356L124.884 49.684H126.648L123.048 53.5L127.026 58ZM131.263 49.414C132.571 49.414 133.561 49.822 134.233 50.638C134.917 51.442 135.259 52.492 135.259 53.788V54.022H128.347C128.359 54.934 128.641 55.66 129.193 56.2C129.745 56.74 130.459 57.01 131.335 57.01C131.815 57.01 132.253 56.92 132.649 56.74C133.057 56.548 133.357 56.356 133.549 56.164C133.753 55.96 133.963 55.714 134.179 55.426L135.115 56.272C134.167 57.604 132.913 58.27 131.353 58.27C130.045 58.27 128.995 57.868 128.203 57.064C127.423 56.248 127.033 55.18 127.033 53.86C127.033 52.528 127.417 51.454 128.185 50.638C128.965 49.822 129.991 49.414 131.263 49.414ZM131.191 50.62C130.447 50.62 129.817 50.83 129.301 51.25C128.797 51.67 128.497 52.264 128.401 53.032H133.855C133.795 52.264 133.531 51.67 133.063 51.25C132.607 50.83 131.983 50.62 131.191 50.62ZM147.616 49.684H148.912V58H136.996V49.684H138.292V56.776H142.306V49.684H143.602V56.776H147.616V49.684ZM155.176 52.762C156.028 52.762 156.712 52.996 157.228 53.464C157.744 53.932 158.002 54.568 158.002 55.372C158.002 56.152 157.738 56.788 157.21 57.28C156.694 57.76 156.01 58 155.158 58H151.216V49.684H152.512V52.762H155.176ZM155.032 56.83C156.1 56.83 156.634 56.35 156.634 55.39C156.634 54.418 156.1 53.932 155.032 53.932H152.512V56.83H155.032ZM164.857 58V49.684H166.171V56.02H166.207L170.959 49.684H172.273V58H170.959V51.664H170.923L166.189 58H164.857ZM180.176 58L177.692 54.652L175.208 58H173.552L176.9 53.626L173.948 49.684H175.622L177.692 52.636L179.762 49.684H181.418L178.466 53.626L181.832 58H180.176ZM195.341 56.956H196.367V60.34H195.215V58.162H188.555V60.34H187.385V56.956H188.447C188.927 56.116 189.167 55.108 189.167 53.932V49.684H195.341V56.956ZM190.463 54.004C190.463 55.132 190.253 56.116 189.833 56.956H194.045V50.872H190.463V54.004ZM201.318 49.414C202.626 49.414 203.7 49.834 204.54 50.674C205.392 51.502 205.818 52.558 205.818 53.842C205.818 55.126 205.392 56.188 204.54 57.028C203.7 57.856 202.626 58.27 201.318 58.27C200.022 58.27 198.948 57.856 198.096 57.028C197.244 56.188 196.818 55.126 196.818 53.842C196.818 52.558 197.244 51.502 198.096 50.674C198.948 49.834 200.022 49.414 201.318 49.414ZM203.568 51.556C202.98 50.98 202.23 50.692 201.318 50.692C200.406 50.692 199.656 50.98 199.068 51.556C198.48 52.132 198.186 52.894 198.186 53.842C198.186 54.79 198.48 55.552 199.068 56.128C199.656 56.704 200.406 56.992 201.318 56.992C202.23 56.992 202.98 56.704 203.568 56.128C204.156 55.552 204.45 54.79 204.45 53.842C204.45 52.894 204.156 52.132 203.568 51.556ZM214.862 57.028C214.046 57.856 212.948 58.27 211.568 58.27C210.188 58.27 209.078 57.826 208.238 56.938C207.398 56.05 206.978 54.67 206.978 52.798C206.978 51.634 207.152 50.566 207.5 49.594C207.86 48.61 208.454 47.878 209.282 47.398C209.606 47.218 209.984 47.056 210.416 46.912C210.86 46.768 211.376 46.624 211.964 46.48C212.564 46.336 212.894 46.258 212.954 46.246C213.602 46.054 213.944 45.748 213.98 45.328H215.258C215.258 45.88 215.12 46.312 214.844 46.624C214.58 46.924 214.172 47.152 213.62 47.308C213.524 47.332 213.2 47.404 212.648 47.524C212.108 47.644 211.604 47.776 211.136 47.92C210.668 48.052 210.284 48.196 209.984 48.352C208.916 48.916 208.304 50.098 208.148 51.898H208.202C208.502 51.142 208.982 50.56 209.642 50.152C210.314 49.744 211.082 49.54 211.946 49.54C213.182 49.54 214.184 49.936 214.952 50.728C215.72 51.508 216.104 52.534 216.104 53.806C216.104 55.126 215.69 56.2 214.862 57.028ZM211.604 56.992C212.504 56.992 213.248 56.71 213.836 56.146C214.436 55.582 214.736 54.826 214.736 53.878C214.736 52.918 214.436 52.156 213.836 51.592C213.236 51.028 212.492 50.746 211.604 50.746C210.716 50.746 209.966 51.028 209.354 51.592C208.754 52.156 208.454 52.912 208.454 53.86C208.454 54.808 208.754 55.57 209.354 56.146C209.966 56.71 210.716 56.992 211.604 56.992ZM221.401 58.27C220.225 58.27 219.241 57.868 218.449 57.064C217.669 56.26 217.279 55.186 217.279 53.842C217.279 52.498 217.669 51.424 218.449 50.62C219.241 49.816 220.225 49.414 221.401 49.414C222.853 49.414 223.903 49.996 224.551 51.16H224.587V49.684H225.883V58H224.587V56.524H224.551C223.903 57.688 222.853 58.27 221.401 58.27ZM219.475 56.11C220.027 56.698 220.753 56.992 221.653 56.992C222.553 56.992 223.279 56.698 223.831 56.11C224.383 55.522 224.659 54.766 224.659 53.842C224.659 52.918 224.383 52.162 223.831 51.574C223.279 50.986 222.553 50.692 221.653 50.692C220.753 50.692 220.027 50.986 219.475 51.574C218.923 52.162 218.647 52.918 218.647 53.842C218.647 54.766 218.923 55.522 219.475 56.11ZM233.502 53.644C234.69 53.8 235.284 54.466 235.284 55.642C235.284 56.41 235.014 56.998 234.474 57.406C233.934 57.802 233.262 58 232.458 58H228.156V49.684H232.53C233.298 49.684 233.91 49.864 234.366 50.224C234.822 50.572 235.05 51.082 235.05 51.754C235.05 52.246 234.918 52.66 234.654 52.996C234.39 53.32 234.006 53.53 233.502 53.626V53.644ZM232.242 50.782H229.452V53.14H232.188C233.196 53.14 233.7 52.738 233.7 51.934C233.7 51.166 233.214 50.782 232.242 50.782ZM232.314 56.902C232.842 56.902 233.244 56.788 233.52 56.56C233.796 56.32 233.934 55.984 233.934 55.552C233.934 54.652 233.418 54.202 232.386 54.202H229.452V56.902H232.314ZM237.103 58V49.684H238.417V56.02H238.453L243.205 49.684H244.519V58H243.205V51.664H243.169L238.435 58H237.103ZM253.307 49.684V50.872H250.103V58H248.807V50.872H245.621V49.684H253.307ZM258.501 52.762C259.353 52.762 260.037 52.996 260.553 53.464C261.069 53.932 261.327 54.568 261.327 55.372C261.327 56.152 261.063 56.788 260.535 57.28C260.019 57.76 259.335 58 258.483 58H254.541V49.684H255.837V52.762H258.501ZM258.357 56.83C259.425 56.83 259.959 56.35 259.959 55.39C259.959 54.418 259.425 53.932 258.357 53.932H255.837V56.83H258.357ZM275.075 58H273.293L269.477 53.806V58H268.181V49.684H269.477V53.302L272.897 49.684H274.679L270.845 53.482L275.075 58ZM285.658 58.27C284.326 58.27 283.24 57.862 282.4 57.046C281.56 56.23 281.14 55.162 281.14 53.842C281.14 52.522 281.56 51.454 282.4 50.638C283.24 49.822 284.326 49.414 285.658 49.414C286.654 49.414 287.602 49.69 288.502 50.242L287.872 51.358C287.104 50.902 286.354 50.674 285.622 50.674C284.698 50.674 283.948 50.98 283.372 51.592C282.796 52.192 282.508 52.942 282.508 53.842C282.508 54.742 282.796 55.498 283.372 56.11C283.948 56.71 284.698 57.01 285.622 57.01C286.354 57.01 287.104 56.782 287.872 56.326L288.502 57.442C287.602 57.994 286.654 58.27 285.658 58.27ZM295.43 53.644C296.618 53.8 297.212 54.466 297.212 55.642C297.212 56.41 296.942 56.998 296.402 57.406C295.862 57.802 295.19 58 294.386 58H290.084V49.684H294.458C295.226 49.684 295.838 49.864 296.294 50.224C296.75 50.572 296.978 51.082 296.978 51.754C296.978 52.246 296.846 52.66 296.582 52.996C296.318 53.32 295.934 53.53 295.43 53.626V53.644ZM294.17 50.782H291.38V53.14H294.116C295.124 53.14 295.628 52.738 295.628 51.934C295.628 51.166 295.142 50.782 294.17 50.782ZM294.242 56.902C294.77 56.902 295.172 56.788 295.448 56.56C295.724 56.32 295.862 55.984 295.862 55.552C295.862 54.652 295.346 54.202 294.314 54.202H291.38V56.902H294.242ZM302.955 49.414C304.263 49.414 305.337 49.834 306.177 50.674C307.029 51.502 307.455 52.558 307.455 53.842C307.455 55.126 307.029 56.188 306.177 57.028C305.337 57.856 304.263 58.27 302.955 58.27C301.659 58.27 300.585 57.856 299.733 57.028C298.881 56.188 298.455 55.126 298.455 53.842C298.455 52.558 298.881 51.502 299.733 50.674C300.585 49.834 301.659 49.414 302.955 49.414ZM305.205 51.556C304.617 50.98 303.867 50.692 302.955 50.692C302.043 50.692 301.293 50.98 300.705 51.556C300.117 52.132 299.823 52.894 299.823 53.842C299.823 54.79 300.117 55.552 300.705 56.128C301.293 56.704 302.043 56.992 302.955 56.992C303.867 56.992 304.617 56.704 305.205 56.128C305.793 55.552 306.087 54.79 306.087 53.842C306.087 52.894 305.793 52.132 305.205 51.556ZM312.845 49.414C314.153 49.414 315.143 49.822 315.815 50.638C316.499 51.442 316.841 52.492 316.841 53.788V54.022H309.929C309.941 54.934 310.223 55.66 310.775 56.2C311.327 56.74 312.041 57.01 312.917 57.01C313.397 57.01 313.835 56.92 314.231 56.74C314.639 56.548 314.939 56.356 315.131 56.164C315.335 55.96 315.545 55.714 315.761 55.426L316.697 56.272C315.749 57.604 314.495 58.27 312.935 58.27C311.627 58.27 310.577 57.868 309.785 57.064C309.005 56.248 308.615 55.18 308.615 53.86C308.615 52.528 308.999 51.454 309.767 50.638C310.547 49.822 311.573 49.414 312.845 49.414ZM312.773 50.62C312.029 50.62 311.399 50.83 310.883 51.25C310.379 51.67 310.079 52.264 309.983 53.032H315.437C315.377 52.264 315.113 51.67 314.645 51.25C314.189 50.83 313.565 50.62 312.773 50.62ZM317.415 58L319.719 49.684H320.925L322.977 54.724H323.013L325.083 49.684H326.289L328.593 58H327.279L325.587 51.7H325.551L323.499 56.614H322.527L320.457 51.7H320.421L318.729 58H317.415ZM335.199 49.684H336.639L331.203 61.6H329.817L331.941 57.118L328.485 49.684H330.015L332.607 55.66L335.199 49.684ZM346.988 49.414C348.296 49.414 349.37 49.834 350.21 50.674C351.062 51.502 351.488 52.558 351.488 53.842C351.488 55.126 351.062 56.188 350.21 57.028C349.37 57.856 348.296 58.27 346.988 58.27C345.692 58.27 344.618 57.856 343.766 57.028C342.914 56.188 342.488 55.126 342.488 53.842C342.488 52.558 342.914 51.502 343.766 50.674C344.618 49.834 345.692 49.414 346.988 49.414ZM349.238 51.556C348.65 50.98 347.9 50.692 346.988 50.692C346.076 50.692 345.326 50.98 344.738 51.556C344.15 52.132 343.856 52.894 343.856 53.842C343.856 54.79 344.15 55.552 344.738 56.128C345.326 56.704 346.076 56.992 346.988 56.992C347.9 56.992 348.65 56.704 349.238 56.128C349.826 55.552 350.12 54.79 350.12 53.842C350.12 52.894 349.826 52.132 349.238 51.556ZM357.026 58.27C355.694 58.27 354.608 57.862 353.768 57.046C352.928 56.23 352.508 55.162 352.508 53.842C352.508 52.522 352.928 51.454 353.768 50.638C354.608 49.822 355.694 49.414 357.026 49.414C358.022 49.414 358.97 49.69 359.87 50.242L359.24 51.358C358.472 50.902 357.722 50.674 356.99 50.674C356.066 50.674 355.316 50.98 354.74 51.592C354.164 52.192 353.876 52.942 353.876 53.842C353.876 54.742 354.164 55.498 354.74 56.11C355.316 56.71 356.066 57.01 356.99 57.01C357.722 57.01 358.472 56.782 359.24 56.326L359.87 57.442C358.97 57.994 358.022 58.27 357.026 58.27ZM367.589 49.684H368.885V58H367.589V54.202H362.747V58H361.451V49.684H362.747V52.996H367.589V49.684ZM375.113 49.414C376.421 49.414 377.495 49.834 378.335 50.674C379.187 51.502 379.613 52.558 379.613 53.842C379.613 55.126 379.187 56.188 378.335 57.028C377.495 57.856 376.421 58.27 375.113 58.27C373.817 58.27 372.743 57.856 371.891 57.028C371.039 56.188 370.613 55.126 370.613 53.842C370.613 52.558 371.039 51.502 371.891 50.674C372.743 49.834 373.817 49.414 375.113 49.414ZM377.363 51.556C376.775 50.98 376.025 50.692 375.113 50.692C374.201 50.692 373.451 50.98 372.863 51.556C372.275 52.132 371.981 52.894 371.981 53.842C371.981 54.79 372.275 55.552 372.863 56.128C373.451 56.704 374.201 56.992 375.113 56.992C376.025 56.992 376.775 56.704 377.363 56.128C377.951 55.552 378.245 54.79 378.245 53.842C378.245 52.894 377.951 52.132 377.363 51.556ZM386.695 53.644C387.883 53.8 388.477 54.466 388.477 55.642C388.477 56.41 388.207 56.998 387.667 57.406C387.127 57.802 386.455 58 385.651 58H381.349V49.684H385.723C386.491 49.684 387.103 49.864 387.559 50.224C388.015 50.572 388.243 51.082 388.243 51.754C388.243 52.246 388.111 52.66 387.847 52.996C387.583 53.32 387.199 53.53 386.695 53.626V53.644ZM385.435 50.782H382.645V53.14H385.381C386.389 53.14 386.893 52.738 386.893 51.934C386.893 51.166 386.407 50.782 385.435 50.782ZM385.507 56.902C386.035 56.902 386.437 56.788 386.713 56.56C386.989 56.32 387.127 55.984 387.127 55.552C387.127 54.652 386.611 54.202 385.579 54.202H382.645V56.902H385.507ZM396.435 49.684H397.731V58H396.435V54.202H391.593V58H390.297V49.684H391.593V52.996H396.435V49.684ZM403.959 49.414C405.267 49.414 406.341 49.834 407.181 50.674C408.033 51.502 408.459 52.558 408.459 53.842C408.459 55.126 408.033 56.188 407.181 57.028C406.341 57.856 405.267 58.27 403.959 58.27C402.663 58.27 401.589 57.856 400.737 57.028C399.885 56.188 399.459 55.126 399.459 53.842C399.459 52.558 399.885 51.502 400.737 50.674C401.589 49.834 402.663 49.414 403.959 49.414ZM406.209 51.556C405.621 50.98 404.871 50.692 403.959 50.692C403.047 50.692 402.297 50.98 401.709 51.556C401.121 52.132 400.827 52.894 400.827 53.842C400.827 54.79 401.121 55.552 401.709 56.128C402.297 56.704 403.047 56.992 403.959 56.992C404.871 56.992 405.621 56.704 406.209 56.128C406.797 55.552 407.091 54.79 407.091 53.842C407.091 52.894 406.797 52.132 406.209 51.556ZM409.033 58L411.337 49.684H412.543L414.595 54.724H414.631L416.701 49.684H417.907L420.211 58H418.897L417.205 51.7H417.169L415.117 56.614H414.145L412.075 51.7H412.039L410.347 58H409.033ZM426.817 49.684H428.257L422.821 61.6H421.435L423.559 57.118L420.103 49.684H421.633L424.225 55.66L426.817 49.684ZM437.417 58.27C436.085 58.27 434.933 58.006 433.961 57.478L434.519 56.344C435.479 56.824 436.463 57.064 437.471 57.064C439.019 57.064 439.793 56.584 439.793 55.624C439.793 55.108 439.607 54.742 439.235 54.526C438.875 54.31 438.311 54.202 437.543 54.202H435.977V53.05H437.471C438.839 53.05 439.523 52.648 439.523 51.844C439.523 51.028 438.845 50.62 437.489 50.62C436.613 50.62 435.677 50.812 434.681 51.196L434.231 50.026C435.323 49.618 436.427 49.414 437.543 49.414C438.599 49.414 439.421 49.6 440.009 49.972C440.597 50.344 440.891 50.878 440.891 51.574C440.891 52.114 440.717 52.558 440.369 52.906C440.021 53.242 439.535 53.452 438.911 53.536V53.572C439.619 53.632 440.159 53.848 440.531 54.22C440.915 54.58 441.107 55.084 441.107 55.732C441.107 56.536 440.801 57.16 440.189 57.604C439.589 58.048 438.665 58.27 437.417 58.27ZM446.401 58.27C445.225 58.27 444.241 57.868 443.449 57.064C442.669 56.26 442.279 55.186 442.279 53.842C442.279 52.498 442.669 51.424 443.449 50.62C444.241 49.816 445.225 49.414 446.401 49.414C447.853 49.414 448.903 49.996 449.551 51.16H449.587V49.684H450.883V58H449.587V56.524H449.551C448.903 57.688 447.853 58.27 446.401 58.27ZM444.475 56.11C445.027 56.698 445.753 56.992 446.653 56.992C447.553 56.992 448.279 56.698 448.831 56.11C449.383 55.522 449.659 54.766 449.659 53.842C449.659 52.918 449.383 52.162 448.831 51.574C448.279 50.986 447.553 50.692 446.653 50.692C445.753 50.692 445.027 50.986 444.475 51.574C443.923 52.162 443.647 52.918 443.647 53.842C443.647 54.766 443.923 55.522 444.475 56.11ZM460.05 58H458.268L454.452 53.806V58H453.156V49.684H454.452V53.302L457.872 49.684H459.654L455.82 53.482L460.05 58ZM464.155 58.27C462.979 58.27 461.995 57.868 461.203 57.064C460.423 56.26 460.033 55.186 460.033 53.842C460.033 52.498 460.423 51.424 461.203 50.62C461.995 49.816 462.979 49.414 464.155 49.414C465.607 49.414 466.657 49.996 467.305 51.16H467.341V49.684H468.637V58H467.341V56.524H467.305C466.657 57.688 465.607 58.27 464.155 58.27ZM462.229 56.11C462.781 56.698 463.507 56.992 464.407 56.992C465.307 56.992 466.033 56.698 466.585 56.11C467.137 55.522 467.413 54.766 467.413 53.842C467.413 52.918 467.137 52.162 466.585 51.574C466.033 50.986 465.307 50.692 464.407 50.692C463.507 50.692 462.781 50.986 462.229 51.574C461.677 52.162 461.401 52.918 461.401 53.842C461.401 54.766 461.677 55.522 462.229 56.11ZM473.646 58.27C472.314 58.27 471.162 58.006 470.19 57.478L470.748 56.344C471.708 56.824 472.692 57.064 473.7 57.064C475.248 57.064 476.022 56.584 476.022 55.624C476.022 55.108 475.836 54.742 475.464 54.526C475.104 54.31 474.54 54.202 473.772 54.202H472.206V53.05H473.7C475.068 53.05 475.752 52.648 475.752 51.844C475.752 51.028 475.074 50.62 473.718 50.62C472.842 50.62 471.906 50.812 470.91 51.196L470.46 50.026C471.552 49.618 472.656 49.414 473.772 49.414C474.828 49.414 475.65 49.6 476.238 49.972C476.826 50.344 477.12 50.878 477.12 51.574C477.12 52.114 476.946 52.558 476.598 52.906C476.25 53.242 475.764 53.452 475.14 53.536V53.572C475.848 53.632 476.388 53.848 476.76 54.22C477.144 54.58 477.336 55.084 477.336 55.732C477.336 56.536 477.03 57.16 476.418 57.604C475.818 58.048 474.894 58.27 473.646 58.27ZM484.772 49.684H486.212L480.776 61.6H479.39L481.514 57.118L478.058 49.684H479.588L482.18 55.66L484.772 49.684Z" fill="#72727E"/>
<rect y="2" width="60" height="60" rx="6" fill="#F7F8FD"/>
<path d="M39.6387 34.9911C40.0411 34.9911 40.4434 35.0358 40.8357 35.1235C41.513 35.2741 41.9388 35.9409 41.7846 36.6078C41.6287 37.2747 40.9547 37.6966 40.2791 37.5428C38.5356 37.1489 36.7921 38.5207 36.7921 40.283C36.7921 41.8319 38.0679 43.0928 39.6387 43.0928C41.2079 43.0928 42.4853 41.8319 42.4853 40.283C42.4853 40.1242 42.4719 39.967 42.4468 39.8164C42.3311 39.1396 42.7955 38.5009 43.4795 38.3867C44.1618 38.2742 44.8122 38.7309 44.9262 39.4077C44.9749 39.6923 45 39.9852 45 40.283C45 43.2004 42.5943 45.575 39.6387 45.575C36.6815 45.575 34.2775 43.2004 34.2775 40.283C34.2775 37.364 36.6815 34.9911 39.6387 34.9911ZM28.0674 39.0416C28.7615 39.0416 29.3248 39.5976 29.3248 40.2827C29.3248 40.9678 28.7615 41.5238 28.0674 41.5238H17.7573C17.0633 41.5238 16.5 40.9678 16.5 40.2827C16.5 39.5976 17.0633 39.0416 17.7573 39.0416H28.0674ZM21.8618 18.5C24.819 18.5 27.223 20.8729 27.223 23.792C27.223 26.7093 24.819 29.0839 21.8618 29.0839C18.9045 29.0839 16.5005 26.7093 16.5005 23.792C16.5005 23.4941 16.5256 23.2012 16.5743 22.9166C16.6883 22.2398 17.3287 21.788 18.021 21.8956C18.705 22.0098 19.1694 22.6485 19.0537 23.3253C19.0286 23.4759 19.0152 23.6331 19.0152 23.792C19.0152 25.3408 20.2909 26.6017 21.8618 26.6017C23.4326 26.6017 24.7084 25.3408 24.7084 23.792C24.7084 22.2414 23.4326 20.9822 21.8618 20.9822C21.6472 20.9822 21.4326 21.0053 21.2281 21.0517C20.5491 21.2122 19.8752 20.7919 19.7176 20.125C19.56 19.4581 19.9808 18.7896 20.6581 18.6357C21.0504 18.5447 21.4544 18.5 21.8618 18.5ZM43.7423 22.5504C44.4364 22.5504 44.9997 23.1064 44.9997 23.7915C44.9997 24.4765 44.4364 25.0325 43.7423 25.0325H33.4339C32.7399 25.0325 32.1766 24.4765 32.1766 23.7915C32.1766 23.1064 32.7399 22.5504 33.4339 22.5504H43.7423Z" fill="#446DF6"/>
</svg>
