<svg width="595" height="64" viewBox="0 0 595 64" fill="none" xmlns="http://www.w3.org/2000/svg">
<path d="M100.488 15.072C101.528 15.232 102.352 15.68 102.96 16.416C103.568 17.152 103.872 18.088 103.872 19.224C103.872 20.728 103.376 21.904 102.384 22.752C101.408 23.584 100.184 24 98.712 24H91.68V7.2H98.064C99.536 7.2 100.72 7.584 101.616 8.352C102.512 9.12 102.96 10.16 102.96 11.472C102.96 12.32 102.744 13.064 102.312 13.704C101.88 14.344 101.272 14.784 100.488 15.024V15.072ZM97.536 9.552H94.176V14.208H97.32C99.272 14.208 100.248 13.432 100.248 11.88C100.248 11.112 100 10.536 99.504 10.152C99.024 9.752 98.368 9.552 97.536 9.552ZM98.208 21.648C99.136 21.648 99.856 21.416 100.368 20.952C100.896 20.472 101.16 19.84 101.16 19.056C101.16 18.272 100.888 17.648 100.344 17.184C99.816 16.704 99.024 16.464 97.968 16.464H94.176V21.648H98.208ZM111.508 16.896C112.74 16.896 113.708 17.216 114.412 17.856C115.132 18.496 115.492 19.352 115.492 20.424C115.492 21.448 115.132 22.304 114.412 22.992C113.692 23.664 112.716 24 111.484 24H106.276V12.912H108.628V16.896H111.508ZM116.572 12.912H118.924V24H116.572V12.912ZM111.268 21.912C112.42 21.912 112.996 21.432 112.996 20.472C112.996 19.48 112.42 18.984 111.268 18.984H108.628V21.912H111.268ZM127.287 24.36C125.447 24.36 123.951 23.768 122.799 22.584C121.663 21.4 121.095 19.56 121.095 17.064C121.095 13.416 122.071 10.968 124.023 9.72C124.311 9.528 124.671 9.352 125.103 9.192C125.551 9.016 125.943 8.88 126.279 8.784C126.631 8.688 127.079 8.576 127.623 8.448C128.183 8.304 128.567 8.2 128.775 8.136C129.607 7.912 130.031 7.568 130.047 7.104H132.375C132.375 7.984 132.199 8.64 131.847 9.072C131.511 9.488 130.951 9.808 130.167 10.032C129.863 10.128 129.359 10.256 128.655 10.416C127.967 10.56 127.335 10.72 126.759 10.896C126.183 11.056 125.711 11.232 125.343 11.424C124.143 12.096 123.431 13.48 123.207 15.576H123.279C123.679 14.648 124.287 13.936 125.103 13.44C125.919 12.944 126.879 12.696 127.983 12.696C129.615 12.696 130.919 13.216 131.895 14.256C132.887 15.296 133.383 16.656 133.383 18.336C133.383 20.128 132.831 21.584 131.727 22.704C130.623 23.808 129.143 24.36 127.287 24.36ZM124.743 21.096C125.431 21.736 126.287 22.056 127.311 22.056C128.335 22.056 129.183 21.736 129.855 21.096C130.543 20.44 130.887 19.56 130.887 18.456C130.887 17.352 130.543 16.48 129.855 15.84C129.183 15.184 128.335 14.856 127.311 14.856C126.287 14.856 125.431 15.184 124.743 15.84C124.071 16.48 123.735 17.352 123.735 18.456C123.735 19.56 124.071 20.44 124.743 21.096ZM140.493 12.552C142.157 12.552 143.453 13.088 144.381 14.16C145.325 15.216 145.797 16.648 145.797 18.456V18.84H137.205C137.253 19.816 137.581 20.608 138.189 21.216C138.813 21.808 139.605 22.104 140.565 22.104C141.877 22.104 143.013 21.456 143.973 20.16L145.629 21.72C144.349 23.48 142.677 24.36 140.613 24.36C138.853 24.36 137.445 23.824 136.389 22.752C135.349 21.664 134.829 20.24 134.829 18.48C134.829 16.752 135.333 15.336 136.341 14.232C137.365 13.112 138.749 12.552 140.493 12.552ZM140.349 14.712C139.533 14.712 138.861 14.92 138.333 15.336C137.805 15.752 137.469 16.352 137.325 17.136H143.253C143.205 16.368 142.917 15.776 142.389 15.36C141.877 14.928 141.197 14.712 140.349 14.712ZM147.948 28.8V12.912H150.3V14.544H150.348C151.116 13.216 152.364 12.552 154.092 12.552C155.612 12.552 156.892 13.088 157.932 14.16C158.972 15.232 159.492 16.664 159.492 18.456C159.492 20.248 158.972 21.68 157.932 22.752C156.892 23.824 155.612 24.36 154.092 24.36C152.364 24.36 151.116 23.696 150.348 22.368H150.3V28.8H147.948ZM151.116 21.072C151.74 21.728 152.564 22.056 153.588 22.056C154.612 22.056 155.436 21.728 156.06 21.072C156.684 20.4 156.996 19.528 156.996 18.456C156.996 17.384 156.684 16.52 156.06 15.864C155.436 15.192 154.612 14.856 153.588 14.856C152.564 14.856 151.74 15.192 151.116 15.864C150.492 16.52 150.18 17.384 150.18 18.456C150.18 19.528 150.492 20.4 151.116 21.072ZM161.659 24V12.912H164.011V20.28H164.059L169.555 12.912H171.739V24H169.387V16.632H169.339L163.843 24H161.659ZM187.053 24.36C185.213 24.36 183.717 23.768 182.565 22.584C181.429 21.4 180.861 19.56 180.861 17.064C180.861 13.416 181.837 10.968 183.789 9.72C184.077 9.528 184.437 9.352 184.869 9.192C185.317 9.016 185.709 8.88 186.045 8.784C186.397 8.688 186.845 8.576 187.389 8.448C187.949 8.304 188.333 8.2 188.541 8.136C189.373 7.912 189.797 7.568 189.813 7.104H192.141C192.141 7.984 191.965 8.64 191.613 9.072C191.277 9.488 190.717 9.808 189.933 10.032C189.629 10.128 189.125 10.256 188.421 10.416C187.733 10.56 187.101 10.72 186.525 10.896C185.949 11.056 185.477 11.232 185.109 11.424C183.909 12.096 183.197 13.48 182.973 15.576H183.045C183.445 14.648 184.053 13.936 184.869 13.44C185.685 12.944 186.645 12.696 187.749 12.696C189.381 12.696 190.685 13.216 191.661 14.256C192.653 15.296 193.149 16.656 193.149 18.336C193.149 20.128 192.597 21.584 191.493 22.704C190.389 23.808 188.909 24.36 187.053 24.36ZM184.509 21.096C185.197 21.736 186.053 22.056 187.077 22.056C188.101 22.056 188.949 21.736 189.621 21.096C190.309 20.44 190.653 19.56 190.653 18.456C190.653 17.352 190.309 16.48 189.621 15.84C188.949 15.184 188.101 14.856 187.077 14.856C186.053 14.856 185.197 15.184 184.509 15.84C183.837 16.48 183.501 17.352 183.501 18.456C183.501 19.56 183.837 20.44 184.509 21.096ZM205.014 12.912V24H202.662V15.12H198.102V20.952C198.102 22.008 197.838 22.808 197.31 23.352C196.782 23.896 196.062 24.168 195.15 24.168H193.998V22.032H194.766C195.422 22.032 195.75 21.664 195.75 20.928V12.912H205.014ZM207.901 24V12.912H210.253V20.28H210.301L215.797 12.912H217.981V24H215.629V16.632H215.581L210.085 24H207.901ZM236.966 24H233.87L229.406 18.432V24H227.102V18.432L222.638 24H219.542L224.51 18L220.022 12.912H223.142L227.102 17.76V12.912H229.406V17.76L233.366 12.912H236.486L231.998 18L236.966 24ZM242.253 24.36C240.733 24.36 239.453 23.824 238.413 22.752C237.373 21.68 236.853 20.248 236.853 18.456C236.853 16.664 237.373 15.232 238.413 14.16C239.453 13.088 240.733 12.552 242.253 12.552C243.981 12.552 245.229 13.216 245.997 14.544H246.045V12.912H248.397V24H246.045V22.368H245.997C245.229 23.696 243.981 24.36 242.253 24.36ZM240.285 21.072C240.909 21.728 241.733 22.056 242.757 22.056C243.781 22.056 244.605 21.728 245.229 21.072C245.853 20.4 246.165 19.528 246.165 18.456C246.165 17.384 245.853 16.52 245.229 15.864C244.605 15.192 243.781 14.856 242.757 14.856C241.733 14.856 240.909 15.192 240.285 15.864C239.661 16.52 239.349 17.384 239.349 18.456C239.349 19.528 239.661 20.4 240.285 21.072ZM259.588 8.64C259.588 9.68 259.284 10.504 258.676 11.112C258.084 11.704 257.3 12 256.324 12C255.348 12 254.556 11.704 253.948 11.112C253.356 10.504 253.06 9.68 253.06 8.64H254.692C254.724 9.184 254.884 9.616 255.172 9.936C255.46 10.24 255.844 10.392 256.324 10.392C256.804 10.392 257.188 10.24 257.476 9.936C257.764 9.616 257.924 9.184 257.956 8.64H259.588ZM251.284 24V12.912H253.636V20.28H253.684L259.18 12.912H261.364V24H259.012V16.632H258.964L253.468 24H251.284ZM277.829 12.912H280.181V24H264.245V12.912H266.597V21.792H271.037V12.912H273.389V21.792H277.829V12.912ZM290.319 12.912H292.911L285.999 28.8H283.503L286.167 22.992L281.511 12.912H284.319L287.367 20.184L290.319 12.912ZM304.205 12.552C305.949 12.552 307.397 13.112 308.549 14.232C309.701 15.352 310.277 16.76 310.277 18.456C310.277 20.152 309.701 21.56 308.549 22.68C307.397 23.8 305.949 24.36 304.205 24.36C302.637 24.36 301.301 23.904 300.197 22.992C299.093 22.08 298.429 20.896 298.205 19.44H296.597V24H294.245V12.912H296.597V17.448H298.205C298.429 16.008 299.093 14.832 300.197 13.92C301.317 13.008 302.653 12.552 304.205 12.552ZM301.613 21.072C302.285 21.728 303.149 22.056 304.205 22.056C305.261 22.056 306.117 21.728 306.773 21.072C307.445 20.416 307.781 19.544 307.781 18.456C307.781 17.368 307.445 16.496 306.773 15.84C306.117 15.184 305.261 14.856 304.205 14.856C303.149 14.856 302.285 15.184 301.613 15.84C300.957 16.496 300.629 17.368 300.629 18.456C300.629 19.544 300.957 20.416 301.613 21.072ZM324.073 24.36C322.553 24.36 321.273 23.824 320.233 22.752C319.193 21.68 318.673 20.248 318.673 18.456C318.673 16.664 319.193 15.232 320.233 14.16C321.273 13.088 322.553 12.552 324.073 12.552C325.801 12.552 327.049 13.216 327.817 14.544H327.865V12.912H330.217V24H327.865V22.368H327.817C327.049 23.696 325.801 24.36 324.073 24.36ZM322.105 21.072C322.729 21.728 323.553 22.056 324.577 22.056C325.601 22.056 326.425 21.728 327.049 21.072C327.673 20.4 327.985 19.528 327.985 18.456C327.985 17.384 327.673 16.52 327.049 15.864C326.425 15.192 325.601 14.856 324.577 14.856C323.553 14.856 322.729 15.192 322.105 15.864C321.481 16.52 321.169 17.384 321.169 18.456C321.169 19.528 321.481 20.4 322.105 21.072ZM340.448 18.216C342.048 18.424 342.848 19.312 342.848 20.88C342.848 21.904 342.456 22.68 341.672 23.208C340.904 23.736 339.968 24 338.864 24H333.104V12.912H339.056C340.08 12.912 340.912 13.16 341.552 13.656C342.192 14.136 342.512 14.816 342.512 15.696C342.512 17.056 341.824 17.888 340.448 18.192V18.216ZM338.528 14.832H335.456V17.328H338.552C339.56 17.328 340.064 16.896 340.064 16.032C340.064 15.664 339.928 15.376 339.656 15.168C339.4 14.944 339.024 14.832 338.528 14.832ZM338.648 22.08C339.192 22.08 339.624 21.96 339.944 21.72C340.264 21.48 340.424 21.128 340.424 20.664C340.424 19.688 339.904 19.2 338.864 19.2H335.456V22.08H338.648ZM353.137 12.912V15.072H349.273V24H346.921V15.072H343.081V12.912H353.137ZM354.971 14.232C356.123 13.112 357.571 12.552 359.315 12.552C361.059 12.552 362.507 13.112 363.659 14.232C364.811 15.352 365.387 16.76 365.387 18.456C365.387 20.152 364.811 21.56 363.659 22.68C362.507 23.8 361.059 24.36 359.315 24.36C357.571 24.36 356.123 23.8 354.971 22.68C353.819 21.56 353.243 20.152 353.243 18.456C353.243 16.76 353.819 15.352 354.971 14.232ZM361.883 15.84C361.227 15.184 360.371 14.856 359.315 14.856C358.259 14.856 357.395 15.184 356.723 15.84C356.067 16.496 355.739 17.368 355.739 18.456C355.739 19.544 356.067 20.416 356.723 21.072C357.395 21.728 358.259 22.056 359.315 22.056C360.371 22.056 361.227 21.728 361.883 21.072C362.555 20.416 362.891 19.544 362.891 18.456C362.891 17.368 362.555 16.496 361.883 15.84ZM366.008 24L369.056 12.912H371.192L373.592 18.816H373.64L376.064 12.912H378.2L381.248 24H378.872L376.952 16.392H376.904L374.456 22.248H372.8L370.352 16.392H370.304L368.384 24H366.008ZM383.589 14.232C384.741 13.112 386.189 12.552 387.933 12.552C389.677 12.552 391.125 13.112 392.277 14.232C393.429 15.352 394.005 16.76 394.005 18.456C394.005 20.152 393.429 21.56 392.277 22.68C391.125 23.8 389.677 24.36 387.933 24.36C386.189 24.36 384.741 23.8 383.589 22.68C382.437 21.56 381.861 20.152 381.861 18.456C381.861 16.76 382.437 15.352 383.589 14.232ZM390.501 15.84C389.845 15.184 388.989 14.856 387.933 14.856C386.877 14.856 386.013 15.184 385.341 15.84C384.685 16.496 384.357 17.368 384.357 18.456C384.357 19.544 384.685 20.416 385.341 21.072C386.013 21.728 386.877 22.056 387.933 22.056C388.989 22.056 389.845 21.728 390.501 21.072C391.173 20.416 391.509 19.544 391.509 18.456C391.509 17.368 391.173 16.496 390.501 15.84ZM404.478 8.64C404.478 9.68 404.174 10.504 403.566 11.112C402.974 11.704 402.19 12 401.214 12C400.238 12 399.446 11.704 398.838 11.112C398.246 10.504 397.95 9.68 397.95 8.64H399.582C399.614 9.184 399.774 9.616 400.062 9.936C400.35 10.24 400.734 10.392 401.214 10.392C401.694 10.392 402.078 10.24 402.366 9.936C402.654 9.616 402.814 9.184 402.846 8.64H404.478ZM396.174 24V12.912H398.526V20.28H398.574L404.07 12.912H406.254V24H403.902V16.632H403.854L398.358 24H396.174ZM419.047 24H415.951L411.487 18.552V24H409.135V12.912H411.487V17.64L415.447 12.912H418.543L413.887 17.952L419.047 24ZM428.084 12.912H430.676L423.764 28.8H421.268L423.932 22.992L419.276 12.912H422.084L425.132 20.184L428.084 12.912Z" fill="#141B41"/>
<path d="M91.332 45.4H92.718V55.714H92.754L99.666 45.4H101.142V58H99.756V47.686H99.72L92.808 58H91.332V45.4ZM106.386 58.27C105.054 58.27 103.902 58.006 102.93 57.478L103.488 56.344C104.448 56.824 105.432 57.064 106.44 57.064C107.988 57.064 108.762 56.584 108.762 55.624C108.762 55.108 108.576 54.742 108.204 54.526C107.844 54.31 107.28 54.202 106.512 54.202H104.946V53.05H106.44C107.808 53.05 108.492 52.648 108.492 51.844C108.492 51.028 107.814 50.62 106.458 50.62C105.582 50.62 104.646 50.812 103.65 51.196L103.2 50.026C104.292 49.618 105.396 49.414 106.512 49.414C107.568 49.414 108.39 49.6 108.978 49.972C109.566 50.344 109.86 50.878 109.86 51.574C109.86 52.114 109.686 52.558 109.338 52.906C108.99 53.242 108.504 53.452 107.88 53.536V53.572C108.588 53.632 109.128 53.848 109.5 54.22C109.884 54.58 110.076 55.084 110.076 55.732C110.076 56.536 109.77 57.16 109.158 57.604C108.558 58.048 107.634 58.27 106.386 58.27ZM121.127 58.27C119.795 58.27 118.709 57.862 117.869 57.046C117.029 56.23 116.609 55.162 116.609 53.842C116.609 52.522 117.029 51.454 117.869 50.638C118.709 49.822 119.795 49.414 121.127 49.414C122.123 49.414 123.071 49.69 123.971 50.242L123.341 51.358C122.573 50.902 121.823 50.674 121.091 50.674C120.167 50.674 119.417 50.98 118.841 51.592C118.265 52.192 117.977 52.942 117.977 53.842C117.977 54.742 118.265 55.498 118.841 56.11C119.417 56.71 120.167 57.01 121.091 57.01C121.823 57.01 122.573 56.782 123.341 56.326L123.971 57.442C123.071 57.994 122.123 58.27 121.127 58.27ZM130.898 53.644C132.086 53.8 132.68 54.466 132.68 55.642C132.68 56.41 132.41 56.998 131.87 57.406C131.33 57.802 130.658 58 129.854 58H125.552V49.684H129.926C130.694 49.684 131.306 49.864 131.762 50.224C132.218 50.572 132.446 51.082 132.446 51.754C132.446 52.246 132.314 52.66 132.05 52.996C131.786 53.32 131.402 53.53 130.898 53.626V53.644ZM129.638 50.782H126.848V53.14H129.584C130.592 53.14 131.096 52.738 131.096 51.934C131.096 51.166 130.61 50.782 129.638 50.782ZM129.71 56.902C130.238 56.902 130.64 56.788 130.916 56.56C131.192 56.32 131.33 55.984 131.33 55.552C131.33 54.652 130.814 54.202 129.782 54.202H126.848V56.902H129.71ZM138.424 49.414C139.732 49.414 140.806 49.834 141.646 50.674C142.498 51.502 142.924 52.558 142.924 53.842C142.924 55.126 142.498 56.188 141.646 57.028C140.806 57.856 139.732 58.27 138.424 58.27C137.128 58.27 136.054 57.856 135.202 57.028C134.35 56.188 133.924 55.126 133.924 53.842C133.924 52.558 134.35 51.502 135.202 50.674C136.054 49.834 137.128 49.414 138.424 49.414ZM140.674 51.556C140.086 50.98 139.336 50.692 138.424 50.692C137.512 50.692 136.762 50.98 136.174 51.556C135.586 52.132 135.292 52.894 135.292 53.842C135.292 54.79 135.586 55.552 136.174 56.128C136.762 56.704 137.512 56.992 138.424 56.992C139.336 56.992 140.086 56.704 140.674 56.128C141.262 55.552 141.556 54.79 141.556 53.842C141.556 52.894 141.262 52.132 140.674 51.556ZM151.968 57.028C151.152 57.856 150.054 58.27 148.674 58.27C147.294 58.27 146.184 57.826 145.344 56.938C144.504 56.05 144.084 54.67 144.084 52.798C144.084 51.634 144.258 50.566 144.606 49.594C144.966 48.61 145.56 47.878 146.388 47.398C146.712 47.218 147.09 47.056 147.522 46.912C147.966 46.768 148.482 46.624 149.07 46.48C149.67 46.336 150 46.258 150.06 46.246C150.708 46.054 151.05 45.748 151.086 45.328H152.364C152.364 45.88 152.226 46.312 151.95 46.624C151.686 46.924 151.278 47.152 150.726 47.308C150.63 47.332 150.306 47.404 149.754 47.524C149.214 47.644 148.71 47.776 148.242 47.92C147.774 48.052 147.39 48.196 147.09 48.352C146.022 48.916 145.41 50.098 145.254 51.898H145.308C145.608 51.142 146.088 50.56 146.748 50.152C147.42 49.744 148.188 49.54 149.052 49.54C150.288 49.54 151.29 49.936 152.058 50.728C152.826 51.508 153.21 52.534 153.21 53.806C153.21 55.126 152.796 56.2 151.968 57.028ZM148.71 56.992C149.61 56.992 150.354 56.71 150.942 56.146C151.542 55.582 151.842 54.826 151.842 53.878C151.842 52.918 151.542 52.156 150.942 51.592C150.342 51.028 149.598 50.746 148.71 50.746C147.822 50.746 147.072 51.028 146.46 51.592C145.86 52.156 145.56 52.912 145.56 53.86C145.56 54.808 145.86 55.57 146.46 56.146C147.072 56.71 147.822 56.992 148.71 56.992ZM158.885 49.414C160.193 49.414 161.267 49.834 162.107 50.674C162.959 51.502 163.385 52.558 163.385 53.842C163.385 55.126 162.959 56.188 162.107 57.028C161.267 57.856 160.193 58.27 158.885 58.27C157.589 58.27 156.515 57.856 155.663 57.028C154.811 56.188 154.385 55.126 154.385 53.842C154.385 52.558 154.811 51.502 155.663 50.674C156.515 49.834 157.589 49.414 158.885 49.414ZM161.135 51.556C160.547 50.98 159.797 50.692 158.885 50.692C157.973 50.692 157.223 50.98 156.635 51.556C156.047 52.132 155.753 52.894 155.753 53.842C155.753 54.79 156.047 55.552 156.635 56.128C157.223 56.704 157.973 56.992 158.885 56.992C159.797 56.992 160.547 56.704 161.135 56.128C161.723 55.552 162.017 54.79 162.017 53.842C162.017 52.894 161.723 52.132 161.135 51.556ZM171.557 56.956H172.583V60.34H171.431V58.162H164.771V60.34H163.601V56.956H164.663C165.143 56.116 165.383 55.108 165.383 53.932V49.684H171.557V56.956ZM166.679 54.004C166.679 55.132 166.469 56.116 166.049 56.956H170.261V50.872H166.679V54.004ZM180.171 49.684H181.467V58H180.171V54.202H175.329V58H174.033V49.684H175.329V52.996H180.171V49.684ZM187.731 52.762C188.583 52.762 189.267 52.996 189.783 53.464C190.299 53.932 190.557 54.568 190.557 55.372C190.557 56.152 190.293 56.788 189.765 57.28C189.249 57.76 188.565 58 187.713 58H183.771V49.684H185.067V52.762H187.731ZM191.403 49.684H192.699V58H191.403V49.684ZM187.587 56.83C188.655 56.83 189.189 56.35 189.189 55.39C189.189 54.418 188.655 53.932 187.587 53.932H185.067V56.83H187.587ZM200.602 58L198.118 54.652L195.634 58H193.978L197.326 53.626L194.374 49.684H196.048L198.118 52.636L200.188 49.684H201.844L198.892 53.626L202.258 58H200.602ZM216.036 49.684V58H214.74V50.908H210.186V58H208.89V49.684H216.036ZM222.271 49.414C223.579 49.414 224.653 49.834 225.493 50.674C226.345 51.502 226.771 52.558 226.771 53.842C226.771 55.126 226.345 56.188 225.493 57.028C224.653 57.856 223.579 58.27 222.271 58.27C220.975 58.27 219.901 57.856 219.049 57.028C218.197 56.188 217.771 55.126 217.771 53.842C217.771 52.558 218.197 51.502 219.049 50.674C219.901 49.834 220.975 49.414 222.271 49.414ZM224.521 51.556C223.933 50.98 223.183 50.692 222.271 50.692C221.359 50.692 220.609 50.98 220.021 51.556C219.433 52.132 219.139 52.894 219.139 53.842C219.139 54.79 219.433 55.552 220.021 56.128C220.609 56.704 221.359 56.992 222.271 56.992C223.183 56.992 223.933 56.704 224.521 56.128C225.109 55.552 225.403 54.79 225.403 53.842C225.403 52.894 225.109 52.132 224.521 51.556ZM235.815 57.028C234.999 57.856 233.901 58.27 232.521 58.27C231.141 58.27 230.031 57.826 229.191 56.938C228.351 56.05 227.931 54.67 227.931 52.798C227.931 51.634 228.105 50.566 228.453 49.594C228.813 48.61 229.407 47.878 230.235 47.398C230.559 47.218 230.937 47.056 231.369 46.912C231.813 46.768 232.329 46.624 232.917 46.48C233.517 46.336 233.847 46.258 233.907 46.246C234.555 46.054 234.897 45.748 234.933 45.328H236.211C236.211 45.88 236.073 46.312 235.797 46.624C235.533 46.924 235.125 47.152 234.573 47.308C234.477 47.332 234.153 47.404 233.601 47.524C233.061 47.644 232.557 47.776 232.089 47.92C231.621 48.052 231.237 48.196 230.937 48.352C229.869 48.916 229.257 50.098 229.101 51.898H229.155C229.455 51.142 229.935 50.56 230.595 50.152C231.267 49.744 232.035 49.54 232.899 49.54C234.135 49.54 235.137 49.936 235.905 50.728C236.673 51.508 237.057 52.534 237.057 53.806C237.057 55.126 236.643 56.2 235.815 57.028ZM232.557 56.992C233.457 56.992 234.201 56.71 234.789 56.146C235.389 55.582 235.689 54.826 235.689 53.878C235.689 52.918 235.389 52.156 234.789 51.592C234.189 51.028 233.445 50.746 232.557 50.746C231.669 50.746 230.919 51.028 230.307 51.592C229.707 52.156 229.407 52.912 229.407 53.86C229.407 54.808 229.707 55.57 230.307 56.146C230.919 56.71 231.669 56.992 232.557 56.992ZM245.957 49.684V58H244.661V50.908H240.485V55.858C240.485 56.602 240.305 57.16 239.945 57.532C239.597 57.892 239.117 58.072 238.505 58.072H237.713V56.884H238.343C238.907 56.884 239.189 56.536 239.189 55.84V49.684H245.957ZM248.265 58V49.684H249.579V56.02H249.615L254.367 49.684H255.681V58H254.367V51.664H254.331L249.597 58H248.265ZM260.722 58.27C259.39 58.27 258.238 58.006 257.266 57.478L257.824 56.344C258.784 56.824 259.768 57.064 260.776 57.064C262.324 57.064 263.098 56.584 263.098 55.624C263.098 55.108 262.912 54.742 262.54 54.526C262.18 54.31 261.616 54.202 260.848 54.202H259.282V53.05H260.776C262.144 53.05 262.828 52.648 262.828 51.844C262.828 51.028 262.15 50.62 260.794 50.62C259.918 50.62 258.982 50.812 257.986 51.196L257.536 50.026C258.628 49.618 259.732 49.414 260.848 49.414C261.904 49.414 262.726 49.6 263.314 49.972C263.902 50.344 264.196 50.878 264.196 51.574C264.196 52.114 264.022 52.558 263.674 52.906C263.326 53.242 262.84 53.452 262.216 53.536V53.572C262.924 53.632 263.464 53.848 263.836 54.22C264.22 54.58 264.412 55.084 264.412 55.732C264.412 56.536 264.106 57.16 263.494 57.604C262.894 58.048 261.97 58.27 260.722 58.27ZM270.084 49.414C271.392 49.414 272.466 49.834 273.306 50.674C274.158 51.502 274.584 52.558 274.584 53.842C274.584 55.126 274.158 56.188 273.306 57.028C272.466 57.856 271.392 58.27 270.084 58.27C268.788 58.27 267.714 57.856 266.862 57.028C266.01 56.188 265.584 55.126 265.584 53.842C265.584 52.558 266.01 51.502 266.862 50.674C267.714 49.834 268.788 49.414 270.084 49.414ZM272.334 51.556C271.746 50.98 270.996 50.692 270.084 50.692C269.172 50.692 268.422 50.98 267.834 51.556C267.246 52.132 266.952 52.894 266.952 53.842C266.952 54.79 267.246 55.552 267.834 56.128C268.422 56.704 269.172 56.992 270.084 56.992C270.996 56.992 271.746 56.704 272.334 56.128C272.922 55.552 273.216 54.79 273.216 53.842C273.216 52.894 272.922 52.132 272.334 51.556ZM280.121 58.27C278.789 58.27 277.703 57.862 276.863 57.046C276.023 56.23 275.603 55.162 275.603 53.842C275.603 52.522 276.023 51.454 276.863 50.638C277.703 49.822 278.789 49.414 280.121 49.414C281.117 49.414 282.065 49.69 282.965 50.242L282.335 51.358C281.567 50.902 280.817 50.674 280.085 50.674C279.161 50.674 278.411 50.98 277.835 51.592C277.259 52.192 276.971 52.942 276.971 53.842C276.971 54.742 277.259 55.498 277.835 56.11C278.411 56.71 279.161 57.01 280.085 57.01C280.817 57.01 281.567 56.782 282.335 56.326L282.965 57.442C282.065 57.994 281.117 58.27 280.121 58.27ZM291.171 49.684V50.872H287.967V58H286.671V50.872H283.485V49.684H291.171ZM292.404 58V49.684H293.718V56.02H293.754L298.506 49.684H299.82V58H298.506V51.664H298.47L293.736 58H292.404ZM307.486 58V49.684H308.8V56.02H308.836L313.588 49.684H314.902V58H313.588V51.664H313.552L308.818 58H307.486ZM324.479 49.684V58H323.183V50.908H319.007V55.858C319.007 56.602 318.827 57.16 318.467 57.532C318.119 57.892 317.639 58.072 317.027 58.072H316.235V56.884H316.865C317.429 56.884 317.711 56.536 317.711 55.84V49.684H324.479ZM326.787 58V49.684H328.101V56.02H328.137L332.889 49.684H334.203V58H332.889V51.664H332.853L328.119 58H326.787ZM345.793 49.414C347.101 49.414 348.175 49.834 349.015 50.674C349.867 51.502 350.293 52.558 350.293 53.842C350.293 55.126 349.867 56.188 349.015 57.028C348.175 57.856 347.101 58.27 345.793 58.27C344.497 58.27 343.423 57.856 342.571 57.028C341.719 56.188 341.293 55.126 341.293 53.842C341.293 52.558 341.719 51.502 342.571 50.674C343.423 49.834 344.497 49.414 345.793 49.414ZM348.043 51.556C347.455 50.98 346.705 50.692 345.793 50.692C344.881 50.692 344.131 50.98 343.543 51.556C342.955 52.132 342.661 52.894 342.661 53.842C342.661 54.79 342.955 55.552 343.543 56.128C344.131 56.704 344.881 56.992 345.793 56.992C346.705 56.992 347.455 56.704 348.043 56.128C348.631 55.552 348.925 54.79 348.925 53.842C348.925 52.894 348.631 52.132 348.043 51.556ZM355.83 58.27C354.498 58.27 353.412 57.862 352.572 57.046C351.732 56.23 351.312 55.162 351.312 53.842C351.312 52.522 351.732 51.454 352.572 50.638C353.412 49.822 354.498 49.414 355.83 49.414C356.826 49.414 357.774 49.69 358.674 50.242L358.044 51.358C357.276 50.902 356.526 50.674 355.794 50.674C354.87 50.674 354.12 50.98 353.544 51.592C352.968 52.192 352.68 52.942 352.68 53.842C352.68 54.742 352.968 55.498 353.544 56.11C354.12 56.71 354.87 57.01 355.794 57.01C356.526 57.01 357.276 56.782 358.044 56.326L358.674 57.442C357.774 57.994 356.826 58.27 355.83 58.27ZM366.88 49.684V50.872H363.676V58H362.38V50.872H359.194V49.684H366.88ZM370.973 58.27C369.797 58.27 368.813 57.868 368.021 57.064C367.241 56.26 366.851 55.186 366.851 53.842C366.851 52.498 367.241 51.424 368.021 50.62C368.813 49.816 369.797 49.414 370.973 49.414C372.425 49.414 373.475 49.996 374.123 51.16H374.159V49.684H375.455V58H374.159V56.524H374.123C373.475 57.688 372.425 58.27 370.973 58.27ZM369.047 56.11C369.599 56.698 370.325 56.992 371.225 56.992C372.125 56.992 372.851 56.698 373.403 56.11C373.955 55.522 374.231 54.766 374.231 53.842C374.231 52.918 373.955 52.162 373.403 51.574C372.851 50.986 372.125 50.692 371.225 50.692C370.325 50.692 369.599 50.986 369.047 51.574C368.495 52.162 368.219 52.918 368.219 53.842C368.219 54.766 368.495 55.522 369.047 56.11ZM383.074 53.644C384.262 53.8 384.856 54.466 384.856 55.642C384.856 56.41 384.586 56.998 384.046 57.406C383.506 57.802 382.834 58 382.03 58H377.728V49.684H382.102C382.87 49.684 383.482 49.864 383.938 50.224C384.394 50.572 384.622 51.082 384.622 51.754C384.622 52.246 384.49 52.66 384.226 52.996C383.962 53.32 383.578 53.53 383.074 53.626V53.644ZM381.814 50.782H379.024V53.14H381.76C382.768 53.14 383.272 52.738 383.272 51.934C383.272 51.166 382.786 50.782 381.814 50.782ZM381.886 56.902C382.414 56.902 382.816 56.788 383.092 56.56C383.368 56.32 383.506 55.984 383.506 55.552C383.506 54.652 382.99 54.202 381.958 54.202H379.024V56.902H381.886ZM390.635 52.762C391.487 52.762 392.171 52.996 392.687 53.464C393.203 53.932 393.461 54.568 393.461 55.372C393.461 56.152 393.197 56.788 392.669 57.28C392.153 57.76 391.469 58 390.617 58H386.675V49.684H387.971V52.762H390.635ZM390.491 56.83C391.559 56.83 392.093 56.35 392.093 55.39C392.093 54.418 391.559 53.932 390.491 53.932H387.971V56.83H390.491ZM403.052 58.27C401.72 58.27 400.568 58.006 399.596 57.478L400.154 56.344C401.114 56.824 402.098 57.064 403.106 57.064C404.654 57.064 405.428 56.584 405.428 55.624C405.428 55.108 405.242 54.742 404.87 54.526C404.51 54.31 403.946 54.202 403.178 54.202H401.612V53.05H403.106C404.474 53.05 405.158 52.648 405.158 51.844C405.158 51.028 404.48 50.62 403.124 50.62C402.248 50.62 401.312 50.812 400.316 51.196L399.866 50.026C400.958 49.618 402.062 49.414 403.178 49.414C404.234 49.414 405.056 49.6 405.644 49.972C406.232 50.344 406.526 50.878 406.526 51.574C406.526 52.114 406.352 52.558 406.004 52.906C405.656 53.242 405.17 53.452 404.546 53.536V53.572C405.254 53.632 405.794 53.848 406.166 54.22C406.55 54.58 406.742 55.084 406.742 55.732C406.742 56.536 406.436 57.16 405.824 57.604C405.224 58.048 404.3 58.27 403.052 58.27ZM412.036 58.27C410.86 58.27 409.876 57.868 409.084 57.064C408.304 56.26 407.914 55.186 407.914 53.842C407.914 52.498 408.304 51.424 409.084 50.62C409.876 49.816 410.86 49.414 412.036 49.414C413.488 49.414 414.538 49.996 415.186 51.16H415.222V49.684H416.518V58H415.222V56.524H415.186C414.538 57.688 413.488 58.27 412.036 58.27ZM410.11 56.11C410.662 56.698 411.388 56.992 412.288 56.992C413.188 56.992 413.914 56.698 414.466 56.11C415.018 55.522 415.294 54.766 415.294 53.842C415.294 52.918 415.018 52.162 414.466 51.574C413.914 50.986 413.188 50.692 412.288 50.692C411.388 50.692 410.662 50.986 410.11 51.574C409.558 52.162 409.282 52.918 409.282 53.842C409.282 54.766 409.558 55.522 410.11 56.11ZM425.685 58H423.903L420.087 53.806V58H418.791V49.684H420.087V53.302L423.507 49.684H425.289L421.455 53.482L425.685 58ZM429.79 58.27C428.614 58.27 427.63 57.868 426.838 57.064C426.058 56.26 425.668 55.186 425.668 53.842C425.668 52.498 426.058 51.424 426.838 50.62C427.63 49.816 428.614 49.414 429.79 49.414C431.242 49.414 432.292 49.996 432.94 51.16H432.976V49.684H434.272V58H432.976V56.524H432.94C432.292 57.688 431.242 58.27 429.79 58.27ZM427.864 56.11C428.416 56.698 429.142 56.992 430.042 56.992C430.942 56.992 431.668 56.698 432.22 56.11C432.772 55.522 433.048 54.766 433.048 53.842C433.048 52.918 432.772 52.162 432.22 51.574C431.668 50.986 430.942 50.692 430.042 50.692C429.142 50.692 428.416 50.986 427.864 51.574C427.312 52.162 427.036 52.918 427.036 53.842C427.036 54.766 427.312 55.522 427.864 56.11ZM439.281 58.27C437.949 58.27 436.797 58.006 435.825 57.478L436.383 56.344C437.343 56.824 438.327 57.064 439.335 57.064C440.883 57.064 441.657 56.584 441.657 55.624C441.657 55.108 441.471 54.742 441.099 54.526C440.739 54.31 440.175 54.202 439.407 54.202H437.841V53.05H439.335C440.703 53.05 441.387 52.648 441.387 51.844C441.387 51.028 440.709 50.62 439.353 50.62C438.477 50.62 437.541 50.812 436.545 51.196L436.095 50.026C437.187 49.618 438.291 49.414 439.407 49.414C440.463 49.414 441.285 49.6 441.873 49.972C442.461 50.344 442.755 50.878 442.755 51.574C442.755 52.114 442.581 52.558 442.233 52.906C441.885 53.242 441.399 53.452 440.775 53.536V53.572C441.483 53.632 442.023 53.848 442.395 54.22C442.779 54.58 442.971 55.084 442.971 55.732C442.971 56.536 442.665 57.16 442.053 57.604C441.453 58.048 440.529 58.27 439.281 58.27ZM456.218 49.684H457.514V58H456.218V54.202H451.376V58H450.08V49.684H451.376V52.996H456.218V49.684ZM463.364 58.27C462.188 58.27 461.204 57.868 460.412 57.064C459.632 56.26 459.242 55.186 459.242 53.842C459.242 52.498 459.632 51.424 460.412 50.62C461.204 49.816 462.188 49.414 463.364 49.414C464.816 49.414 465.866 49.996 466.514 51.16H466.55V49.684H467.846V58H466.55V56.524H466.514C465.866 57.688 464.816 58.27 463.364 58.27ZM461.438 56.11C461.99 56.698 462.716 56.992 463.616 56.992C464.516 56.992 465.242 56.698 465.794 56.11C466.346 55.522 466.622 54.766 466.622 53.842C466.622 52.918 466.346 52.162 465.794 51.574C465.242 50.986 464.516 50.692 463.616 50.692C462.716 50.692 461.99 50.986 461.438 51.574C460.886 52.162 460.61 52.918 460.61 53.842C460.61 54.766 460.886 55.522 461.438 56.11ZM480.957 49.684H482.397L476.961 61.6H475.575L477.699 57.118L474.243 49.684H475.773L478.365 55.66L480.957 49.684ZM489.967 56.956H490.993V60.34H489.841V58.162H483.181V60.34H482.011V56.956H483.073C483.553 56.116 483.793 55.108 483.793 53.932V49.684H489.967V56.956ZM485.089 54.004C485.089 55.132 484.879 56.116 484.459 56.956H488.671V50.872H485.089V54.004ZM495.945 49.414C497.253 49.414 498.327 49.834 499.167 50.674C500.019 51.502 500.445 52.558 500.445 53.842C500.445 55.126 500.019 56.188 499.167 57.028C498.327 57.856 497.253 58.27 495.945 58.27C494.649 58.27 493.575 57.856 492.723 57.028C491.871 56.188 491.445 55.126 491.445 53.842C491.445 52.558 491.871 51.502 492.723 50.674C493.575 49.834 494.649 49.414 495.945 49.414ZM498.195 51.556C497.607 50.98 496.857 50.692 495.945 50.692C495.033 50.692 494.283 50.98 493.695 51.556C493.107 52.132 492.813 52.894 492.813 53.842C492.813 54.79 493.107 55.552 493.695 56.128C494.283 56.704 495.033 56.992 495.945 56.992C496.857 56.992 497.607 56.704 498.195 56.128C498.783 55.552 499.077 54.79 499.077 53.842C499.077 52.894 498.783 52.132 498.195 51.556ZM509.489 57.028C508.673 57.856 507.575 58.27 506.195 58.27C504.815 58.27 503.705 57.826 502.865 56.938C502.025 56.05 501.605 54.67 501.605 52.798C501.605 51.634 501.779 50.566 502.127 49.594C502.487 48.61 503.081 47.878 503.909 47.398C504.233 47.218 504.611 47.056 505.043 46.912C505.487 46.768 506.003 46.624 506.591 46.48C507.191 46.336 507.521 46.258 507.581 46.246C508.229 46.054 508.571 45.748 508.607 45.328H509.885C509.885 45.88 509.747 46.312 509.471 46.624C509.207 46.924 508.799 47.152 508.247 47.308C508.151 47.332 507.827 47.404 507.275 47.524C506.735 47.644 506.231 47.776 505.763 47.92C505.295 48.052 504.911 48.196 504.611 48.352C503.543 48.916 502.931 50.098 502.775 51.898H502.829C503.129 51.142 503.609 50.56 504.269 50.152C504.941 49.744 505.709 49.54 506.573 49.54C507.809 49.54 508.811 49.936 509.579 50.728C510.347 51.508 510.731 52.534 510.731 53.806C510.731 55.126 510.317 56.2 509.489 57.028ZM506.231 56.992C507.131 56.992 507.875 56.71 508.463 56.146C509.063 55.582 509.363 54.826 509.363 53.878C509.363 52.918 509.063 52.156 508.463 51.592C507.863 51.028 507.119 50.746 506.231 50.746C505.343 50.746 504.593 51.028 503.981 51.592C503.381 52.156 503.081 52.912 503.081 53.86C503.081 54.808 503.381 55.57 503.981 56.146C504.593 56.71 505.343 56.992 506.231 56.992ZM518.62 49.684H519.916V58H518.62V54.202H513.778V58H512.482V49.684H513.778V52.996H518.62V49.684ZM526.144 49.414C527.452 49.414 528.526 49.834 529.366 50.674C530.218 51.502 530.644 52.558 530.644 53.842C530.644 55.126 530.218 56.188 529.366 57.028C528.526 57.856 527.452 58.27 526.144 58.27C524.848 58.27 523.774 57.856 522.922 57.028C522.07 56.188 521.644 55.126 521.644 53.842C521.644 52.558 522.07 51.502 522.922 50.674C523.774 49.834 524.848 49.414 526.144 49.414ZM528.394 51.556C527.806 50.98 527.056 50.692 526.144 50.692C525.232 50.692 524.482 50.98 523.894 51.556C523.306 52.132 523.012 52.894 523.012 53.842C523.012 54.79 523.306 55.552 523.894 56.128C524.482 56.704 525.232 56.992 526.144 56.992C527.056 56.992 527.806 56.704 528.394 56.128C528.982 55.552 529.276 54.79 529.276 53.842C529.276 52.894 528.982 52.132 528.394 51.556ZM536.035 49.414C537.343 49.414 538.333 49.822 539.005 50.638C539.689 51.442 540.031 52.492 540.031 53.788V54.022H533.119C533.131 54.934 533.413 55.66 533.965 56.2C534.517 56.74 535.231 57.01 536.107 57.01C536.587 57.01 537.025 56.92 537.421 56.74C537.829 56.548 538.129 56.356 538.321 56.164C538.525 55.96 538.735 55.714 538.951 55.426L539.887 56.272C538.939 57.604 537.685 58.27 536.125 58.27C534.817 58.27 533.767 57.868 532.975 57.064C532.195 56.248 531.805 55.18 531.805 53.86C531.805 52.528 532.189 51.454 532.957 50.638C533.737 49.822 534.763 49.414 536.035 49.414ZM535.963 50.62C535.219 50.62 534.589 50.83 534.073 51.25C533.569 51.67 533.269 52.264 533.173 53.032H538.627C538.567 52.264 538.303 51.67 537.835 51.25C537.379 50.83 536.755 50.62 535.963 50.62ZM552.475 53.644C553.663 53.8 554.257 54.466 554.257 55.642C554.257 56.41 553.987 56.998 553.447 57.406C552.907 57.802 552.235 58 551.431 58H547.129V49.684H551.503C552.271 49.684 552.883 49.864 553.339 50.224C553.795 50.572 554.023 51.082 554.023 51.754C554.023 52.246 553.891 52.66 553.627 52.996C553.363 53.32 552.979 53.53 552.475 53.626V53.644ZM551.215 50.782H548.425V53.14H551.161C552.169 53.14 552.673 52.738 552.673 51.934C552.673 51.166 552.187 50.782 551.215 50.782ZM551.287 56.902C551.815 56.902 552.217 56.788 552.493 56.56C552.769 56.32 552.907 55.984 552.907 55.552C552.907 54.652 552.391 54.202 551.359 54.202H548.425V56.902H551.287ZM556.076 61.6V49.684H557.372V51.16H557.408C558.056 49.996 559.106 49.414 560.558 49.414C561.734 49.414 562.712 49.816 563.492 50.62C564.284 51.424 564.68 52.498 564.68 53.842C564.68 55.186 564.284 56.26 563.492 57.064C562.712 57.868 561.734 58.27 560.558 58.27C559.106 58.27 558.056 57.688 557.408 56.524H557.372V61.6H556.076ZM558.128 56.11C558.68 56.698 559.406 56.992 560.306 56.992C561.206 56.992 561.932 56.698 562.484 56.11C563.036 55.522 563.312 54.766 563.312 53.842C563.312 52.918 563.036 52.162 562.484 51.574C561.932 50.986 561.206 50.692 560.306 50.692C559.406 50.692 558.68 50.986 558.128 51.574C557.576 52.162 557.3 52.918 557.3 53.842C557.3 54.766 557.576 55.522 558.128 56.11ZM570.066 49.414C571.374 49.414 572.364 49.822 573.036 50.638C573.72 51.442 574.062 52.492 574.062 53.788V54.022H567.15C567.162 54.934 567.444 55.66 567.996 56.2C568.548 56.74 569.262 57.01 570.138 57.01C570.618 57.01 571.056 56.92 571.452 56.74C571.86 56.548 572.16 56.356 572.352 56.164C572.556 55.96 572.766 55.714 572.982 55.426L573.918 56.272C572.97 57.604 571.716 58.27 570.156 58.27C568.848 58.27 567.798 57.868 567.006 57.064C566.226 56.248 565.836 55.18 565.836 53.86C565.836 52.528 566.22 51.454 566.988 50.638C567.768 49.822 568.794 49.414 570.066 49.414ZM569.994 50.62C569.25 50.62 568.62 50.83 568.104 51.25C567.6 51.67 567.3 52.264 567.204 53.032H572.658C572.598 52.264 572.334 51.67 571.866 51.25C571.41 50.83 570.786 50.62 569.994 50.62ZM574.636 58L576.94 49.684H578.146L580.198 54.724H580.234L582.304 49.684H583.51L585.814 58H584.5L582.808 51.7H582.772L580.72 56.614H579.748L577.678 51.7H577.642L575.95 58H574.636ZM589.491 49.684H593.541V58H592.245V54.742H590.517L588.015 58H586.431L589.023 54.724C588.291 54.64 587.709 54.382 587.277 53.95C586.845 53.518 586.629 52.948 586.629 52.24C586.629 51.46 586.887 50.842 587.403 50.386C587.931 49.918 588.627 49.684 589.491 49.684ZM589.635 53.572H592.245V50.872H589.635C589.107 50.872 588.699 50.992 588.411 51.232C588.135 51.46 587.997 51.79 587.997 52.222C587.997 53.122 588.543 53.572 589.635 53.572Z" fill="#72727E"/>
<rect y="2" width="60" height="60" rx="6" fill="#F7F8FD"/>
<path d="M30.05 17C37.0795 17.0276 42.7775 22.763 42.7499 29.7835V29.9229C42.655 34.94 39.6387 39.1034 37.1256 41.7119C36.4104 42.4578 35.6491 43.1734 34.8641 43.8416C34.3939 44.2428 33.6879 44.1876 33.2862 43.718C32.8844 43.247 32.9411 42.542 33.4113 42.1408C34.1383 41.5212 34.8457 40.8556 35.5108 40.1623C37.7473 37.8419 40.429 34.1731 40.5107 29.8821C40.5331 23.9876 35.8375 19.2586 30.0407 19.2349H29.9999C24.2229 19.2349 19.5115 23.9179 19.4891 29.6914C19.5879 32.5433 20.5521 35.2544 22.2788 37.5288C24.2941 40.2123 27.3511 43.0537 30.2567 44.9453C30.7757 45.282 30.9219 45.974 30.5834 46.4922C30.37 46.8211 30.0104 47 29.6443 47C29.4348 47 29.2241 46.9421 29.0344 46.8185C25.9234 44.794 22.649 41.7501 20.4902 38.8758C18.4868 36.2357 17.3659 33.0852 17.25 29.769C17.2777 22.6788 22.9927 17 29.9999 17H30.05ZM29.9959 25.0751C32.6711 25.0751 34.8483 27.2482 34.8483 29.9212C34.8483 32.5929 32.6711 34.766 29.9959 34.766C27.3208 34.766 25.1436 32.5929 25.1436 29.9212C25.1436 29.3029 25.6454 28.8031 26.2632 28.8031C26.8809 28.8031 27.3827 29.3029 27.3827 29.9212C27.3827 31.359 28.555 32.531 29.9959 32.531C31.4369 32.531 32.6092 31.359 32.6092 29.9212C32.6092 28.4821 31.4369 27.3101 29.9959 27.3101C29.3782 27.3101 28.8764 26.8102 28.8764 26.1932C28.8764 25.575 29.3782 25.0751 29.9959 25.0751Z" fill="#446DF6"/>
</svg>
