<svg width="543" height="64" viewBox="0 0 543 64" fill="none" xmlns="http://www.w3.org/2000/svg">
<path d="M99.84 24.36C97.168 24.36 95 23.552 93.336 21.936C91.672 20.32 90.84 18.208 90.84 15.6C90.84 12.992 91.672 10.88 93.336 9.264C95 7.648 97.168 6.84 99.84 6.84C102.08 6.84 104.056 7.456 105.768 8.688L104.232 10.872C102.872 9.88 101.376 9.384 99.744 9.384C97.952 9.384 96.472 9.952 95.304 11.088C94.152 12.224 93.576 13.728 93.576 15.6C93.576 17.472 94.152 18.976 95.304 20.112C96.472 21.248 97.952 21.816 99.744 21.816C101.376 21.816 102.872 21.32 104.232 20.328L105.768 22.512C104.056 23.744 102.08 24.36 99.84 24.36ZM117.711 24H114.615L110.151 18.552V24H107.799V12.912H110.151V17.64L114.111 12.912H117.207L112.551 17.952L117.711 24ZM122.979 24.36C121.459 24.36 120.179 23.824 119.139 22.752C118.099 21.68 117.579 20.248 117.579 18.456C117.579 16.664 118.099 15.232 119.139 14.16C120.179 13.088 121.459 12.552 122.979 12.552C124.707 12.552 125.955 13.216 126.723 14.544H126.771V12.912H129.123V24H126.771V22.368H126.723C125.955 23.696 124.707 24.36 122.979 24.36ZM121.011 21.072C121.635 21.728 122.459 22.056 123.483 22.056C124.507 22.056 125.331 21.728 125.955 21.072C126.579 20.4 126.891 19.528 126.891 18.456C126.891 17.384 126.579 16.52 125.955 15.864C125.331 15.192 124.507 14.856 123.483 14.856C122.459 14.856 121.635 15.192 121.011 15.864C120.387 16.52 120.075 17.384 120.075 18.456C120.075 19.528 120.387 20.4 121.011 21.072ZM137.77 12.912H140.122V24H137.77V19.8H134.41C132.09 19.8 130.93 18.752 130.93 16.656V12.912H133.282V16.392C133.282 16.84 133.386 17.168 133.594 17.376C133.802 17.584 134.146 17.688 134.626 17.688H137.77V12.912ZM147.683 24.36C146.163 24.36 144.883 23.824 143.843 22.752C142.803 21.68 142.283 20.248 142.283 18.456C142.283 16.664 142.803 15.232 143.843 14.16C144.883 13.088 146.163 12.552 147.683 12.552C149.411 12.552 150.659 13.216 151.427 14.544H151.475V12.912H153.827V24H151.475V22.368H151.427C150.659 23.696 149.411 24.36 147.683 24.36ZM145.715 21.072C146.339 21.728 147.163 22.056 148.187 22.056C149.211 22.056 150.035 21.728 150.659 21.072C151.283 20.4 151.595 19.528 151.595 18.456C151.595 17.384 151.283 16.52 150.659 15.864C150.035 15.192 149.211 14.856 148.187 14.856C147.163 14.856 146.339 15.192 145.715 15.864C145.091 16.52 144.779 17.384 144.779 18.456C144.779 19.528 145.091 20.4 145.715 21.072ZM165.017 8.64C165.017 9.68 164.713 10.504 164.105 11.112C163.513 11.704 162.729 12 161.753 12C160.777 12 159.985 11.704 159.377 11.112C158.785 10.504 158.489 9.68 158.489 8.64H160.121C160.153 9.184 160.313 9.616 160.601 9.936C160.889 10.24 161.273 10.392 161.753 10.392C162.233 10.392 162.617 10.24 162.905 9.936C163.193 9.616 163.353 9.184 163.385 8.64H165.017ZM156.713 24V12.912H159.065V20.28H159.113L164.609 12.912H166.793V24H164.441V16.632H164.393L158.897 24H156.713ZM176.635 24V12.912H178.987V20.28H179.035L184.531 12.912H186.715V24H184.363V16.632H184.315L178.819 24H176.635ZM200.181 24.36C198.357 24.36 196.829 24.008 195.597 23.304L196.581 21.288C197.717 21.896 198.941 22.2 200.253 22.2C202.045 22.2 202.941 21.696 202.941 20.688C202.941 19.696 202.165 19.2 200.613 19.2H198.309V17.16H200.445C201.805 17.16 202.485 16.76 202.485 15.96C202.485 15.128 201.765 14.712 200.325 14.712C199.221 14.712 198.013 14.968 196.701 15.48L195.909 13.368C197.381 12.824 198.901 12.552 200.469 12.552C201.893 12.552 202.989 12.8 203.757 13.296C204.541 13.792 204.933 14.496 204.933 15.408C204.933 16.112 204.701 16.696 204.237 17.16C203.773 17.624 203.149 17.912 202.365 18.024V18.096C203.277 18.176 203.989 18.448 204.501 18.912C205.029 19.376 205.293 20.04 205.293 20.904C205.293 21.992 204.861 22.84 203.997 23.448C203.149 24.056 201.877 24.36 200.181 24.36ZM212.136 24.36C210.616 24.36 209.336 23.824 208.296 22.752C207.256 21.68 206.736 20.248 206.736 18.456C206.736 16.664 207.256 15.232 208.296 14.16C209.336 13.088 210.616 12.552 212.136 12.552C213.864 12.552 215.112 13.216 215.88 14.544H215.928V12.912H218.28V24H215.928V22.368H215.88C215.112 23.696 213.864 24.36 212.136 24.36ZM210.168 21.072C210.792 21.728 211.616 22.056 212.64 22.056C213.664 22.056 214.488 21.728 215.112 21.072C215.736 20.4 216.048 19.528 216.048 18.456C216.048 17.384 215.736 16.52 215.112 15.864C214.488 15.192 213.664 14.856 212.64 14.856C211.616 14.856 210.792 15.192 210.168 15.864C209.544 16.52 209.232 17.384 209.232 18.456C209.232 19.528 209.544 20.4 210.168 21.072ZM221.167 28.8V12.912H223.519V14.544H223.567C224.335 13.216 225.583 12.552 227.311 12.552C228.831 12.552 230.111 13.088 231.151 14.16C232.191 15.232 232.711 16.664 232.711 18.456C232.711 20.248 232.191 21.68 231.151 22.752C230.111 23.824 228.831 24.36 227.311 24.36C225.583 24.36 224.335 23.696 223.567 22.368H223.519V28.8H221.167ZM224.335 21.072C224.959 21.728 225.783 22.056 226.807 22.056C227.831 22.056 228.655 21.728 229.279 21.072C229.903 20.4 230.215 19.528 230.215 18.456C230.215 17.384 229.903 16.52 229.279 15.864C228.655 15.192 227.831 14.856 226.807 14.856C225.783 14.856 224.959 15.192 224.335 15.864C223.711 16.52 223.399 17.384 223.399 18.456C223.399 19.528 223.711 20.4 224.335 21.072ZM239.822 12.552C241.486 12.552 242.782 13.088 243.71 14.16C244.654 15.216 245.126 16.648 245.126 18.456V18.84H236.534C236.582 19.816 236.91 20.608 237.518 21.216C238.142 21.808 238.934 22.104 239.894 22.104C241.206 22.104 242.342 21.456 243.302 20.16L244.958 21.72C243.678 23.48 242.006 24.36 239.942 24.36C238.182 24.36 236.774 23.824 235.718 22.752C234.678 21.664 234.158 20.24 234.158 18.48C234.158 16.752 234.662 15.336 235.67 14.232C236.694 13.112 238.078 12.552 239.822 12.552ZM239.678 14.712C238.862 14.712 238.19 14.92 237.662 15.336C237.134 15.752 236.798 16.352 236.654 17.136H242.582C242.534 16.368 242.246 15.776 241.718 15.36C241.206 14.928 240.526 14.712 239.678 14.712ZM254.476 12.912V15.12H249.628V24H247.276V12.912H254.476ZM256.042 24V12.912H258.394V20.28H258.442L263.938 12.912H266.122V24H263.77V16.632H263.722L258.226 24H256.042ZM274.379 24.36C272.587 24.36 271.123 23.816 269.987 22.728C268.851 21.64 268.283 20.216 268.283 18.456C268.283 16.696 268.851 15.272 269.987 14.184C271.123 13.096 272.587 12.552 274.379 12.552C275.771 12.552 277.035 12.928 278.171 13.68L277.067 15.672C276.171 15.112 275.251 14.832 274.307 14.832C273.251 14.832 272.395 15.176 271.739 15.864C271.099 16.536 270.779 17.4 270.779 18.456C270.779 19.512 271.099 20.384 271.739 21.072C272.395 21.744 273.251 22.08 274.307 22.08C275.251 22.08 276.171 21.8 277.067 21.24L278.171 23.232C277.035 23.984 275.771 24.36 274.379 24.36ZM288.824 12.912V15.072H284.96V24H282.608V15.072H278.768V12.912H288.824ZM290.378 28.8V12.912H292.73V14.544H292.778C293.546 13.216 294.794 12.552 296.522 12.552C298.042 12.552 299.322 13.088 300.362 14.16C301.402 15.232 301.922 16.664 301.922 18.456C301.922 20.248 301.402 21.68 300.362 22.752C299.322 23.824 298.042 24.36 296.522 24.36C294.794 24.36 293.546 23.696 292.778 22.368H292.73V28.8H290.378ZM293.546 21.072C294.17 21.728 294.994 22.056 296.018 22.056C297.042 22.056 297.866 21.728 298.49 21.072C299.114 20.4 299.426 19.528 299.426 18.456C299.426 17.384 299.114 16.52 298.49 15.864C297.866 15.192 297.042 14.856 296.018 14.856C294.994 14.856 294.17 15.192 293.546 15.864C292.922 16.52 292.61 17.384 292.61 18.456C292.61 19.528 292.922 20.4 293.546 21.072ZM304.088 24V12.912H306.44V20.28H306.488L311.984 12.912H314.168V24H311.816V16.632H311.768L306.272 24H304.088ZM317.049 28.8V12.912H319.401V14.544H319.449C320.217 13.216 321.465 12.552 323.193 12.552C324.713 12.552 325.993 13.088 327.033 14.16C328.073 15.232 328.593 16.664 328.593 18.456C328.593 20.248 328.073 21.68 327.033 22.752C325.993 23.824 324.713 24.36 323.193 24.36C321.465 24.36 320.217 23.696 319.449 22.368H319.401V28.8H317.049ZM320.217 21.072C320.841 21.728 321.665 22.056 322.689 22.056C323.713 22.056 324.537 21.728 325.161 21.072C325.785 20.4 326.097 19.528 326.097 18.456C326.097 17.384 325.785 16.52 325.161 15.864C324.537 15.192 323.713 14.856 322.689 14.856C321.665 14.856 320.841 15.192 320.217 15.864C319.593 16.52 319.281 17.384 319.281 18.456C319.281 19.528 319.593 20.4 320.217 21.072ZM337.639 12.912H340.231L333.319 28.8H330.823L333.487 22.992L328.831 12.912H331.639L334.687 20.184L337.639 12.912ZM349.869 8.64C349.869 9.68 349.565 10.504 348.957 11.112C348.365 11.704 347.581 12 346.605 12C345.629 12 344.837 11.704 344.229 11.112C343.637 10.504 343.341 9.68 343.341 8.64H344.973C345.005 9.184 345.165 9.616 345.453 9.936C345.741 10.24 346.125 10.392 346.605 10.392C347.085 10.392 347.469 10.24 347.757 9.936C348.045 9.616 348.205 9.184 348.237 8.64H349.869ZM341.565 24V12.912H343.917V20.28H343.965L349.461 12.912H351.645V24H349.293V16.632H349.245L343.749 24H341.565ZM359.902 24.36C358.11 24.36 356.646 23.816 355.51 22.728C354.374 21.64 353.806 20.216 353.806 18.456C353.806 16.696 354.374 15.272 355.51 14.184C356.646 13.096 358.11 12.552 359.902 12.552C361.294 12.552 362.558 12.928 363.694 13.68L362.59 15.672C361.694 15.112 360.774 14.832 359.83 14.832C358.774 14.832 357.918 15.176 357.262 15.864C356.622 16.536 356.302 17.4 356.302 18.456C356.302 19.512 356.622 20.384 357.262 21.072C357.918 21.744 358.774 22.08 359.83 22.08C360.774 22.08 361.694 21.8 362.59 21.24L363.694 23.232C362.558 23.984 361.294 24.36 359.902 24.36ZM368.69 12.912H374.33V24H371.978V19.992H370.298L367.13 24H364.298L367.61 19.896C366.698 19.736 365.986 19.352 365.474 18.744C364.962 18.136 364.706 17.392 364.706 16.512C364.706 15.456 365.066 14.592 365.786 13.92C366.506 13.248 367.474 12.912 368.69 12.912ZM368.954 17.88H371.978V15.072H368.954C367.786 15.072 367.202 15.536 367.202 16.464C367.202 17.408 367.786 17.88 368.954 17.88Z" fill="#141B41"/>
<path d="M99.918 45.4H101.304V58H99.918V51.97H92.718V58H91.332V45.4H92.718V50.638H99.918V45.4ZM107.337 58.27C106.161 58.27 105.177 57.868 104.385 57.064C103.605 56.26 103.215 55.186 103.215 53.842C103.215 52.498 103.605 51.424 104.385 50.62C105.177 49.816 106.161 49.414 107.337 49.414C108.789 49.414 109.839 49.996 110.487 51.16H110.523V49.684H111.819V58H110.523V56.524H110.487C109.839 57.688 108.789 58.27 107.337 58.27ZM105.411 56.11C105.963 56.698 106.689 56.992 107.589 56.992C108.489 56.992 109.215 56.698 109.767 56.11C110.319 55.522 110.595 54.766 110.595 53.842C110.595 52.918 110.319 52.162 109.767 51.574C109.215 50.986 108.489 50.692 107.589 50.692C106.689 50.692 105.963 50.986 105.411 51.574C104.859 52.162 104.583 52.918 104.583 53.842C104.583 54.766 104.859 55.522 105.411 56.11ZM124.711 49.684H126.007V58H114.091V49.684H115.387V56.776H119.401V49.684H120.697V56.776H124.711V49.684ZM131.966 49.414C133.274 49.414 134.264 49.822 134.936 50.638C135.62 51.442 135.962 52.492 135.962 53.788V54.022H129.05C129.062 54.934 129.344 55.66 129.896 56.2C130.448 56.74 131.162 57.01 132.038 57.01C132.518 57.01 132.956 56.92 133.352 56.74C133.76 56.548 134.06 56.356 134.252 56.164C134.456 55.96 134.666 55.714 134.882 55.426L135.818 56.272C134.87 57.604 133.616 58.27 132.056 58.27C130.748 58.27 129.698 57.868 128.906 57.064C128.126 56.248 127.736 55.18 127.736 53.86C127.736 52.528 128.12 51.454 128.888 50.638C129.668 49.822 130.694 49.414 131.966 49.414ZM131.894 50.62C131.15 50.62 130.52 50.83 130.004 51.25C129.5 51.67 129.2 52.264 129.104 53.032H134.558C134.498 52.264 134.234 51.67 133.766 51.25C133.31 50.83 132.686 50.62 131.894 50.62ZM150.206 49.684V58H148.91V50.908H144.356V58H143.06V49.684H150.206ZM152.517 61.6V49.684H153.813V51.16H153.849C154.497 49.996 155.547 49.414 156.999 49.414C158.175 49.414 159.153 49.816 159.933 50.62C160.725 51.424 161.121 52.498 161.121 53.842C161.121 55.186 160.725 56.26 159.933 57.064C159.153 57.868 158.175 58.27 156.999 58.27C155.547 58.27 154.497 57.688 153.849 56.524H153.813V61.6H152.517ZM154.569 56.11C155.121 56.698 155.847 56.992 156.747 56.992C157.647 56.992 158.373 56.698 158.925 56.11C159.477 55.522 159.753 54.766 159.753 53.842C159.753 52.918 159.477 52.162 158.925 51.574C158.373 50.986 157.647 50.692 156.747 50.692C155.847 50.692 155.121 50.986 154.569 51.574C154.017 52.162 153.741 52.918 153.741 53.842C153.741 54.766 154.017 55.522 154.569 56.11ZM162.853 58V49.684H164.167V56.02H164.203L168.955 49.684H170.269V58H168.955V51.664H168.919L164.185 58H162.853ZM179.846 49.684V58H178.55V50.908H174.374V55.858C174.374 56.602 174.194 57.16 173.834 57.532C173.486 57.892 173.006 58.072 172.394 58.072H171.602V56.884H172.232C172.796 56.884 173.078 56.536 173.078 55.84V49.684H179.846ZM186.078 49.414C187.386 49.414 188.46 49.834 189.3 50.674C190.152 51.502 190.578 52.558 190.578 53.842C190.578 55.126 190.152 56.188 189.3 57.028C188.46 57.856 187.386 58.27 186.078 58.27C184.782 58.27 183.708 57.856 182.856 57.028C182.004 56.188 181.578 55.126 181.578 53.842C181.578 52.558 182.004 51.502 182.856 50.674C183.708 49.834 184.782 49.414 186.078 49.414ZM188.328 51.556C187.74 50.98 186.99 50.692 186.078 50.692C185.166 50.692 184.416 50.98 183.828 51.556C183.24 52.132 182.946 52.894 182.946 53.842C182.946 54.79 183.24 55.552 183.828 56.128C184.416 56.704 185.166 56.992 186.078 56.992C186.99 56.992 187.74 56.704 188.328 56.128C188.916 55.552 189.21 54.79 189.21 53.842C189.21 52.894 188.916 52.132 188.328 51.556ZM202.84 58H201.094L197.404 53.734V58H196.126V53.734L192.436 58H190.69L194.686 53.5L191.068 49.684H192.832L196.126 53.338V49.684H197.404V53.356L200.698 49.684H202.462L198.862 53.5L202.84 58ZM207.077 49.414C208.385 49.414 209.375 49.822 210.047 50.638C210.731 51.442 211.073 52.492 211.073 53.788V54.022H204.161C204.173 54.934 204.455 55.66 205.007 56.2C205.559 56.74 206.273 57.01 207.149 57.01C207.629 57.01 208.067 56.92 208.463 56.74C208.871 56.548 209.171 56.356 209.363 56.164C209.567 55.96 209.777 55.714 209.993 55.426L210.929 56.272C209.981 57.604 208.727 58.27 207.167 58.27C205.859 58.27 204.809 57.868 204.017 57.064C203.237 56.248 202.847 55.18 202.847 53.86C202.847 52.528 203.231 51.454 203.999 50.638C204.779 49.822 205.805 49.414 207.077 49.414ZM207.005 50.62C206.261 50.62 205.631 50.83 205.115 51.25C204.611 51.67 204.311 52.264 204.215 53.032H209.669C209.609 52.264 209.345 51.67 208.877 51.25C208.421 50.83 207.797 50.62 207.005 50.62ZM218.948 49.684H220.244V58H218.948V54.202H214.106V58H212.81V49.684H214.106V52.996H218.948V49.684ZM222.548 58V49.684H223.862V56.02H223.898L228.65 49.684H229.964V58H228.65V51.664H228.614L223.88 58H222.548ZM235.923 49.414C237.231 49.414 238.221 49.822 238.893 50.638C239.577 51.442 239.919 52.492 239.919 53.788V54.022H233.007C233.019 54.934 233.301 55.66 233.853 56.2C234.405 56.74 235.119 57.01 235.995 57.01C236.475 57.01 236.913 56.92 237.309 56.74C237.717 56.548 238.017 56.356 238.209 56.164C238.413 55.96 238.623 55.714 238.839 55.426L239.775 56.272C238.827 57.604 237.573 58.27 236.013 58.27C234.705 58.27 233.655 57.868 232.863 57.064C232.083 56.248 231.693 55.18 231.693 53.86C231.693 52.528 232.077 51.454 232.845 50.638C233.625 49.822 234.651 49.414 235.923 49.414ZM235.851 50.62C235.107 50.62 234.477 50.83 233.961 51.25C233.457 51.67 233.157 52.264 233.061 53.032H238.515C238.455 52.264 238.191 51.67 237.723 51.25C237.267 50.83 236.643 50.62 235.851 50.62ZM253.893 56.956H254.919V60.34H253.767V58.162H247.107V60.34H245.937V56.956H246.999C247.479 56.116 247.719 55.108 247.719 53.932V49.684H253.893V56.956ZM249.015 54.004C249.015 55.132 248.805 56.116 248.385 56.956H252.597V50.872H249.015V54.004ZM259.871 49.414C261.179 49.414 262.253 49.834 263.093 50.674C263.945 51.502 264.371 52.558 264.371 53.842C264.371 55.126 263.945 56.188 263.093 57.028C262.253 57.856 261.179 58.27 259.871 58.27C258.575 58.27 257.501 57.856 256.649 57.028C255.797 56.188 255.371 55.126 255.371 53.842C255.371 52.558 255.797 51.502 256.649 50.674C257.501 49.834 258.575 49.414 259.871 49.414ZM262.121 51.556C261.533 50.98 260.783 50.692 259.871 50.692C258.959 50.692 258.209 50.98 257.621 51.556C257.033 52.132 256.739 52.894 256.739 53.842C256.739 54.79 257.033 55.552 257.621 56.128C258.209 56.704 258.959 56.992 259.871 56.992C260.783 56.992 261.533 56.704 262.121 56.128C262.709 55.552 263.003 54.79 263.003 53.842C263.003 52.894 262.709 52.132 262.121 51.556ZM269.908 58.27C268.576 58.27 267.49 57.862 266.65 57.046C265.81 56.23 265.39 55.162 265.39 53.842C265.39 52.522 265.81 51.454 266.65 50.638C267.49 49.822 268.576 49.414 269.908 49.414C270.904 49.414 271.852 49.69 272.752 50.242L272.122 51.358C271.354 50.902 270.604 50.674 269.872 50.674C268.948 50.674 268.198 50.98 267.622 51.592C267.046 52.192 266.758 52.942 266.758 53.842C266.758 54.742 267.046 55.498 267.622 56.11C268.198 56.71 268.948 57.01 269.872 57.01C270.604 57.01 271.354 56.782 272.122 56.326L272.752 57.442C271.852 57.994 270.904 58.27 269.908 58.27ZM280.958 49.684V50.872H277.754V58H276.458V50.872H273.272V49.684H280.958ZM287.879 49.684H289.319L283.883 61.6H282.497L284.621 57.118L281.165 49.684H282.695L285.287 55.66L287.879 49.684ZM297.634 49.684V58H296.338V50.908H291.784V58H290.488V49.684H297.634ZM306.083 49.684H307.379V58H306.083V54.202H301.241V58H299.945V49.684H301.241V52.996H306.083V49.684ZM313.607 49.414C314.915 49.414 315.989 49.834 316.829 50.674C317.681 51.502 318.107 52.558 318.107 53.842C318.107 55.126 317.681 56.188 316.829 57.028C315.989 57.856 314.915 58.27 313.607 58.27C312.311 58.27 311.237 57.856 310.385 57.028C309.533 56.188 309.107 55.126 309.107 53.842C309.107 52.558 309.533 51.502 310.385 50.674C311.237 49.834 312.311 49.414 313.607 49.414ZM315.857 51.556C315.269 50.98 314.519 50.692 313.607 50.692C312.695 50.692 311.945 50.98 311.357 51.556C310.769 52.132 310.475 52.894 310.475 53.842C310.475 54.79 310.769 55.552 311.357 56.128C311.945 56.704 312.695 56.992 313.607 56.992C314.519 56.992 315.269 56.704 315.857 56.128C316.445 55.552 316.739 54.79 316.739 53.842C316.739 52.894 316.445 52.132 315.857 51.556ZM330.551 53.644C331.739 53.8 332.333 54.466 332.333 55.642C332.333 56.41 332.063 56.998 331.523 57.406C330.983 57.802 330.311 58 329.507 58H325.205V49.684H329.579C330.347 49.684 330.959 49.864 331.415 50.224C331.871 50.572 332.099 51.082 332.099 51.754C332.099 52.246 331.967 52.66 331.703 52.996C331.439 53.32 331.055 53.53 330.551 53.626V53.644ZM329.291 50.782H326.501V53.14H329.237C330.245 53.14 330.749 52.738 330.749 51.934C330.749 51.166 330.263 50.782 329.291 50.782ZM329.363 56.902C329.891 56.902 330.293 56.788 330.569 56.56C330.845 56.32 330.983 55.984 330.983 55.552C330.983 54.652 330.467 54.202 329.435 54.202H326.501V56.902H329.363ZM348.146 58L346.814 54.634H340.892L339.56 58H338.048L343.196 45.4H344.51L349.64 58H348.146ZM341.396 53.356H346.31L343.862 47.164L341.396 53.356ZM350.939 61.6V49.684H352.235V51.16H352.271C352.919 49.996 353.969 49.414 355.421 49.414C356.597 49.414 357.575 49.816 358.355 50.62C359.147 51.424 359.543 52.498 359.543 53.842C359.543 55.186 359.147 56.26 358.355 57.064C357.575 57.868 356.597 58.27 355.421 58.27C353.969 58.27 352.919 57.688 352.271 56.524H352.235V61.6H350.939ZM352.991 56.11C353.543 56.698 354.269 56.992 355.169 56.992C356.069 56.992 356.795 56.698 357.347 56.11C357.899 55.522 358.175 54.766 358.175 53.842C358.175 52.918 357.899 52.162 357.347 51.574C356.795 50.986 356.069 50.692 355.169 50.692C354.269 50.692 353.543 50.986 352.991 51.574C352.439 52.162 352.163 52.918 352.163 53.842C352.163 54.766 352.439 55.522 352.991 56.11ZM361.275 61.6V49.684H362.571V51.16H362.607C363.255 49.996 364.305 49.414 365.757 49.414C366.933 49.414 367.911 49.816 368.691 50.62C369.483 51.424 369.879 52.498 369.879 53.842C369.879 55.186 369.483 56.26 368.691 57.064C367.911 57.868 366.933 58.27 365.757 58.27C364.305 58.27 363.255 57.688 362.607 56.524H362.571V61.6H361.275ZM363.327 56.11C363.879 56.698 364.605 56.992 365.505 56.992C366.405 56.992 367.131 56.698 367.683 56.11C368.235 55.522 368.511 54.766 368.511 53.842C368.511 52.918 368.235 52.162 367.683 51.574C367.131 50.986 366.405 50.692 365.505 50.692C364.605 50.692 363.879 50.986 363.327 51.574C362.775 52.162 362.499 52.918 362.499 53.842C362.499 54.766 362.775 55.522 363.327 56.11ZM372.961 45.4V58H371.665V45.4H372.961ZM378.974 49.414C380.282 49.414 381.272 49.822 381.944 50.638C382.628 51.442 382.97 52.492 382.97 53.788V54.022H376.058C376.07 54.934 376.352 55.66 376.904 56.2C377.456 56.74 378.17 57.01 379.046 57.01C379.526 57.01 379.964 56.92 380.36 56.74C380.768 56.548 381.068 56.356 381.26 56.164C381.464 55.96 381.674 55.714 381.89 55.426L382.826 56.272C381.878 57.604 380.624 58.27 379.064 58.27C377.756 58.27 376.706 57.868 375.914 57.064C375.134 56.248 374.744 55.18 374.744 53.86C374.744 52.528 375.128 51.454 375.896 50.638C376.676 49.822 377.702 49.414 378.974 49.414ZM378.902 50.62C378.158 50.62 377.528 50.83 377.012 51.25C376.508 51.67 376.208 52.264 376.112 53.032H381.566C381.506 52.264 381.242 51.67 380.774 51.25C380.318 50.83 379.694 50.62 378.902 50.62ZM393.524 45.13C394.556 45.13 395.624 45.394 396.728 45.922L396.08 47.254C395.216 46.774 394.358 46.534 393.506 46.534C392.882 46.534 392.408 46.666 392.084 46.93C391.772 47.182 391.616 47.53 391.616 47.974C391.616 48.358 391.724 48.694 391.94 48.982C392.168 49.258 392.51 49.564 392.966 49.9L395.036 51.43C395.744 51.946 396.272 52.474 396.62 53.014C396.968 53.542 397.142 54.166 397.142 54.886C397.142 55.978 396.788 56.818 396.08 57.406C395.372 57.982 394.424 58.27 393.236 58.27C391.772 58.27 390.446 57.886 389.258 57.118L389.924 55.822C391.052 56.518 392.156 56.866 393.236 56.866C394.028 56.866 394.628 56.692 395.036 56.344C395.456 55.984 395.666 55.528 395.666 54.976C395.666 54.556 395.54 54.172 395.288 53.824C395.036 53.464 394.616 53.068 394.028 52.636L391.976 51.088C391.376 50.632 390.914 50.17 390.59 49.702C390.278 49.234 390.122 48.676 390.122 48.028C390.122 47.14 390.416 46.438 391.004 45.922C391.604 45.394 392.444 45.13 393.524 45.13ZM402.447 50.8H400.611V55.714C400.611 56.446 400.959 56.812 401.655 56.812H402.105V58.018H401.421C400.761 58.018 400.245 57.844 399.873 57.496C399.501 57.148 399.315 56.638 399.315 55.966V50.8H397.713V49.684H399.315V46.354H400.611V49.684H402.447V50.8ZM407.474 49.414C408.782 49.414 409.856 49.834 410.696 50.674C411.548 51.502 411.974 52.558 411.974 53.842C411.974 55.126 411.548 56.188 410.696 57.028C409.856 57.856 408.782 58.27 407.474 58.27C406.178 58.27 405.104 57.856 404.252 57.028C403.4 56.188 402.974 55.126 402.974 53.842C402.974 52.558 403.4 51.502 404.252 50.674C405.104 49.834 406.178 49.414 407.474 49.414ZM409.724 51.556C409.136 50.98 408.386 50.692 407.474 50.692C406.562 50.692 405.812 50.98 405.224 51.556C404.636 52.132 404.342 52.894 404.342 53.842C404.342 54.79 404.636 55.552 405.224 56.128C405.812 56.704 406.562 56.992 407.474 56.992C408.386 56.992 409.136 56.704 409.724 56.128C410.312 55.552 410.606 54.79 410.606 53.842C410.606 52.894 410.312 52.132 409.724 51.556ZM418.013 49.432V50.926H417.761C416.873 50.926 416.189 51.202 415.709 51.754C415.241 52.294 415.007 53.074 415.007 54.094V58H413.711V49.684H415.007V51.556H415.043C415.223 50.92 415.553 50.41 416.033 50.026C416.525 49.63 417.113 49.432 417.797 49.432H418.013ZM422.48 49.414C423.788 49.414 424.778 49.822 425.45 50.638C426.134 51.442 426.476 52.492 426.476 53.788V54.022H419.564C419.576 54.934 419.858 55.66 420.41 56.2C420.962 56.74 421.676 57.01 422.552 57.01C423.032 57.01 423.47 56.92 423.866 56.74C424.274 56.548 424.574 56.356 424.766 56.164C424.97 55.96 425.18 55.714 425.396 55.426L426.332 56.272C425.384 57.604 424.13 58.27 422.57 58.27C421.262 58.27 420.212 57.868 419.42 57.064C418.64 56.248 418.25 55.18 418.25 53.86C418.25 52.528 418.634 51.454 419.402 50.638C420.182 49.822 421.208 49.414 422.48 49.414ZM422.408 50.62C421.664 50.62 421.034 50.83 420.518 51.25C420.014 51.67 419.714 52.264 419.618 53.032H425.072C425.012 52.264 424.748 51.67 424.28 51.25C423.824 50.83 423.2 50.62 422.408 50.62ZM433.574 58V49.684H434.888V56.02H434.924L439.676 49.684H440.99V58H439.676V51.664H439.64L434.906 58H433.574ZM455.316 51.268H461.184V51.844C461.184 52.648 461.052 53.422 460.788 54.166C460.536 54.91 460.158 55.594 459.654 56.218C459.15 56.842 458.478 57.34 457.638 57.712C456.81 58.084 455.874 58.27 454.83 58.27C452.886 58.27 451.29 57.67 450.042 56.47C448.794 55.258 448.17 53.68 448.17 51.736C448.17 49.792 448.788 48.208 450.024 46.984C451.26 45.748 452.862 45.13 454.83 45.13C456.63 45.13 458.238 45.688 459.654 46.804L458.7 47.974C457.536 47.014 456.228 46.534 454.776 46.534C453.288 46.534 452.064 47.026 451.104 48.01C450.156 48.982 449.682 50.218 449.682 51.718C449.682 53.218 450.156 54.454 451.104 55.426C452.064 56.386 453.318 56.866 454.866 56.866C455.646 56.866 456.348 56.734 456.972 56.47C457.608 56.194 458.112 55.84 458.484 55.408C458.868 54.976 459.162 54.52 459.366 54.04C459.57 53.548 459.684 53.062 459.708 52.582H455.316V51.268ZM466.801 49.414C468.109 49.414 469.183 49.834 470.023 50.674C470.875 51.502 471.301 52.558 471.301 53.842C471.301 55.126 470.875 56.188 470.023 57.028C469.183 57.856 468.109 58.27 466.801 58.27C465.505 58.27 464.431 57.856 463.579 57.028C462.727 56.188 462.301 55.126 462.301 53.842C462.301 52.558 462.727 51.502 463.579 50.674C464.431 49.834 465.505 49.414 466.801 49.414ZM469.051 51.556C468.463 50.98 467.713 50.692 466.801 50.692C465.889 50.692 465.139 50.98 464.551 51.556C463.963 52.132 463.669 52.894 463.669 53.842C463.669 54.79 463.963 55.552 464.551 56.128C465.139 56.704 465.889 56.992 466.801 56.992C467.713 56.992 468.463 56.704 469.051 56.128C469.639 55.552 469.933 54.79 469.933 53.842C469.933 52.894 469.639 52.132 469.051 51.556ZM476.961 49.414C478.269 49.414 479.343 49.834 480.183 50.674C481.035 51.502 481.461 52.558 481.461 53.842C481.461 55.126 481.035 56.188 480.183 57.028C479.343 57.856 478.269 58.27 476.961 58.27C475.665 58.27 474.591 57.856 473.739 57.028C472.887 56.188 472.461 55.126 472.461 53.842C472.461 52.558 472.887 51.502 473.739 50.674C474.591 49.834 475.665 49.414 476.961 49.414ZM479.211 51.556C478.623 50.98 477.873 50.692 476.961 50.692C476.049 50.692 475.299 50.98 474.711 51.556C474.123 52.132 473.829 52.894 473.829 53.842C473.829 54.79 474.123 55.552 474.711 56.128C475.299 56.704 476.049 56.992 476.961 56.992C477.873 56.992 478.623 56.704 479.211 56.128C479.799 55.552 480.093 54.79 480.093 53.842C480.093 52.894 479.799 52.132 479.211 51.556ZM487.373 61.87C486.413 61.87 485.345 61.744 484.169 61.492L484.421 60.232C485.561 60.484 486.545 60.61 487.373 60.61C488.273 60.61 488.921 60.4 489.317 59.98C489.725 59.56 489.929 58.87 489.929 57.91V56.524H489.893C489.245 57.688 488.195 58.27 486.743 58.27C485.567 58.27 484.583 57.868 483.791 57.064C483.011 56.26 482.621 55.186 482.621 53.842C482.621 52.498 483.011 51.424 483.791 50.62C484.583 49.816 485.567 49.414 486.743 49.414C488.195 49.414 489.245 49.996 489.893 51.16H489.929V49.684H491.225V58C491.201 59.488 490.853 60.502 490.181 61.042C489.509 61.594 488.573 61.87 487.373 61.87ZM484.817 56.11C485.369 56.698 486.095 56.992 486.995 56.992C487.895 56.992 488.621 56.698 489.173 56.11C489.725 55.522 490.001 54.766 490.001 53.842C490.001 52.918 489.725 52.162 489.173 51.574C488.621 50.986 487.895 50.692 486.995 50.692C486.095 50.692 485.369 50.986 484.817 51.574C484.265 52.162 483.989 52.918 483.989 53.842C483.989 54.766 484.265 55.522 484.817 56.11ZM494.848 45.4V58H493.552V45.4H494.848ZM500.861 49.414C502.169 49.414 503.159 49.822 503.831 50.638C504.515 51.442 504.857 52.492 504.857 53.788V54.022H497.945C497.957 54.934 498.239 55.66 498.791 56.2C499.343 56.74 500.057 57.01 500.933 57.01C501.413 57.01 501.851 56.92 502.247 56.74C502.655 56.548 502.955 56.356 503.147 56.164C503.351 55.96 503.561 55.714 503.777 55.426L504.713 56.272C503.765 57.604 502.511 58.27 500.951 58.27C499.643 58.27 498.593 57.868 497.801 57.064C497.021 56.248 496.631 55.18 496.631 53.86C496.631 52.528 497.015 51.454 497.783 50.638C498.563 49.822 499.589 49.414 500.861 49.414ZM500.789 50.62C500.045 50.62 499.415 50.83 498.899 51.25C498.395 51.67 498.095 52.264 497.999 53.032H503.453C503.393 52.264 503.129 51.67 502.661 51.25C502.205 50.83 501.581 50.62 500.789 50.62ZM516.383 45.4C517.559 45.4 518.483 45.748 519.155 46.444C519.839 47.14 520.181 48.034 520.181 49.126C520.181 50.206 519.839 51.094 519.155 51.79C518.471 52.486 517.547 52.834 516.383 52.834H513.521V58H512.135V45.4H516.383ZM516.239 51.52C516.983 51.52 517.577 51.316 518.021 50.908C518.465 50.488 518.687 49.894 518.687 49.126C518.687 48.346 518.465 47.752 518.021 47.344C517.577 46.924 516.983 46.714 516.239 46.714H513.521V51.52H516.239ZM522.99 45.4V58H521.694V45.4H522.99ZM528.895 58.27C527.719 58.27 526.735 57.868 525.943 57.064C525.163 56.26 524.773 55.186 524.773 53.842C524.773 52.498 525.163 51.424 525.943 50.62C526.735 49.816 527.719 49.414 528.895 49.414C530.347 49.414 531.397 49.996 532.045 51.16H532.081V49.684H533.377V58H532.081V56.524H532.045C531.397 57.688 530.347 58.27 528.895 58.27ZM526.969 56.11C527.521 56.698 528.247 56.992 529.147 56.992C530.047 56.992 530.773 56.698 531.325 56.11C531.877 55.522 532.153 54.766 532.153 53.842C532.153 52.918 531.877 52.162 531.325 51.574C530.773 50.986 530.047 50.692 529.147 50.692C528.247 50.692 527.521 50.986 526.969 51.574C526.417 52.162 526.141 52.918 526.141 53.842C526.141 54.766 526.417 55.522 526.969 56.11ZM541.197 49.684H542.637L537.201 61.6H535.815L537.939 57.118L534.483 49.684H536.013L538.605 55.66L541.197 49.684Z" fill="#72727E"/>
<rect y="2" width="60" height="60" rx="6" fill="#F7F8FD"/>
<path d="M38.3296 24.7969C42.0075 24.7969 45 27.9077 45 31.7312V39.3313C45 43.1454 42.015 46.25 38.3446 46.25H26.9237C26.2862 46.25 25.7702 45.7105 25.7702 45.0493C25.7702 44.3851 26.2862 43.8471 26.9237 43.8471H38.3446C40.74 43.8471 42.69 41.8215 42.69 39.3313V31.7312C42.69 29.2316 40.734 27.1982 38.3296 27.1982H36.9331C36.2956 27.1982 35.7796 26.6618 35.7796 25.9976C35.7796 25.3349 36.2956 24.7969 36.9331 24.7969H38.3296ZM23.0669 24.7977C23.7044 24.7977 24.2219 25.3356 24.2219 25.9983C24.2219 26.6611 23.7044 27.199 23.0669 27.199H21.6554C19.26 27.199 17.31 29.2261 17.31 31.7148V39.3149C17.31 41.8145 19.266 43.8479 21.6704 43.8479C22.3079 43.8479 22.8254 44.3858 22.8254 45.0485C22.8254 45.7113 22.3079 46.2492 21.6704 46.2492C17.9925 46.2492 15 43.1384 15 39.3149L15 31.7148C15 27.9007 17.985 24.7977 21.6554 24.7977H23.0669ZM29.9997 17.75C30.6372 17.75 31.1562 18.265 31.1562 18.8993V36.8319C31.1562 37.2976 30.8742 37.717 30.4407 37.8946C30.0087 38.0722 29.5107 37.9722 29.1807 37.6439L24.8188 33.2824C24.5953 33.0585 24.4828 32.7644 24.4828 32.4704C24.4828 32.1763 24.5953 31.8808 24.8218 31.6569C25.2747 31.2091 26.0052 31.2106 26.4552 31.6599L28.8447 34.0481V18.8993C28.8447 18.265 29.3622 17.75 29.9997 17.75ZM33.5418 31.6626C33.9903 31.2118 34.7208 31.2073 35.1752 31.6536C35.6297 32.0984 35.6327 32.8253 35.1842 33.2791L34.0923 34.3792C33.6453 34.8299 32.9133 34.8344 32.4603 34.3866C32.2308 34.1627 32.1168 33.8672 32.1168 33.5702C32.1168 33.2791 32.2278 32.9865 32.4513 32.7611L33.5418 31.6626Z" fill="#446DF6"/>
</svg>
