<svg width="595" height="64" viewBox="0 0 595 64" fill="none" xmlns="http://www.w3.org/2000/svg">
<path d="M93.336 9.312C95 7.664 97.088 6.84 99.6 6.84C102.112 6.84 104.2 7.664 105.864 9.312C107.528 10.944 108.36 13.04 108.36 15.6C108.36 18.16 107.528 20.264 105.864 21.912C104.2 23.544 102.112 24.36 99.6 24.36C97.088 24.36 95 23.544 93.336 21.912C91.672 20.264 90.84 18.16 90.84 15.6C90.84 13.04 91.672 10.944 93.336 9.312ZM103.944 11.136C102.824 9.968 101.376 9.384 99.6 9.384C97.824 9.384 96.376 9.968 95.256 11.136C94.136 12.304 93.576 13.792 93.576 15.6C93.576 17.408 94.136 18.896 95.256 20.064C96.376 21.232 97.824 21.816 99.6 21.816C101.376 21.816 102.824 21.232 103.944 20.064C105.064 18.896 105.624 17.408 105.624 15.6C105.624 13.792 105.064 12.304 103.944 11.136ZM120.499 12.912V24H118.147V15.12H112.987V24H110.635V12.912H120.499ZM133.201 12.912V24H130.849V15.12H126.289V20.952C126.289 22.008 126.025 22.808 125.497 23.352C124.969 23.896 124.249 24.168 123.337 24.168H122.185V22.032H122.953C123.609 22.032 123.937 21.664 123.937 20.928V12.912H133.201ZM140.768 24.36C139.248 24.36 137.968 23.824 136.928 22.752C135.888 21.68 135.368 20.248 135.368 18.456C135.368 16.664 135.888 15.232 136.928 14.16C137.968 13.088 139.248 12.552 140.768 12.552C142.496 12.552 143.744 13.216 144.512 14.544H144.56V12.912H146.912V24H144.56V22.368H144.512C143.744 23.696 142.496 24.36 140.768 24.36ZM138.8 21.072C139.424 21.728 140.248 22.056 141.272 22.056C142.296 22.056 143.12 21.728 143.744 21.072C144.368 20.4 144.68 19.528 144.68 18.456C144.68 17.384 144.368 16.52 143.744 15.864C143.12 15.192 142.296 14.856 141.272 14.856C140.248 14.856 139.424 15.192 138.8 15.864C138.176 16.52 137.864 17.384 137.864 18.456C137.864 19.528 138.176 20.4 138.8 21.072ZM158.535 12.912V15.072H154.671V24H152.319V15.072H148.479V12.912H158.535ZM160.088 24V12.912H162.44V20.28H162.488L167.984 12.912H170.168V24H167.816V16.632H167.768L162.272 24H160.088ZM187.354 18.216C188.954 18.424 189.754 19.312 189.754 20.88C189.754 21.904 189.362 22.68 188.578 23.208C187.81 23.736 186.874 24 185.77 24H180.01V12.912H185.962C186.986 12.912 187.818 13.16 188.458 13.656C189.098 14.136 189.418 14.816 189.418 15.696C189.418 17.056 188.73 17.888 187.354 18.192V18.216ZM185.434 14.832H182.362V17.328H185.458C186.466 17.328 186.97 16.896 186.97 16.032C186.97 15.664 186.834 15.376 186.562 15.168C186.306 14.944 185.93 14.832 185.434 14.832ZM185.554 22.08C186.098 22.08 186.53 21.96 186.85 21.72C187.17 21.48 187.33 21.128 187.33 20.664C187.33 19.688 186.81 19.2 185.77 19.2H182.362V22.08H185.554ZM200.026 12.912H202.378V24H200.026V19.344H194.386V24H192.034V12.912H194.386V17.136H200.026V12.912ZM212.506 12.912H215.098L208.186 28.8H205.69L208.354 22.992L203.698 12.912H206.506L209.554 20.184L212.506 12.912ZM225.403 12.912V15.072H221.539V24H219.187V15.072H215.347V12.912H225.403ZM226.956 28.8V12.912H229.308V14.544H229.356C230.124 13.216 231.372 12.552 233.1 12.552C234.62 12.552 235.9 13.088 236.94 14.16C237.98 15.232 238.5 16.664 238.5 18.456C238.5 20.248 237.98 21.68 236.94 22.752C235.9 23.824 234.62 24.36 233.1 24.36C231.372 24.36 230.124 23.696 229.356 22.368H229.308V28.8H226.956ZM230.124 21.072C230.748 21.728 231.572 22.056 232.596 22.056C233.62 22.056 234.444 21.728 235.068 21.072C235.692 20.4 236.004 19.528 236.004 18.456C236.004 17.384 235.692 16.52 235.068 15.864C234.444 15.192 233.62 14.856 232.596 14.856C231.572 14.856 230.748 15.192 230.124 15.864C229.5 16.52 229.188 17.384 229.188 18.456C229.188 19.528 229.5 20.4 230.124 21.072ZM240.667 24V12.912H243.019V20.28H243.067L248.563 12.912H250.747V24H248.395V16.632H248.347L242.851 24H240.667ZM270.452 12.912V24H268.1V15.12H262.94V24H260.588V12.912H270.452ZM273.338 28.8V12.912H275.69V14.544H275.738C276.506 13.216 277.754 12.552 279.482 12.552C281.002 12.552 282.282 13.088 283.322 14.16C284.362 15.232 284.882 16.664 284.882 18.456C284.882 20.248 284.362 21.68 283.322 22.752C282.282 23.824 281.002 24.36 279.482 24.36C277.754 24.36 276.506 23.696 275.738 22.368H275.69V28.8H273.338ZM276.506 21.072C277.13 21.728 277.954 22.056 278.978 22.056C280.002 22.056 280.826 21.728 281.45 21.072C282.074 20.4 282.386 19.528 282.386 18.456C282.386 17.384 282.074 16.52 281.45 15.864C280.826 15.192 280.002 14.856 278.978 14.856C277.954 14.856 277.13 15.192 276.506 15.864C275.882 16.52 275.57 17.384 275.57 18.456C275.57 19.528 275.882 20.4 276.506 21.072ZM287.049 24V12.912H289.401V20.28H289.449L294.945 12.912H297.129V24H294.777V16.632H294.729L289.233 24H287.049ZM309.826 12.912V24H307.474V15.12H302.914V20.952C302.914 22.008 302.65 22.808 302.122 23.352C301.594 23.896 300.874 24.168 299.962 24.168H298.81V22.032H299.578C300.234 22.032 300.562 21.664 300.562 20.928V12.912H309.826ZM313.721 14.232C314.873 13.112 316.321 12.552 318.065 12.552C319.809 12.552 321.257 13.112 322.409 14.232C323.561 15.352 324.137 16.76 324.137 18.456C324.137 20.152 323.561 21.56 322.409 22.68C321.257 23.8 319.809 24.36 318.065 24.36C316.321 24.36 314.873 23.8 313.721 22.68C312.569 21.56 311.993 20.152 311.993 18.456C311.993 16.76 312.569 15.352 313.721 14.232ZM320.633 15.84C319.977 15.184 319.121 14.856 318.065 14.856C317.009 14.856 316.145 15.184 315.473 15.84C314.817 16.496 314.489 17.368 314.489 18.456C314.489 19.544 314.817 20.416 315.473 21.072C316.145 21.728 317.009 22.056 318.065 22.056C319.121 22.056 319.977 21.728 320.633 21.072C321.305 20.416 321.641 19.544 321.641 18.456C321.641 17.368 321.305 16.496 320.633 15.84ZM341.567 24H338.471L334.007 18.432V24H331.703V18.432L327.239 24H324.143L329.111 18L324.623 12.912H327.743L331.703 17.76V12.912H334.007V17.76L337.967 12.912H341.087L336.599 18L341.567 24ZM347.118 12.552C348.782 12.552 350.078 13.088 351.006 14.16C351.95 15.216 352.422 16.648 352.422 18.456V18.84H343.83C343.878 19.816 344.206 20.608 344.814 21.216C345.438 21.808 346.23 22.104 347.19 22.104C348.502 22.104 349.638 21.456 350.598 20.16L352.254 21.72C350.974 23.48 349.302 24.36 347.238 24.36C345.478 24.36 344.07 23.824 343.014 22.752C341.974 21.664 341.454 20.24 341.454 18.48C341.454 16.752 341.958 15.336 342.966 14.232C343.99 13.112 345.374 12.552 347.118 12.552ZM346.974 14.712C346.158 14.712 345.486 14.92 344.958 15.336C344.43 15.752 344.094 16.352 343.95 17.136H349.878C349.83 16.368 349.542 15.776 349.014 15.36C348.502 14.928 347.822 14.712 346.974 14.712ZM362.565 12.912H364.917V24H362.565V19.344H356.925V24H354.573V12.912H356.925V17.136H362.565V12.912ZM367.792 24V12.912H370.144V20.28H370.192L375.688 12.912H377.872V24H375.52V16.632H375.472L369.976 24H367.792ZM384.065 12.912H389.705V24H387.353V19.992H385.673L382.505 24H379.673L382.985 19.896C382.073 19.736 381.361 19.352 380.849 18.744C380.337 18.136 380.081 17.392 380.081 16.512C380.081 15.456 380.441 14.592 381.161 13.92C381.881 13.248 382.849 12.912 384.065 12.912ZM384.329 17.88H387.353V15.072H384.329C383.161 15.072 382.577 15.536 382.577 16.464C382.577 17.408 383.161 17.88 384.329 17.88Z" fill="#141B41"/>
<path d="M95.904 50.674C97.068 50.674 98.01 50.998 98.73 51.646C99.45 52.294 99.81 53.194 99.81 54.346C99.81 55.486 99.45 56.38 98.73 57.028C98.01 57.676 97.068 58 95.904 58H91.332V45.4H99.234V46.714H92.718V50.674H95.904ZM95.724 56.686C96.564 56.686 97.206 56.476 97.65 56.056C98.094 55.636 98.316 55.066 98.316 54.346C98.316 53.614 98.094 53.038 97.65 52.618C97.206 52.198 96.564 51.988 95.724 51.988H92.718V56.686H95.724ZM105.195 49.414C106.503 49.414 107.493 49.822 108.165 50.638C108.849 51.442 109.191 52.492 109.191 53.788V54.022H102.279C102.291 54.934 102.573 55.66 103.125 56.2C103.677 56.74 104.391 57.01 105.267 57.01C105.747 57.01 106.185 56.92 106.581 56.74C106.989 56.548 107.289 56.356 107.481 56.164C107.685 55.96 107.895 55.714 108.111 55.426L109.047 56.272C108.099 57.604 106.845 58.27 105.285 58.27C103.977 58.27 102.927 57.868 102.135 57.064C101.355 56.248 100.965 55.18 100.965 53.86C100.965 52.528 101.349 51.454 102.117 50.638C102.897 49.822 103.923 49.414 105.195 49.414ZM105.123 50.62C104.379 50.62 103.749 50.83 103.233 51.25C102.729 51.67 102.429 52.264 102.333 53.032H107.787C107.727 52.264 107.463 51.67 106.995 51.25C106.539 50.83 105.915 50.62 105.123 50.62ZM114.729 58.27C113.397 58.27 112.311 57.862 111.471 57.046C110.631 56.23 110.211 55.162 110.211 53.842C110.211 52.522 110.631 51.454 111.471 50.638C112.311 49.822 113.397 49.414 114.729 49.414C115.725 49.414 116.673 49.69 117.573 50.242L116.943 51.358C116.175 50.902 115.425 50.674 114.693 50.674C113.769 50.674 113.019 50.98 112.443 51.592C111.867 52.192 111.579 52.942 111.579 53.842C111.579 54.742 111.867 55.498 112.443 56.11C113.019 56.71 113.769 57.01 114.693 57.01C115.425 57.01 116.175 56.782 116.943 56.326L117.573 57.442C116.673 57.994 115.725 58.27 114.729 58.27ZM126.048 58H124.266L120.45 53.806V58H119.154V49.684H120.45V53.302L123.87 49.684H125.652L121.818 53.482L126.048 58ZM130.531 49.414C131.839 49.414 132.913 49.834 133.753 50.674C134.605 51.502 135.031 52.558 135.031 53.842C135.031 55.126 134.605 56.188 133.753 57.028C132.913 57.856 131.839 58.27 130.531 58.27C129.235 58.27 128.161 57.856 127.309 57.028C126.457 56.188 126.031 55.126 126.031 53.842C126.031 52.558 126.457 51.502 127.309 50.674C128.161 49.834 129.235 49.414 130.531 49.414ZM132.781 51.556C132.193 50.98 131.443 50.692 130.531 50.692C129.619 50.692 128.869 50.98 128.281 51.556C127.693 52.132 127.399 52.894 127.399 53.842C127.399 54.79 127.693 55.552 128.281 56.128C128.869 56.704 129.619 56.992 130.531 56.992C131.443 56.992 132.193 56.704 132.781 56.128C133.369 55.552 133.663 54.79 133.663 53.842C133.663 52.894 133.369 52.132 132.781 51.556ZM142.905 49.684H144.201V58H142.905V54.202H138.063V58H136.767V49.684H138.063V52.996H142.905V49.684ZM152.989 49.684V50.872H149.785V58H148.489V50.872H145.303V49.684H152.989ZM157.083 58.27C155.907 58.27 154.923 57.868 154.131 57.064C153.351 56.26 152.961 55.186 152.961 53.842C152.961 52.498 153.351 51.424 154.131 50.62C154.923 49.816 155.907 49.414 157.083 49.414C158.535 49.414 159.585 49.996 160.233 51.16H160.269V49.684H161.565V58H160.269V56.524H160.233C159.585 57.688 158.535 58.27 157.083 58.27ZM155.157 56.11C155.709 56.698 156.435 56.992 157.335 56.992C158.235 56.992 158.961 56.698 159.513 56.11C160.065 55.522 160.341 54.766 160.341 53.842C160.341 52.918 160.065 52.162 159.513 51.574C158.961 50.986 158.235 50.692 157.335 50.692C156.435 50.692 155.709 50.986 155.157 51.574C154.605 52.162 154.329 52.918 154.329 53.842C154.329 54.766 154.605 55.522 155.157 56.11ZM170.732 58H168.95L165.134 53.806V58H163.838V49.684H165.134V53.302L168.554 49.684H170.336L166.502 53.482L170.732 58ZM178.495 49.684V50.872H175.291V58H173.995V50.872H170.809V49.684H178.495ZM185.866 49.684H187.162V58H185.866V54.202H181.024V58H179.728V49.684H181.024V52.996H185.866V49.684ZM193.012 58.27C191.836 58.27 190.852 57.868 190.06 57.064C189.28 56.26 188.89 55.186 188.89 53.842C188.89 52.498 189.28 51.424 190.06 50.62C190.852 49.816 191.836 49.414 193.012 49.414C194.464 49.414 195.514 49.996 196.162 51.16H196.198V49.684H197.494V58H196.198V56.524H196.162C195.514 57.688 194.464 58.27 193.012 58.27ZM191.086 56.11C191.638 56.698 192.364 56.992 193.264 56.992C194.164 56.992 194.89 56.698 195.442 56.11C195.994 55.522 196.27 54.766 196.27 53.842C196.27 52.918 195.994 52.162 195.442 51.574C194.89 50.986 194.164 50.692 193.264 50.692C192.364 50.692 191.638 50.986 191.086 51.574C190.534 52.162 190.258 52.918 190.258 53.842C190.258 54.766 190.534 55.522 191.086 56.11ZM201.981 49.684H206.031V58H204.735V54.742H203.007L200.505 58H198.921L201.513 54.724C200.781 54.64 200.199 54.382 199.767 53.95C199.335 53.518 199.119 52.948 199.119 52.24C199.119 51.46 199.377 50.842 199.893 50.386C200.421 49.918 201.117 49.684 201.981 49.684ZM202.125 53.572H204.735V50.872H202.125C201.597 50.872 201.189 50.992 200.901 51.232C200.625 51.46 200.487 51.79 200.487 52.222C200.487 53.122 201.033 53.572 202.125 53.572ZM217.613 49.414C218.921 49.414 219.995 49.834 220.835 50.674C221.687 51.502 222.113 52.558 222.113 53.842C222.113 55.126 221.687 56.188 220.835 57.028C219.995 57.856 218.921 58.27 217.613 58.27C216.317 58.27 215.243 57.856 214.391 57.028C213.539 56.188 213.113 55.126 213.113 53.842C213.113 52.558 213.539 51.502 214.391 50.674C215.243 49.834 216.317 49.414 217.613 49.414ZM219.863 51.556C219.275 50.98 218.525 50.692 217.613 50.692C216.701 50.692 215.951 50.98 215.363 51.556C214.775 52.132 214.481 52.894 214.481 53.842C214.481 54.79 214.775 55.552 215.363 56.128C215.951 56.704 216.701 56.992 217.613 56.992C218.525 56.992 219.275 56.704 219.863 56.128C220.451 55.552 220.745 54.79 220.745 53.842C220.745 52.894 220.451 52.132 219.863 51.556ZM230.995 49.684V58H229.699V50.908H225.145V58H223.849V49.684H230.995ZM240.578 49.684V58H239.282V50.908H235.106V55.858C235.106 56.602 234.926 57.16 234.566 57.532C234.218 57.892 233.738 58.072 233.126 58.072H232.334V56.884H232.964C233.528 56.884 233.81 56.536 233.81 55.84V49.684H240.578ZM246.432 58.27C245.256 58.27 244.272 57.868 243.48 57.064C242.7 56.26 242.31 55.186 242.31 53.842C242.31 52.498 242.7 51.424 243.48 50.62C244.272 49.816 245.256 49.414 246.432 49.414C247.884 49.414 248.934 49.996 249.582 51.16H249.618V49.684H250.914V58H249.618V56.524H249.582C248.934 57.688 247.884 58.27 246.432 58.27ZM244.506 56.11C245.058 56.698 245.784 56.992 246.684 56.992C247.584 56.992 248.31 56.698 248.862 56.11C249.414 55.522 249.69 54.766 249.69 53.842C249.69 52.918 249.414 52.162 248.862 51.574C248.31 50.986 247.584 50.692 246.684 50.692C245.784 50.692 245.058 50.986 244.506 51.574C243.954 52.162 243.678 52.918 243.678 53.842C243.678 54.766 243.954 55.522 244.506 56.11ZM259.671 49.684V50.872H256.467V58H255.171V50.872H251.985V49.684H259.671ZM263.764 58.27C262.588 58.27 261.604 57.868 260.812 57.064C260.032 56.26 259.642 55.186 259.642 53.842C259.642 52.498 260.032 51.424 260.812 50.62C261.604 49.816 262.588 49.414 263.764 49.414C265.216 49.414 266.266 49.996 266.914 51.16H266.95V49.684H268.246V58H266.95V56.524H266.914C266.266 57.688 265.216 58.27 263.764 58.27ZM261.838 56.11C262.39 56.698 263.116 56.992 264.016 56.992C264.916 56.992 265.642 56.698 266.194 56.11C266.746 55.522 267.022 54.766 267.022 53.842C267.022 52.918 266.746 52.162 266.194 51.574C265.642 50.986 264.916 50.692 264.016 50.692C263.116 50.692 262.39 50.986 261.838 51.574C261.286 52.162 261.01 52.918 261.01 53.842C261.01 54.766 261.286 55.522 261.838 56.11ZM281.227 53.644C282.415 53.8 283.009 54.466 283.009 55.642C283.009 56.41 282.739 56.998 282.199 57.406C281.659 57.802 280.987 58 280.183 58H275.881V49.684H280.255C281.023 49.684 281.635 49.864 282.091 50.224C282.547 50.572 282.775 51.082 282.775 51.754C282.775 52.246 282.643 52.66 282.379 52.996C282.115 53.32 281.731 53.53 281.227 53.626V53.644ZM279.967 50.782H277.177V53.14H279.913C280.921 53.14 281.425 52.738 281.425 51.934C281.425 51.166 280.939 50.782 279.967 50.782ZM280.039 56.902C280.567 56.902 280.969 56.788 281.245 56.56C281.521 56.32 281.659 55.984 281.659 55.552C281.659 54.652 281.143 54.202 280.111 54.202H277.177V56.902H280.039ZM290.966 49.684H292.262V58H290.966V54.202H286.124V58H284.828V49.684H286.124V52.996H290.966V49.684ZM300.113 49.684H301.553L296.117 61.6H294.731L296.855 57.118L293.399 49.684H294.929L297.521 55.66L300.113 49.684ZM309.452 49.684V50.872H306.248V58H304.952V50.872H301.766V49.684H309.452ZM310.685 61.6V49.684H311.981V51.16H312.017C312.665 49.996 313.715 49.414 315.167 49.414C316.343 49.414 317.321 49.816 318.101 50.62C318.893 51.424 319.289 52.498 319.289 53.842C319.289 55.186 318.893 56.26 318.101 57.064C317.321 57.868 316.343 58.27 315.167 58.27C313.715 58.27 312.665 57.688 312.017 56.524H311.981V61.6H310.685ZM312.737 56.11C313.289 56.698 314.015 56.992 314.915 56.992C315.815 56.992 316.541 56.698 317.093 56.11C317.645 55.522 317.921 54.766 317.921 53.842C317.921 52.918 317.645 52.162 317.093 51.574C316.541 50.986 315.815 50.692 314.915 50.692C314.015 50.692 313.289 50.986 312.737 51.574C312.185 52.162 311.909 52.918 311.909 53.842C311.909 54.766 312.185 55.522 312.737 56.11ZM321.021 58V49.684H322.335V56.02H322.371L327.123 49.684H328.437V58H327.123V51.664H327.087L322.353 58H321.021ZM343.249 49.684V58H341.953V50.908H337.399V58H336.103V49.684H343.249ZM345.56 61.6V49.684H346.856V51.16H346.892C347.54 49.996 348.59 49.414 350.042 49.414C351.218 49.414 352.196 49.816 352.976 50.62C353.768 51.424 354.164 52.498 354.164 53.842C354.164 55.186 353.768 56.26 352.976 57.064C352.196 57.868 351.218 58.27 350.042 58.27C348.59 58.27 347.54 57.688 346.892 56.524H346.856V61.6H345.56ZM347.612 56.11C348.164 56.698 348.89 56.992 349.79 56.992C350.69 56.992 351.416 56.698 351.968 56.11C352.52 55.522 352.796 54.766 352.796 53.842C352.796 52.918 352.52 52.162 351.968 51.574C351.416 50.986 350.69 50.692 349.79 50.692C348.89 50.692 348.164 50.986 347.612 51.574C347.06 52.162 346.784 52.918 346.784 53.842C346.784 54.766 347.06 55.522 347.612 56.11ZM355.896 58V49.684H357.21V56.02H357.246L361.998 49.684H363.312V58H361.998V51.664H361.962L357.228 58H355.896ZM372.889 49.684V58H371.593V50.908H367.417V55.858C367.417 56.602 367.237 57.16 366.877 57.532C366.529 57.892 366.049 58.072 365.437 58.072H364.645V56.884H365.275C365.839 56.884 366.121 56.536 366.121 55.84V49.684H372.889ZM379.121 49.414C380.429 49.414 381.503 49.834 382.343 50.674C383.195 51.502 383.621 52.558 383.621 53.842C383.621 55.126 383.195 56.188 382.343 57.028C381.503 57.856 380.429 58.27 379.121 58.27C377.825 58.27 376.751 57.856 375.899 57.028C375.047 56.188 374.621 55.126 374.621 53.842C374.621 52.558 375.047 51.502 375.899 50.674C376.751 49.834 377.825 49.414 379.121 49.414ZM381.371 51.556C380.783 50.98 380.033 50.692 379.121 50.692C378.209 50.692 377.459 50.98 376.871 51.556C376.283 52.132 375.989 52.894 375.989 53.842C375.989 54.79 376.283 55.552 376.871 56.128C377.459 56.704 378.209 56.992 379.121 56.992C380.033 56.992 380.783 56.704 381.371 56.128C381.959 55.552 382.253 54.79 382.253 53.842C382.253 52.894 381.959 52.132 381.371 51.556ZM395.883 58H394.137L390.447 53.734V58H389.169V53.734L385.479 58H383.733L387.729 53.5L384.111 49.684H385.875L389.169 53.338V49.684H390.447V53.356L393.741 49.684H395.505L391.905 53.5L395.883 58ZM400.12 49.414C401.428 49.414 402.418 49.822 403.09 50.638C403.774 51.442 404.116 52.492 404.116 53.788V54.022H397.204C397.216 54.934 397.498 55.66 398.05 56.2C398.602 56.74 399.316 57.01 400.192 57.01C400.672 57.01 401.11 56.92 401.506 56.74C401.914 56.548 402.214 56.356 402.406 56.164C402.61 55.96 402.82 55.714 403.036 55.426L403.972 56.272C403.024 57.604 401.77 58.27 400.21 58.27C398.902 58.27 397.852 57.868 397.06 57.064C396.28 56.248 395.89 55.18 395.89 53.86C395.89 52.528 396.274 51.454 397.042 50.638C397.822 49.822 398.848 49.414 400.12 49.414ZM400.048 50.62C399.304 50.62 398.674 50.83 398.158 51.25C397.654 51.67 397.354 52.264 397.258 53.032H402.712C402.652 52.264 402.388 51.67 401.92 51.25C401.464 50.83 400.84 50.62 400.048 50.62ZM411.991 49.684H413.287V58H411.991V54.202H407.149V58H405.853V49.684H407.149V52.996H411.991V49.684ZM415.591 58V49.684H416.905V56.02H416.941L421.693 49.684H423.007V58H421.693V51.664H421.657L416.923 58H415.591ZM427.526 49.684H431.576V58H430.28V54.742H428.552L426.05 58H424.466L427.058 54.724C426.326 54.64 425.744 54.382 425.312 53.95C424.88 53.518 424.664 52.948 424.664 52.24C424.664 51.46 424.922 50.842 425.438 50.386C425.966 49.918 426.662 49.684 427.526 49.684ZM427.67 53.572H430.28V50.872H427.67C427.142 50.872 426.734 50.992 426.446 51.232C426.17 51.46 426.032 51.79 426.032 52.222C426.032 53.122 426.578 53.572 427.67 53.572ZM439.234 58V49.684H440.548V56.02H440.584L445.336 49.684H446.65V58H445.336V51.664H445.3L440.566 58H439.234ZM461.462 49.684V58H460.166V50.908H455.612V58H454.316V49.684H461.462ZM463.773 61.6V49.684H465.069V51.16H465.105C465.753 49.996 466.803 49.414 468.255 49.414C469.431 49.414 470.409 49.816 471.189 50.62C471.981 51.424 472.377 52.498 472.377 53.842C472.377 55.186 471.981 56.26 471.189 57.064C470.409 57.868 469.431 58.27 468.255 58.27C466.803 58.27 465.753 57.688 465.105 56.524H465.069V61.6H463.773ZM465.825 56.11C466.377 56.698 467.103 56.992 468.003 56.992C468.903 56.992 469.629 56.698 470.181 56.11C470.733 55.522 471.009 54.766 471.009 53.842C471.009 52.918 470.733 52.162 470.181 51.574C469.629 50.986 468.903 50.692 468.003 50.692C467.103 50.692 466.377 50.986 465.825 51.574C465.273 52.162 464.997 52.918 464.997 53.842C464.997 54.766 465.273 55.522 465.825 56.11ZM478.033 49.414C479.341 49.414 480.415 49.834 481.255 50.674C482.107 51.502 482.533 52.558 482.533 53.842C482.533 55.126 482.107 56.188 481.255 57.028C480.415 57.856 479.341 58.27 478.033 58.27C476.737 58.27 475.663 57.856 474.811 57.028C473.959 56.188 473.533 55.126 473.533 53.842C473.533 52.558 473.959 51.502 474.811 50.674C475.663 49.834 476.737 49.414 478.033 49.414ZM480.283 51.556C479.695 50.98 478.945 50.692 478.033 50.692C477.121 50.692 476.371 50.98 475.783 51.556C475.195 52.132 474.901 52.894 474.901 53.842C474.901 54.79 475.195 55.552 475.783 56.128C476.371 56.704 477.121 56.992 478.033 56.992C478.945 56.992 479.695 56.704 480.283 56.128C480.871 55.552 481.165 54.79 481.165 53.842C481.165 52.894 480.871 52.132 480.283 51.556ZM486.566 58.27C485.234 58.27 484.082 58.006 483.11 57.478L483.668 56.344C484.628 56.824 485.612 57.064 486.62 57.064C488.168 57.064 488.942 56.584 488.942 55.624C488.942 55.108 488.756 54.742 488.384 54.526C488.024 54.31 487.46 54.202 486.692 54.202H485.126V53.05H486.62C487.988 53.05 488.672 52.648 488.672 51.844C488.672 51.028 487.994 50.62 486.638 50.62C485.762 50.62 484.826 50.812 483.83 51.196L483.38 50.026C484.472 49.618 485.576 49.414 486.692 49.414C487.748 49.414 488.57 49.6 489.158 49.972C489.746 50.344 490.04 50.878 490.04 51.574C490.04 52.114 489.866 52.558 489.518 52.906C489.17 53.242 488.684 53.452 488.06 53.536V53.572C488.768 53.632 489.308 53.848 489.68 54.22C490.064 54.58 490.256 55.084 490.256 55.732C490.256 56.536 489.95 57.16 489.338 57.604C488.738 58.048 487.814 58.27 486.566 58.27ZM492.004 61.6V49.684H493.3V51.16H493.336C493.984 49.996 495.034 49.414 496.486 49.414C497.662 49.414 498.64 49.816 499.42 50.62C500.212 51.424 500.608 52.498 500.608 53.842C500.608 55.186 500.212 56.26 499.42 57.064C498.64 57.868 497.662 58.27 496.486 58.27C495.034 58.27 493.984 57.688 493.336 56.524H493.3V61.6H492.004ZM494.056 56.11C494.608 56.698 495.334 56.992 496.234 56.992C497.134 56.992 497.86 56.698 498.412 56.11C498.964 55.522 499.24 54.766 499.24 53.842C499.24 52.918 498.964 52.162 498.412 51.574C497.86 50.986 497.134 50.692 496.234 50.692C495.334 50.692 494.608 50.986 494.056 51.574C493.504 52.162 493.228 52.918 493.228 53.842C493.228 54.766 493.504 55.522 494.056 56.11ZM505.886 58.27C504.71 58.27 503.726 57.868 502.934 57.064C502.154 56.26 501.764 55.186 501.764 53.842C501.764 52.498 502.154 51.424 502.934 50.62C503.726 49.816 504.71 49.414 505.886 49.414C507.338 49.414 508.388 49.996 509.036 51.16H509.072V49.684H510.368V58H509.072V56.524H509.036C508.388 57.688 507.338 58.27 505.886 58.27ZM503.96 56.11C504.512 56.698 505.238 56.992 506.138 56.992C507.038 56.992 507.764 56.698 508.316 56.11C508.868 55.522 509.144 54.766 509.144 53.842C509.144 52.918 508.868 52.162 508.316 51.574C507.764 50.986 507.038 50.692 506.138 50.692C505.238 50.692 504.512 50.986 503.96 51.574C503.408 52.162 503.132 52.918 503.132 53.842C503.132 54.766 503.408 55.522 503.96 56.11ZM517.05 49.684H518.346V58H517.05V54.652H514.152C512.58 54.652 511.794 53.932 511.794 52.492V49.684H513.09V52.366C513.09 53.11 513.474 53.482 514.242 53.482H517.05V49.684ZM526.794 49.684H528.09V58H526.794V54.202H521.952V58H520.656V49.684H521.952V52.996H526.794V49.684ZM534.354 52.762C535.206 52.762 535.89 52.996 536.406 53.464C536.922 53.932 537.18 54.568 537.18 55.372C537.18 56.152 536.916 56.788 536.388 57.28C535.872 57.76 535.188 58 534.336 58H530.394V49.684H531.69V52.762H534.354ZM538.026 49.684H539.322V58H538.026V49.684ZM534.21 56.83C535.278 56.83 535.812 56.35 535.812 55.39C535.812 54.418 535.278 53.932 534.21 53.932H531.69V56.83H534.21ZM545.281 49.414C546.589 49.414 547.579 49.822 548.251 50.638C548.935 51.442 549.277 52.492 549.277 53.788V54.022H542.365C542.377 54.934 542.659 55.66 543.211 56.2C543.763 56.74 544.477 57.01 545.353 57.01C545.833 57.01 546.271 56.92 546.667 56.74C547.075 56.548 547.375 56.356 547.567 56.164C547.771 55.96 547.981 55.714 548.197 55.426L549.133 56.272C548.185 57.604 546.931 58.27 545.371 58.27C544.063 58.27 543.013 57.868 542.221 57.064C541.441 56.248 541.051 55.18 541.051 53.86C541.051 52.528 541.435 51.454 542.203 50.638C542.983 49.822 544.009 49.414 545.281 49.414ZM545.209 50.62C544.465 50.62 543.835 50.83 543.319 51.25C542.815 51.67 542.515 52.264 542.419 53.032H547.873C547.813 52.264 547.549 51.67 547.081 51.25C546.625 50.83 546.001 50.62 545.209 50.62ZM563.251 56.776H564.169V60.34H562.999V58H556.375V49.684H557.671V56.776H561.955V49.684H563.251V56.776ZM568.853 49.414C570.161 49.414 571.151 49.822 571.823 50.638C572.507 51.442 572.849 52.492 572.849 53.788V54.022H565.937C565.949 54.934 566.231 55.66 566.783 56.2C567.335 56.74 568.049 57.01 568.925 57.01C569.405 57.01 569.843 56.92 570.239 56.74C570.647 56.548 570.947 56.356 571.139 56.164C571.343 55.96 571.553 55.714 571.769 55.426L572.705 56.272C571.757 57.604 570.503 58.27 568.943 58.27C567.635 58.27 566.585 57.868 565.793 57.064C565.013 56.248 564.623 55.18 564.623 53.86C564.623 52.528 565.007 51.454 565.775 50.638C566.555 49.822 567.581 49.414 568.853 49.414ZM568.781 50.62C568.037 50.62 567.407 50.83 566.891 51.25C566.387 51.67 566.087 52.264 565.991 53.032H571.445C571.385 52.264 571.121 51.67 570.653 51.25C570.197 50.83 569.573 50.62 568.781 50.62ZM580.724 49.684H582.02V58H580.724V54.202H575.882V58H574.586V49.684H575.882V52.996H580.724V49.684ZM588.284 52.762C589.136 52.762 589.82 52.996 590.336 53.464C590.852 53.932 591.11 54.568 591.11 55.372C591.11 56.152 590.846 56.788 590.318 57.28C589.802 57.76 589.118 58 588.266 58H584.324V49.684H585.62V52.762H588.284ZM591.956 49.684H593.252V58H591.956V49.684ZM588.14 56.83C589.208 56.83 589.742 56.35 589.742 55.39C589.742 54.418 589.208 53.932 588.14 53.932H585.62V56.83H588.14Z" fill="#72727E"/>
<rect y="2" width="60" height="60" rx="6" fill="#F7F8FD"/>
<path d="M36.3213 17.75C41.1067 17.75 45 21.7322 45 26.6284V37.3716C45 42.2678 41.1067 46.25 36.3213 46.25C35.7693 46.25 35.3213 45.7916 35.3213 45.2268C35.3213 44.662 35.7693 44.2037 36.3213 44.2037C40.004 44.2037 43 41.1396 43 37.3716V28.7975H38.0747C36.4573 28.7988 35.1387 30.1467 35.1373 31.8029C35.1387 33.459 36.4573 34.8069 38.0747 34.8083H40.1213C40.6733 34.8083 41.1213 35.2666 41.1213 35.8314C41.1213 36.3962 40.6733 36.8546 40.1213 36.8546H38.0747C35.3533 36.8532 33.1387 34.5873 33.1373 31.8029C33.1387 29.0185 35.3533 26.7525 38.0747 26.7511H43V26.6284C43 22.8604 40.004 19.7963 36.3213 19.7963H23.6773C20.7093 19.7963 18.2187 21.799 17.3507 24.5425H30.532C31.084 24.5425 31.532 25.0008 31.532 25.5656C31.532 26.1318 31.084 26.5888 30.532 26.5888H17.004L17 26.6284V37.3716C17 41.1396 19.9947 44.2037 23.6773 44.2037H30.0387C30.5907 44.2037 31.0387 44.662 31.0387 45.2268C31.0387 45.7916 30.5907 46.25 30.0387 46.25H23.6773C18.892 46.25 15 42.2678 15 37.3716V26.6284C15 21.7322 18.892 17.75 23.6773 17.75H36.3213ZM38.7461 30.6875C39.2981 30.6875 39.7461 31.1459 39.7461 31.7106C39.7461 32.2754 39.2981 32.7338 38.7461 32.7338H38.2915C37.7395 32.7338 37.2915 32.2754 37.2915 31.7106C37.2915 31.1459 37.7395 30.6875 38.2915 30.6875H38.7461Z" fill="#446DF6"/>
</svg>
