<svg width="250" height="240" viewBox="0 0 250 240" fill="none" xmlns="http://www.w3.org/2000/svg">
<g filter="url(#filter0_d_1788_103)">
<rect x="20" y="4" width="210" height="200" rx="10" fill="white"/>
</g>
<path d="M71.7244 143.24C69.9324 143.24 68.4871 142.701 67.3884 141.624C66.2898 140.547 65.7404 139.139 65.7404 137.4C65.7404 135.661 66.2898 134.253 67.3884 133.176C68.4871 132.099 69.9324 131.56 71.7244 131.56C73.1964 131.56 74.4978 131.981 75.6284 132.824L74.8764 133.896C73.9164 133.171 72.8551 132.808 71.6924 132.808C70.3378 132.808 69.2284 133.235 68.3644 134.088C67.5111 134.931 67.0844 136.035 67.0844 137.4C67.0844 138.765 67.5111 139.875 68.3644 140.728C69.2284 141.571 70.3378 141.992 71.6924 141.992C72.8551 141.992 73.9164 141.629 74.8764 140.904L75.6284 141.976C74.4978 142.819 73.1964 143.24 71.7244 143.24ZM80.1604 135.368C81.3231 135.368 82.2778 135.741 83.0244 136.488C83.7818 137.224 84.1604 138.163 84.1604 139.304C84.1604 140.445 83.7818 141.389 83.0244 142.136C82.2778 142.872 81.3231 143.24 80.1604 143.24C79.0084 143.24 78.0538 142.872 77.2964 142.136C76.5391 141.389 76.1604 140.445 76.1604 139.304C76.1604 138.163 76.5391 137.224 77.2964 136.488C78.0538 135.741 79.0084 135.368 80.1604 135.368ZM82.1604 137.272C81.6378 136.76 80.9711 136.504 80.1604 136.504C79.3498 136.504 78.6831 136.76 78.1604 137.272C77.6378 137.784 77.3764 138.461 77.3764 139.304C77.3764 140.147 77.6378 140.824 78.1604 141.336C78.6831 141.848 79.3498 142.104 80.1604 142.104C80.9711 142.104 81.6378 141.848 82.1604 141.336C82.6831 140.824 82.9444 140.147 82.9444 139.304C82.9444 138.461 82.6831 137.784 82.1604 137.272ZM87.7451 143.24C86.5611 143.24 85.5371 143.005 84.6731 142.536L85.1691 141.528C86.0224 141.955 86.8971 142.168 87.7931 142.168C89.1691 142.168 89.8571 141.741 89.8571 140.888C89.8571 140.429 89.6917 140.104 89.3611 139.912C89.0411 139.72 88.5397 139.624 87.8571 139.624H86.4651V138.6H87.7931C89.0091 138.6 89.6171 138.243 89.6171 137.528C89.6171 136.803 89.0144 136.44 87.8091 136.44C87.0304 136.44 86.1984 136.611 85.3131 136.952L84.9131 135.912C85.8837 135.549 86.8651 135.368 87.8571 135.368C88.7957 135.368 89.5264 135.533 90.0491 135.864C90.5717 136.195 90.8331 136.669 90.8331 137.288C90.8331 137.768 90.6784 138.163 90.3691 138.472C90.0597 138.771 89.6277 138.957 89.0731 139.032V139.064C89.7024 139.117 90.1824 139.309 90.5131 139.64C90.8544 139.96 91.0251 140.408 91.0251 140.984C91.0251 141.699 90.7531 142.253 90.2091 142.648C89.6757 143.043 88.8544 143.24 87.7451 143.24ZM98.6282 142.072H99.5402V145.08H98.5162V143.144H92.5962V145.08H91.5562V142.072H92.5002C92.9269 141.325 93.1402 140.429 93.1402 139.384V135.608H98.6282V142.072ZM94.2922 139.448C94.2922 140.451 94.1055 141.325 93.7322 142.072H97.4762V136.664H94.2922V139.448ZM103.606 143.24C102.56 143.24 101.686 142.883 100.982 142.168C100.288 141.453 99.9417 140.499 99.9417 139.304C99.9417 138.109 100.288 137.155 100.982 136.44C101.686 135.725 102.56 135.368 103.606 135.368C104.896 135.368 105.83 135.885 106.406 136.92H106.438V135.608H107.59V143H106.438V141.688H106.406C105.83 142.723 104.896 143.24 103.606 143.24ZM101.894 141.32C102.384 141.843 103.03 142.104 103.83 142.104C104.63 142.104 105.275 141.843 105.766 141.32C106.256 140.797 106.502 140.125 106.502 139.304C106.502 138.483 106.256 137.811 105.766 137.288C105.275 136.765 104.63 136.504 103.83 136.504C103.03 136.504 102.384 136.765 101.894 137.288C101.403 137.811 101.158 138.483 101.158 139.304C101.158 140.125 101.403 140.797 101.894 141.32ZM115.066 135.608H116.218V143H115.066V139.624H110.762V143H109.61V135.608H110.762V138.552H115.066V135.608ZM118.266 143V135.608H119.434V141.24H119.466L123.69 135.608H124.858V143H123.69V137.368H123.658L119.45 143H118.266ZM130.155 135.368C131.317 135.368 132.197 135.731 132.795 136.456C133.403 137.171 133.707 138.104 133.707 139.256V139.464H127.563C127.573 140.275 127.824 140.92 128.315 141.4C128.805 141.88 129.44 142.12 130.219 142.12C130.645 142.12 131.035 142.04 131.387 141.88C131.749 141.709 132.016 141.539 132.187 141.368C132.368 141.187 132.555 140.968 132.747 140.712L133.579 141.464C132.736 142.648 131.621 143.24 130.235 143.24C129.072 143.24 128.139 142.883 127.435 142.168C126.741 141.443 126.395 140.493 126.395 139.32C126.395 138.136 126.736 137.181 127.419 136.456C128.112 135.731 129.024 135.368 130.155 135.368ZM130.091 136.44C129.429 136.44 128.869 136.627 128.411 137C127.963 137.373 127.696 137.901 127.611 138.584H132.459C132.405 137.901 132.171 137.373 131.755 137C131.349 136.627 130.795 136.44 130.091 136.44ZM143.504 135.368C144.667 135.368 145.622 135.741 146.368 136.488C147.126 137.224 147.504 138.163 147.504 139.304C147.504 140.445 147.126 141.389 146.368 142.136C145.622 142.872 144.667 143.24 143.504 143.24C142.352 143.24 141.398 142.872 140.64 142.136C139.883 141.389 139.504 140.445 139.504 139.304C139.504 138.163 139.883 137.224 140.64 136.488C141.398 135.741 142.352 135.368 143.504 135.368ZM145.504 137.272C144.982 136.76 144.315 136.504 143.504 136.504C142.694 136.504 142.027 136.76 141.504 137.272C140.982 137.784 140.72 138.461 140.72 139.304C140.72 140.147 140.982 140.824 141.504 141.336C142.027 141.848 142.694 142.104 143.504 142.104C144.315 142.104 144.982 141.848 145.504 141.336C146.027 140.824 146.288 140.147 146.288 139.304C146.288 138.461 146.027 137.784 145.504 137.272ZM154.357 135.608V136.664H151.509V143H150.357V136.664H147.525V135.608H154.357ZM159.374 135.608H160.526V143H159.374V140.024H156.798C155.4 140.024 154.702 139.384 154.702 138.104V135.608H155.854V137.992C155.854 138.653 156.195 138.984 156.878 138.984H159.374V135.608ZM165.827 135.368C166.989 135.368 167.869 135.731 168.467 136.456C169.075 137.171 169.379 138.104 169.379 139.256V139.464H163.235C163.245 140.275 163.496 140.92 163.987 141.4C164.477 141.88 165.112 142.12 165.891 142.12C166.317 142.12 166.707 142.04 167.059 141.88C167.421 141.709 167.688 141.539 167.859 141.368C168.04 141.187 168.227 140.968 168.419 140.712L169.251 141.464C168.408 142.648 167.293 143.24 165.907 143.24C164.744 143.24 163.811 142.883 163.107 142.168C162.413 141.443 162.067 140.493 162.067 139.32C162.067 138.136 162.408 137.181 163.091 136.456C163.784 135.731 164.696 135.368 165.827 135.368ZM165.763 136.44C165.101 136.44 164.541 136.627 164.083 137C163.635 137.373 163.368 137.901 163.283 138.584H168.131C168.077 137.901 167.843 137.373 167.427 137C167.021 136.627 166.467 136.44 165.763 136.44ZM176.232 135.608V136.664H173.384V143H172.232V136.664H169.4V135.608H176.232ZM179.871 143.24C178.826 143.24 177.951 142.883 177.247 142.168C176.554 141.453 176.207 140.499 176.207 139.304C176.207 138.109 176.554 137.155 177.247 136.44C177.951 135.725 178.826 135.368 179.871 135.368C181.162 135.368 182.095 135.885 182.671 136.92H182.703V135.608H183.855V143H182.703V141.688H182.671C182.095 142.723 181.162 143.24 179.871 143.24ZM178.159 141.32C178.65 141.843 179.295 142.104 180.095 142.104C180.895 142.104 181.541 141.843 182.031 141.32C182.522 140.797 182.767 140.125 182.767 139.304C182.767 138.483 182.522 137.811 182.031 137.288C181.541 136.765 180.895 136.504 180.095 136.504C179.295 136.504 178.65 136.765 178.159 137.288C177.669 137.811 177.423 138.483 177.423 139.304C177.423 140.125 177.669 140.797 178.159 141.32ZM66.7847 157.608H67.9367V165H66.7847V161.624H62.4807V165H61.3287V157.608H62.4807V160.552H66.7847V157.608ZM73.2329 157.368C74.3956 157.368 75.2756 157.731 75.8729 158.456C76.4809 159.171 76.7849 160.104 76.7849 161.256V161.464H70.6409C70.6516 162.275 70.9023 162.92 71.3929 163.4C71.8836 163.88 72.5183 164.12 73.2969 164.12C73.7236 164.12 74.1129 164.04 74.4649 163.88C74.8276 163.709 75.0943 163.539 75.2649 163.368C75.4463 163.187 75.6329 162.968 75.8249 162.712L76.6569 163.464C75.8143 164.648 74.6996 165.24 73.3129 165.24C72.1503 165.24 71.2169 164.883 70.5129 164.168C69.8196 163.443 69.4729 162.493 69.4729 161.32C69.4729 160.136 69.8143 159.181 70.4969 158.456C71.1903 157.731 72.1023 157.368 73.2329 157.368ZM73.1689 158.44C72.5076 158.44 71.9476 158.627 71.4889 159C71.0409 159.373 70.7743 159.901 70.6889 160.584H75.5369C75.4836 159.901 75.2489 159.373 74.8329 159C74.4276 158.627 73.8729 158.44 73.1689 158.44ZM84.0501 164.072H84.9621V167.08H83.9381V165.144H78.0181V167.08H76.9781V164.072H77.9221C78.3487 163.325 78.5621 162.429 78.5621 161.384V157.608H84.0501V164.072ZM79.7141 161.448C79.7141 162.451 79.5274 163.325 79.1541 164.072H82.8981V158.664H79.7141V161.448ZM89.1236 157.368C90.2862 157.368 91.1662 157.731 91.7636 158.456C92.3716 159.171 92.6756 160.104 92.6756 161.256V161.464H86.5316C86.5422 162.275 86.7929 162.92 87.2836 163.4C87.7742 163.88 88.4089 164.12 89.1876 164.12C89.6142 164.12 90.0036 164.04 90.3556 163.88C90.7182 163.709 90.9849 163.539 91.1556 163.368C91.3369 163.187 91.5236 162.968 91.7156 162.712L92.5476 163.464C91.7049 164.648 90.5902 165.24 89.2036 165.24C88.0409 165.24 87.1076 164.883 86.4036 164.168C85.7102 163.443 85.3636 162.493 85.3636 161.32C85.3636 160.136 85.7049 159.181 86.3876 158.456C87.0809 157.731 87.9929 157.368 89.1236 157.368ZM89.0596 158.44C88.3982 158.44 87.8382 158.627 87.3796 159C86.9316 159.373 86.6649 159.901 86.5796 160.584H91.4276C91.3742 159.901 91.1396 159.373 90.7236 159C90.3182 158.627 89.7636 158.44 89.0596 158.44ZM100.574 157.608V165H99.4219V158.696H95.7099V163.096C95.7099 163.757 95.5499 164.253 95.2299 164.584C94.9206 164.904 94.4939 165.064 93.9499 165.064H93.2459V164.008H93.8059C94.3073 164.008 94.5579 163.699 94.5579 163.08V157.608H100.574ZM104.594 157.608H108.194V165H107.042V162.104H105.506L103.282 165H101.874L104.178 162.088C103.527 162.013 103.01 161.784 102.626 161.4C102.242 161.016 102.05 160.509 102.05 159.88C102.05 159.187 102.279 158.637 102.738 158.232C103.207 157.816 103.826 157.608 104.594 157.608ZM104.722 161.064H107.042V158.664H104.722C104.252 158.664 103.89 158.771 103.634 158.984C103.388 159.187 103.266 159.48 103.266 159.864C103.266 160.664 103.751 161.064 104.722 161.064ZM117.115 152.568L118.027 153.08L110.619 166.488L109.691 165.992L117.115 152.568ZM118.78 165L120.828 157.608H121.9L123.724 162.088H123.756L125.596 157.608H126.668L128.716 165H127.548L126.044 159.4H126.012L124.188 163.768H123.324L121.484 159.4H121.452L119.948 165H118.78ZM132.952 157.368C134.114 157.368 134.994 157.731 135.592 158.456C136.2 159.171 136.504 160.104 136.504 161.256V161.464H130.36C130.37 162.275 130.621 162.92 131.112 163.4C131.602 163.88 132.237 164.12 133.016 164.12C133.442 164.12 133.832 164.04 134.184 163.88C134.546 163.709 134.813 163.539 134.984 163.368C135.165 163.187 135.352 162.968 135.544 162.712L136.376 163.464C135.533 164.648 134.418 165.24 133.032 165.24C131.869 165.24 130.936 164.883 130.232 164.168C129.538 163.443 129.192 162.493 129.192 161.32C129.192 160.136 129.533 159.181 130.216 158.456C130.909 157.731 131.821 157.368 132.952 157.368ZM132.888 158.44C132.226 158.44 131.666 158.627 131.208 159C130.76 159.373 130.493 159.901 130.408 160.584H135.256C135.202 159.901 134.968 159.373 134.552 159C134.146 158.627 133.592 158.44 132.888 158.44ZM141.426 165.24C140.242 165.24 139.277 164.877 138.53 164.152C137.784 163.427 137.41 162.477 137.41 161.304C137.41 160.131 137.784 159.181 138.53 158.456C139.277 157.731 140.242 157.368 141.426 157.368C142.312 157.368 143.154 157.613 143.954 158.104L143.394 159.096C142.712 158.691 142.045 158.488 141.394 158.488C140.573 158.488 139.906 158.76 139.394 159.304C138.882 159.837 138.626 160.504 138.626 161.304C138.626 162.104 138.882 162.776 139.394 163.32C139.906 163.853 140.573 164.12 141.394 164.12C142.045 164.12 142.712 163.917 143.394 163.512L143.954 164.504C143.154 164.995 142.312 165.24 141.426 165.24ZM147.234 157.608H150.834V165H149.682V162.104H148.146L145.922 165H144.514L146.818 162.088C146.168 162.013 145.65 161.784 145.266 161.4C144.882 161.016 144.69 160.509 144.69 159.88C144.69 159.187 144.92 158.637 145.378 158.232C145.848 157.816 146.466 157.608 147.234 157.608ZM147.362 161.064H149.682V158.664H147.362C146.893 158.664 146.53 158.771 146.274 158.984C146.029 159.187 145.906 159.48 145.906 159.864C145.906 160.664 146.392 161.064 147.362 161.064ZM158.988 163.912H159.804V167.08H158.764V165H152.876V157.608H154.028V163.912H157.836V157.608H158.988V163.912ZM167.974 152.568L168.886 153.08L161.478 166.488L160.55 165.992L167.974 152.568ZM173.268 157.608V158.696H169.684V165H168.532V157.608H173.268ZM177.254 157.368C178.417 157.368 179.372 157.741 180.118 158.488C180.876 159.224 181.254 160.163 181.254 161.304C181.254 162.445 180.876 163.389 180.118 164.136C179.372 164.872 178.417 165.24 177.254 165.24C176.102 165.24 175.148 164.872 174.39 164.136C173.633 163.389 173.254 162.445 173.254 161.304C173.254 160.163 173.633 159.224 174.39 158.488C175.148 157.741 176.102 157.368 177.254 157.368ZM179.254 159.272C178.732 158.76 178.065 158.504 177.254 158.504C176.444 158.504 175.777 158.76 175.254 159.272C174.732 159.784 174.47 160.461 174.47 161.304C174.47 162.147 174.732 162.824 175.254 163.336C175.777 163.848 176.444 164.104 177.254 164.104C178.065 164.104 178.732 163.848 179.254 163.336C179.777 162.824 180.038 162.147 180.038 161.304C180.038 160.461 179.777 159.784 179.254 159.272ZM188.519 164.072H189.431V167.08H188.407V165.144H182.487V167.08H181.447V164.072H182.391C182.817 163.325 183.031 162.429 183.031 161.384V157.608H188.519V164.072ZM184.183 161.448C184.183 162.451 183.996 163.325 183.623 164.072H187.367V158.664H184.183V161.448Z" fill="#141B41"/>
<rect x="95" y="43" width="60" height="60" rx="6" fill="#F7F8FD"/>
<path d="M130.687 58.0014C131.255 58.0369 131.693 58.5238 131.678 59.1026V60.655C136.191 61.0928 138.5 63.5871 138.5 68.0717V80.4771C138.5 85.4658 135.657 88 130.061 88H119.939C114.343 88 111.5 85.4658 111.5 80.4771V68.0717C111.5 65.0864 112.517 62.9503 114.604 61.7031L114.751 61.6197C115.053 61.4785 115.408 61.4914 115.703 61.6626C116.047 61.8624 116.25 62.2431 116.228 62.6455C116.205 63.0478 115.96 63.4023 115.596 63.5606C114.213 64.3832 113.561 65.8161 113.561 68.0717V68.4697H132.591C133.16 68.4697 133.622 68.939 133.622 69.5179C133.622 70.0968 133.16 70.566 132.591 70.566H113.561V80.4771C113.561 84.285 115.413 85.8639 119.939 85.8904H130.061C134.522 85.8904 136.426 84.2717 136.426 80.4639V68.0584C136.426 64.7415 134.978 63.136 131.678 62.7513V63.7596C131.602 64.2971 131.14 64.6895 130.606 64.669C130.073 64.6485 129.64 64.2218 129.604 63.68V59.0097L129.623 58.8438C129.666 58.6264 129.775 58.4267 129.938 58.2751C130.142 58.0856 130.411 57.987 130.687 58.0014ZM131.281 79.2955L131.447 79.3062C131.731 79.3419 131.998 79.4725 132.205 79.6802C132.452 79.9294 132.591 80.2689 132.591 80.6231C132.591 81.3558 132.007 81.9499 131.287 81.9499C130.567 81.9499 129.983 81.3558 129.983 80.6231C129.983 79.8903 130.567 79.2963 131.287 79.2963L131.281 79.2955ZM125.026 79.2963L125.19 79.3066C125.833 79.3885 126.33 79.9467 126.33 80.6231C126.33 81.3558 125.746 81.9499 125.026 81.9499C124.306 81.9499 123.722 81.3558 123.722 80.6231C123.722 79.8903 124.306 79.2963 125.026 79.2963ZM118.772 79.2955L118.938 79.3062C119.223 79.3419 119.49 79.4725 119.696 79.6802C119.943 79.9294 120.083 80.2689 120.083 80.6231C120.083 81.3558 119.499 81.9499 118.778 81.9499C118.058 81.9499 117.474 81.3558 117.474 80.6231C117.474 79.8903 118.058 79.2963 118.778 79.2963L118.772 79.2955ZM131.281 73.9225L131.447 73.9327C131.731 73.9684 131.998 74.099 132.205 74.3067C132.452 74.5559 132.591 74.8954 132.591 75.2496C132.591 75.9824 132.007 76.5764 131.287 76.5764C130.567 76.5764 129.983 75.9824 129.983 75.2496C129.983 74.5168 130.567 73.9228 131.287 73.9228L131.281 73.9225ZM125.026 73.9228L125.19 73.9331C125.833 74.015 126.33 74.5732 126.33 75.2496C126.33 75.9824 125.746 76.5764 125.026 76.5764C124.306 76.5764 123.722 75.9824 123.722 75.2496C123.722 74.5168 124.306 73.9228 125.026 73.9228ZM118.772 73.9225L118.938 73.9327C119.223 73.9684 119.49 74.099 119.696 74.3067C119.943 74.5559 120.083 74.8954 120.083 75.2496C120.083 75.9824 119.499 76.5764 118.778 76.5764C118.058 76.5764 117.474 75.9824 117.474 75.2496C117.474 74.5168 118.058 73.9228 118.778 73.9228L118.772 73.9225ZM119.359 58.1597C119.89 58.1597 120.336 58.5656 120.396 59.1026V60.5488H126.291C126.86 60.5488 127.322 61.0181 127.322 61.597C127.322 62.1759 126.86 62.6451 126.291 62.6451H120.37V63.6933C120.37 63.9736 120.259 64.2422 120.063 64.4392C119.867 64.6361 119.602 64.745 119.326 64.7415L119.175 64.7264C118.684 64.6401 118.315 64.2017 118.322 63.68V59.1026L118.351 58.9457C118.471 58.4885 118.881 58.1597 119.359 58.1597Z" fill="#446DF6"/>
<defs>
<filter id="filter0_d_1788_103" x="0" y="0" width="250" height="240" filterUnits="userSpaceOnUse" color-interpolation-filters="sRGB">
<feFlood flood-opacity="0" result="BackgroundImageFix"/>
<feColorMatrix in="SourceAlpha" type="matrix" values="0 0 0 0 0 0 0 0 0 0 0 0 0 0 0 0 0 0 127 0" result="hardAlpha"/>
<feOffset dy="16"/>
<feGaussianBlur stdDeviation="10"/>
<feComposite in2="hardAlpha" operator="out"/>
<feColorMatrix type="matrix" values="0 0 0 0 0.0784314 0 0 0 0 0.105882 0 0 0 0 0.254902 0 0 0 0.03 0"/>
<feBlend mode="normal" in2="BackgroundImageFix" result="effect1_dropShadow_1788_103"/>
<feBlend mode="normal" in="SourceGraphic" in2="effect1_dropShadow_1788_103" result="shape"/>
</filter>
</defs>
</svg>
