<svg width="250" height="240" viewBox="0 0 250 240" fill="none" xmlns="http://www.w3.org/2000/svg">
<g filter="url(#filter0_d_1788_87)">
<rect x="20" y="4" width="210" height="200" rx="10" fill="white"/>
</g>
<path d="M75.2254 131.8V143H73.9934V132.968H67.6894V143H66.4574V131.8H75.2254ZM77.4381 146.2V135.608H78.5901V136.92H78.6221C79.1981 135.885 80.1314 135.368 81.4221 135.368C82.4674 135.368 83.3367 135.725 84.0301 136.44C84.7341 137.155 85.0861 138.109 85.0861 139.304C85.0861 140.499 84.7341 141.453 84.0301 142.168C83.3367 142.883 82.4674 143.24 81.4221 143.24C80.1314 143.24 79.1981 142.723 78.6221 141.688H78.5901V146.2H77.4381ZM79.2621 141.32C79.7527 141.843 80.3981 142.104 81.1981 142.104C81.9981 142.104 82.6434 141.843 83.1341 141.32C83.6247 140.797 83.8701 140.125 83.8701 139.304C83.8701 138.483 83.6247 137.811 83.1341 137.288C82.6434 136.765 81.9981 136.504 81.1981 136.504C80.3981 136.504 79.7527 136.765 79.2621 137.288C78.7714 137.811 78.5261 138.483 78.5261 139.304C78.5261 140.125 78.7714 140.797 79.2621 141.32ZM90.1136 135.368C91.2762 135.368 92.2309 135.741 92.9776 136.488C93.7349 137.224 94.1136 138.163 94.1136 139.304C94.1136 140.445 93.7349 141.389 92.9776 142.136C92.2309 142.872 91.2762 143.24 90.1136 143.24C88.9616 143.24 88.0069 142.872 87.2496 142.136C86.4922 141.389 86.1136 140.445 86.1136 139.304C86.1136 138.163 86.4922 137.224 87.2496 136.488C88.0069 135.741 88.9616 135.368 90.1136 135.368ZM92.1136 137.272C91.5909 136.76 90.9242 136.504 90.1136 136.504C89.3029 136.504 88.6362 136.76 88.1136 137.272C87.5909 137.784 87.3296 138.461 87.3296 139.304C87.3296 140.147 87.5909 140.824 88.1136 141.336C88.6362 141.848 89.3029 142.104 90.1136 142.104C90.9242 142.104 91.5909 141.848 92.1136 141.336C92.6362 140.824 92.8976 140.147 92.8976 139.304C92.8976 138.461 92.6362 137.784 92.1136 137.272ZM99.0358 143.24C97.8518 143.24 96.8865 142.877 96.1398 142.152C95.3931 141.427 95.0198 140.477 95.0198 139.304C95.0198 138.131 95.3931 137.181 96.1398 136.456C96.8865 135.731 97.8518 135.368 99.0358 135.368C99.9211 135.368 100.764 135.613 101.564 136.104L101.004 137.096C100.321 136.691 99.6545 136.488 99.0038 136.488C98.1825 136.488 97.5158 136.76 97.0038 137.304C96.4918 137.837 96.2358 138.504 96.2358 139.304C96.2358 140.104 96.4918 140.776 97.0038 141.32C97.5158 141.853 98.1825 142.12 99.0038 142.12C99.6545 142.12 100.321 141.917 101.004 141.512L101.564 142.504C100.764 142.995 99.9211 143.24 99.0358 143.24ZM102.217 143L104.265 135.608H105.337L107.161 140.088H107.193L109.033 135.608H110.105L112.153 143H110.985L109.481 137.4H109.449L107.625 141.768H106.761L104.921 137.4H104.889L103.385 143H102.217ZM116.629 135.368C117.792 135.368 118.747 135.741 119.493 136.488C120.251 137.224 120.629 138.163 120.629 139.304C120.629 140.445 120.251 141.389 119.493 142.136C118.747 142.872 117.792 143.24 116.629 143.24C115.477 143.24 114.523 142.872 113.765 142.136C113.008 141.389 112.629 140.445 112.629 139.304C112.629 138.163 113.008 137.224 113.765 136.488C114.523 135.741 115.477 135.368 116.629 135.368ZM118.629 137.272C118.107 136.76 117.44 136.504 116.629 136.504C115.819 136.504 115.152 136.76 114.629 137.272C114.107 137.784 113.845 138.461 113.845 139.304C113.845 140.147 114.107 140.824 114.629 141.336C115.152 141.848 115.819 142.104 116.629 142.104C117.44 142.104 118.107 141.848 118.629 141.336C119.152 140.824 119.413 140.147 119.413 139.304C119.413 138.461 119.152 137.784 118.629 137.272ZM127.482 135.608V136.664H124.634V143H123.482V136.664H120.65V135.608H127.482ZM128.579 146.2V135.608H129.731V136.92H129.763C130.339 135.885 131.272 135.368 132.563 135.368C133.608 135.368 134.477 135.725 135.171 136.44C135.875 137.155 136.227 138.109 136.227 139.304C136.227 140.499 135.875 141.453 135.171 142.168C134.477 142.883 133.608 143.24 132.563 143.24C131.272 143.24 130.339 142.723 129.763 141.688H129.731V146.2H128.579ZM130.403 141.32C130.893 141.843 131.539 142.104 132.339 142.104C133.139 142.104 133.784 141.843 134.275 141.32C134.765 140.797 135.011 140.125 135.011 139.304C135.011 138.483 134.765 137.811 134.275 137.288C133.784 136.765 133.139 136.504 132.339 136.504C131.539 136.504 130.893 136.765 130.403 137.288C129.912 137.811 129.667 138.483 129.667 139.304C129.667 140.125 129.912 140.797 130.403 141.32ZM137.766 143V135.608H138.934V141.24H138.966L143.19 135.608H144.358V143H143.19V137.368H143.158L138.95 143H137.766ZM151.159 139.128C152.215 139.267 152.743 139.859 152.743 140.904C152.743 141.587 152.503 142.109 152.023 142.472C151.543 142.824 150.945 143 150.231 143H146.407V135.608H150.295C150.977 135.608 151.521 135.768 151.927 136.088C152.332 136.397 152.535 136.851 152.535 137.448C152.535 137.885 152.417 138.253 152.183 138.552C151.948 138.84 151.607 139.027 151.159 139.112V139.128ZM150.039 136.584H147.559V138.68H149.991C150.887 138.68 151.335 138.323 151.335 137.608C151.335 136.925 150.903 136.584 150.039 136.584ZM150.103 142.024C150.572 142.024 150.929 141.923 151.175 141.72C151.42 141.507 151.543 141.208 151.543 140.824C151.543 140.024 151.084 139.624 150.167 139.624H147.559V142.024H150.103ZM157.512 143.24C156.467 143.24 155.592 142.883 154.888 142.168C154.195 141.453 153.848 140.499 153.848 139.304C153.848 138.109 154.195 137.155 154.888 136.44C155.592 135.725 156.467 135.368 157.512 135.368C158.803 135.368 159.736 135.885 160.312 136.92H160.344V135.608H161.496V143H160.344V141.688H160.312C159.736 142.723 158.803 143.24 157.512 143.24ZM155.8 141.32C156.291 141.843 156.936 142.104 157.736 142.104C158.536 142.104 159.181 141.843 159.672 141.32C160.163 140.797 160.408 140.125 160.408 139.304C160.408 138.483 160.163 137.811 159.672 137.288C159.181 136.765 158.536 136.504 157.736 136.504C156.936 136.504 156.291 136.765 155.8 137.288C155.309 137.811 155.064 138.483 155.064 139.304C155.064 140.125 155.309 140.797 155.8 141.32ZM168.988 132.76C168.988 133.453 168.786 134.003 168.38 134.408C167.986 134.803 167.463 135 166.812 135C166.162 135 165.634 134.803 165.228 134.408C164.834 134.003 164.636 133.453 164.636 132.76H165.5C165.522 133.197 165.644 133.539 165.868 133.784C166.103 134.029 166.418 134.152 166.812 134.152C167.207 134.152 167.516 134.029 167.74 133.784C167.975 133.539 168.103 133.197 168.124 132.76H168.988ZM163.516 143V135.608H164.684V141.24H164.716L168.94 135.608H170.108V143H168.94V137.368H168.908L164.7 143H163.516ZM177.92 135.608V136.664H175.072V143H173.92V136.664H171.088V135.608H177.92ZM181.655 135.368C182.817 135.368 183.697 135.731 184.295 136.456C184.903 137.171 185.207 138.104 185.207 139.256V139.464H179.063C179.073 140.275 179.324 140.92 179.815 141.4C180.305 141.88 180.94 142.12 181.719 142.12C182.145 142.12 182.535 142.04 182.887 141.88C183.249 141.709 183.516 141.539 183.687 141.368C183.868 141.187 184.055 140.968 184.247 140.712L185.079 141.464C184.236 142.648 183.121 143.24 181.735 143.24C180.572 143.24 179.639 142.883 178.935 142.168C178.241 141.443 177.895 140.493 177.895 139.32C177.895 138.136 178.236 137.181 178.919 136.456C179.612 135.731 180.524 135.368 181.655 135.368ZM181.591 136.44C180.929 136.44 180.369 136.627 179.911 137C179.463 137.373 179.196 137.901 179.111 138.584H183.959C183.905 137.901 183.671 137.373 183.255 137C182.849 136.627 182.295 136.44 181.591 136.44ZM69.2506 165V157.608H70.4186V163.24H70.4506L74.6746 157.608H75.8426V165H74.6746V159.368H74.6426L70.4346 165H69.2506ZM81.3952 165.24C80.2112 165.24 79.2459 164.877 78.4992 164.152C77.7525 163.427 77.3792 162.477 77.3792 161.304C77.3792 160.131 77.7525 159.181 78.4992 158.456C79.2459 157.731 80.2112 157.368 81.3952 157.368C82.2805 157.368 83.1232 157.613 83.9232 158.104L83.3632 159.096C82.6805 158.691 82.0139 158.488 81.3632 158.488C80.5419 158.488 79.8752 158.76 79.3632 159.304C78.8512 159.837 78.5952 160.504 78.5952 161.304C78.5952 162.104 78.8512 162.776 79.3632 163.32C79.8752 163.853 80.5419 164.12 81.3632 164.12C82.0139 164.12 82.6805 163.917 83.3632 163.512L83.9232 164.504C83.1232 164.995 82.2805 165.24 81.3952 165.24ZM91.2167 157.608V158.664H88.3687V165H87.2167V158.664H84.3847V157.608H91.2167ZM95.1917 157.368C96.3544 157.368 97.309 157.741 98.0557 158.488C98.813 159.224 99.1917 160.163 99.1917 161.304C99.1917 162.445 98.813 163.389 98.0557 164.136C97.309 164.872 96.3544 165.24 95.1917 165.24C94.0397 165.24 93.085 164.872 92.3277 164.136C91.5704 163.389 91.1917 162.445 91.1917 161.304C91.1917 160.163 91.5704 159.224 92.3277 158.488C93.085 157.741 94.0397 157.368 95.1917 157.368ZM97.1917 159.272C96.669 158.76 96.0024 158.504 95.1917 158.504C94.381 158.504 93.7144 158.76 93.1917 159.272C92.669 159.784 92.4077 160.461 92.4077 161.304C92.4077 162.147 92.669 162.824 93.1917 163.336C93.7144 163.848 94.381 164.104 95.1917 164.104C96.0024 164.104 96.669 163.848 97.1917 163.336C97.7144 162.824 97.9757 162.147 97.9757 161.304C97.9757 160.461 97.7144 159.784 97.1917 159.272ZM100.735 168.2V157.608H101.887V158.92H101.919C102.495 157.885 103.428 157.368 104.719 157.368C105.764 157.368 106.634 157.725 107.327 158.44C108.031 159.155 108.383 160.109 108.383 161.304C108.383 162.499 108.031 163.453 107.327 164.168C106.634 164.883 105.764 165.24 104.719 165.24C103.428 165.24 102.495 164.723 101.919 163.688H101.887V168.2H100.735ZM102.559 163.32C103.05 163.843 103.695 164.104 104.495 164.104C105.295 164.104 105.94 163.843 106.431 163.32C106.922 162.797 107.167 162.125 107.167 161.304C107.167 160.483 106.922 159.811 106.431 159.288C105.94 158.765 105.295 158.504 104.495 158.504C103.695 158.504 103.05 158.765 102.559 159.288C102.068 159.811 101.823 160.483 101.823 161.304C101.823 162.125 102.068 162.797 102.559 163.32ZM109.922 165V157.608H111.09V163.24H111.122L115.346 157.608H116.514V165H115.346V159.368H115.314L111.106 165H109.922ZM124.867 157.368C126.03 157.368 126.984 157.741 127.731 158.488C128.488 159.224 128.867 160.163 128.867 161.304C128.867 162.445 128.488 163.389 127.731 164.136C126.984 164.872 126.03 165.24 124.867 165.24C123.8 165.24 122.899 164.92 122.163 164.28C121.438 163.64 121.016 162.813 120.899 161.8H119.715V165H118.563V157.608H119.715V160.808H120.899C121.016 159.795 121.438 158.968 122.163 158.328C122.899 157.688 123.8 157.368 124.867 157.368ZM122.867 163.336C123.39 163.848 124.056 164.104 124.867 164.104C125.678 164.104 126.344 163.848 126.867 163.336C127.39 162.824 127.651 162.147 127.651 161.304C127.651 160.461 127.39 159.784 126.867 159.272C126.344 158.76 125.678 158.504 124.867 158.504C124.056 158.504 123.39 158.76 122.867 159.272C122.344 159.784 122.083 160.461 122.083 161.304C122.083 162.147 122.344 162.824 122.867 163.336ZM137.604 165.24C136.42 165.24 135.396 165.005 134.532 164.536L135.028 163.528C135.882 163.955 136.756 164.168 137.652 164.168C139.028 164.168 139.716 163.741 139.716 162.888C139.716 162.429 139.551 162.104 139.22 161.912C138.9 161.72 138.399 161.624 137.716 161.624H136.324V160.6H137.652C138.868 160.6 139.476 160.243 139.476 159.528C139.476 158.803 138.874 158.44 137.668 158.44C136.89 158.44 136.058 158.611 135.172 158.952L134.772 157.912C135.743 157.549 136.724 157.368 137.716 157.368C138.655 157.368 139.386 157.533 139.908 157.864C140.431 158.195 140.692 158.669 140.692 159.288C140.692 159.768 140.538 160.163 140.228 160.472C139.919 160.771 139.487 160.957 138.932 161.032V161.064C139.562 161.117 140.042 161.309 140.372 161.64C140.714 161.96 140.884 162.408 140.884 162.984C140.884 163.699 140.612 164.253 140.068 164.648C139.535 165.043 138.714 165.24 137.604 165.24ZM145.59 165.24C144.545 165.24 143.67 164.883 142.966 164.168C142.273 163.453 141.926 162.499 141.926 161.304C141.926 160.109 142.273 159.155 142.966 158.44C143.67 157.725 144.545 157.368 145.59 157.368C146.881 157.368 147.814 157.885 148.39 158.92H148.422V157.608H149.574V165H148.422V163.688H148.39C147.814 164.723 146.881 165.24 145.59 165.24ZM143.878 163.32C144.369 163.843 145.014 164.104 145.814 164.104C146.614 164.104 147.259 163.843 147.75 163.32C148.241 162.797 148.486 162.125 148.486 161.304C148.486 160.483 148.241 159.811 147.75 159.288C147.259 158.765 146.614 158.504 145.814 158.504C145.014 158.504 144.369 158.765 143.878 159.288C143.387 159.811 143.142 160.483 143.142 161.304C143.142 162.125 143.387 162.797 143.878 163.32ZM157.722 165H156.138L152.746 161.272V165H151.594V157.608H152.746V160.824L155.786 157.608H157.37L153.962 160.984L157.722 165ZM161.371 165.24C160.326 165.24 159.451 164.883 158.747 164.168C158.054 163.453 157.707 162.499 157.707 161.304C157.707 160.109 158.054 159.155 158.747 158.44C159.451 157.725 160.326 157.368 161.371 157.368C162.662 157.368 163.595 157.885 164.171 158.92H164.203V157.608H165.355V165H164.203V163.688H164.171C163.595 164.723 162.662 165.24 161.371 165.24ZM159.659 163.32C160.15 163.843 160.795 164.104 161.595 164.104C162.395 164.104 163.041 163.843 163.531 163.32C164.022 162.797 164.267 162.125 164.267 161.304C164.267 160.483 164.022 159.811 163.531 159.288C163.041 158.765 162.395 158.504 161.595 158.504C160.795 158.504 160.15 158.765 159.659 159.288C159.169 159.811 158.923 160.483 158.923 161.304C158.923 162.125 159.169 162.797 159.659 163.32ZM169.808 165.24C168.624 165.24 167.6 165.005 166.736 164.536L167.232 163.528C168.085 163.955 168.96 164.168 169.856 164.168C171.232 164.168 171.92 163.741 171.92 162.888C171.92 162.429 171.754 162.104 171.424 161.912C171.104 161.72 170.602 161.624 169.92 161.624H168.528V160.6H169.856C171.072 160.6 171.68 160.243 171.68 159.528C171.68 158.803 171.077 158.44 169.872 158.44C169.093 158.44 168.261 158.611 167.376 158.952L166.976 157.912C167.946 157.549 168.928 157.368 169.92 157.368C170.858 157.368 171.589 157.533 172.112 157.864C172.634 158.195 172.896 158.669 172.896 159.288C172.896 159.768 172.741 160.163 172.432 160.472C172.122 160.771 171.69 160.957 171.136 161.032V161.064C171.765 161.117 172.245 161.309 172.576 161.64C172.917 161.96 173.088 162.408 173.088 162.984C173.088 163.699 172.816 164.253 172.272 164.648C171.738 165.043 170.917 165.24 169.808 165.24ZM177.793 165.24C176.748 165.24 175.873 164.883 175.169 164.168C174.476 163.453 174.129 162.499 174.129 161.304C174.129 160.109 174.476 159.155 175.169 158.44C175.873 157.725 176.748 157.368 177.793 157.368C179.084 157.368 180.017 157.885 180.593 158.92H180.625V157.608H181.777V165H180.625V163.688H180.593C180.017 164.723 179.084 165.24 177.793 165.24ZM176.081 163.32C176.572 163.843 177.217 164.104 178.017 164.104C178.817 164.104 179.463 163.843 179.953 163.32C180.444 162.797 180.689 162.125 180.689 161.304C180.689 160.483 180.444 159.811 179.953 159.288C179.463 158.765 178.817 158.504 178.017 158.504C177.217 158.504 176.572 158.765 176.081 159.288C175.591 159.811 175.345 160.483 175.345 161.304C175.345 162.125 175.591 162.797 176.081 163.32Z" fill="#141B41"/>
<rect x="95" y="43" width="60" height="60" rx="6" fill="#F7F8FD"/>
<path d="M130.78 58C135.6 58 138.487 60.9272 138.5 65.8146V80.1854C138.5 85.0728 135.626 88 130.793 88H126.509C125.959 87.9386 125.543 87.4678 125.543 86.9073C125.543 86.3468 125.959 85.876 126.509 85.8146H130.78C134.464 85.8146 136.319 83.9205 136.319 80.1854V65.8146C136.319 62.0795 134.464 60.1854 130.78 60.1854H119.207C115.523 60.1854 113.655 62.0795 113.655 65.8146V80.1854C113.655 83.9205 115.523 85.8146 119.207 85.8146C119.756 85.876 120.172 86.3468 120.172 86.9073C120.172 87.4678 119.756 87.9386 119.207 88C114.387 88 111.5 85.0728 111.5 80.1854V65.8146C111.5 60.9139 114.387 58 119.207 58H130.78ZM130.388 78.2649C130.98 78.2649 131.459 78.7512 131.459 79.351C131.459 79.9508 130.98 80.4371 130.388 80.4371H119.573C118.981 80.4371 118.501 79.9508 118.501 79.351C118.501 78.7512 118.981 78.2649 119.573 78.2649H130.388ZM130.388 71.9073C130.802 71.8611 131.205 72.0587 131.426 72.4159C131.646 72.7731 131.646 73.2269 131.426 73.5841C131.205 73.9413 130.802 74.1389 130.388 74.0927H119.573C119.023 74.0313 118.607 73.5605 118.607 73C118.607 72.4395 119.023 71.9687 119.573 71.9073H130.388ZM123.7 65.5629C124.25 65.6243 124.666 66.0951 124.666 66.6556C124.666 67.2161 124.25 67.6869 123.7 67.7483H119.586C119.036 67.6869 118.62 67.2161 118.62 66.6556C118.62 66.0951 119.036 65.6243 119.586 65.5629H123.7Z" fill="#446DF6"/>
<defs>
<filter id="filter0_d_1788_87" x="0" y="0" width="250" height="240" filterUnits="userSpaceOnUse" color-interpolation-filters="sRGB">
<feFlood flood-opacity="0" result="BackgroundImageFix"/>
<feColorMatrix in="SourceAlpha" type="matrix" values="0 0 0 0 0 0 0 0 0 0 0 0 0 0 0 0 0 0 127 0" result="hardAlpha"/>
<feOffset dy="16"/>
<feGaussianBlur stdDeviation="10"/>
<feComposite in2="hardAlpha" operator="out"/>
<feColorMatrix type="matrix" values="0 0 0 0 0.0784314 0 0 0 0 0.105882 0 0 0 0 0.254902 0 0 0 0.03 0"/>
<feBlend mode="normal" in2="BackgroundImageFix" result="effect1_dropShadow_1788_87"/>
<feBlend mode="normal" in="SourceGraphic" in2="effect1_dropShadow_1788_87" result="shape"/>
</filter>
</defs>
</svg>
