<svg width="250" height="240" viewBox="0 0 250 240" fill="none" xmlns="http://www.w3.org/2000/svg">
<g filter="url(#filter0_d_1788_95)">
<rect x="20" y="4" width="210" height="200" rx="10" fill="white"/>
</g>
<path d="M70.3185 133.208C71.4278 132.109 72.8198 131.56 74.4945 131.56C76.1692 131.56 77.5612 132.109 78.6705 133.208C79.7798 134.296 80.3345 135.693 80.3345 137.4C80.3345 139.107 79.7798 140.509 78.6705 141.608C77.5612 142.696 76.1692 143.24 74.4945 143.24C72.8198 143.24 71.4278 142.696 70.3185 141.608C69.2092 140.509 68.6545 139.107 68.6545 137.4C68.6545 135.693 69.2092 134.296 70.3185 133.208ZM77.7265 134.104C76.8838 133.24 75.8065 132.808 74.4945 132.808C73.1825 132.808 72.1052 133.24 71.2625 134.104C70.4198 134.968 69.9985 136.067 69.9985 137.4C69.9985 138.733 70.4198 139.832 71.2625 140.696C72.1052 141.56 73.1825 141.992 74.4945 141.992C75.8065 141.992 76.8838 141.565 77.7265 140.712C78.5692 139.848 78.9905 138.744 78.9905 137.4C78.9905 136.056 78.5692 134.957 77.7265 134.104ZM88.2856 142.136C87.5603 142.872 86.5843 143.24 85.3576 143.24C84.131 143.24 83.1443 142.845 82.3976 142.056C81.651 141.267 81.2776 140.04 81.2776 138.376C81.2776 137.341 81.4323 136.392 81.7416 135.528C82.0616 134.653 82.5896 134.003 83.3256 133.576C83.6136 133.416 83.9496 133.272 84.3336 133.144C84.7283 133.016 85.187 132.888 85.7096 132.76C86.243 132.632 86.5363 132.563 86.5896 132.552C87.1656 132.381 87.4696 132.109 87.5016 131.736H88.6376C88.6376 132.227 88.515 132.611 88.2696 132.888C88.035 133.155 87.6723 133.357 87.1816 133.496C87.0963 133.517 86.8083 133.581 86.3176 133.688C85.8376 133.795 85.3896 133.912 84.9736 134.04C84.5576 134.157 84.2163 134.285 83.9496 134.424C83.0003 134.925 82.4563 135.976 82.3176 137.576H82.3656C82.6323 136.904 83.059 136.387 83.6456 136.024C84.243 135.661 84.9256 135.48 85.6936 135.48C86.7923 135.48 87.683 135.832 88.3656 136.536C89.0483 137.229 89.3896 138.141 89.3896 139.272C89.3896 140.445 89.0216 141.4 88.2856 142.136ZM85.3896 142.104C86.1896 142.104 86.851 141.853 87.3736 141.352C87.907 140.851 88.1736 140.179 88.1736 139.336C88.1736 138.483 87.907 137.805 87.3736 137.304C86.8403 136.803 86.179 136.552 85.3896 136.552C84.6003 136.552 83.9336 136.803 83.3896 137.304C82.8563 137.805 82.5896 138.477 82.5896 139.32C82.5896 140.163 82.8563 140.84 83.3896 141.352C83.9336 141.853 84.6003 142.104 85.3896 142.104ZM90.9459 146.2V135.608H92.0979V136.92H92.1299C92.7059 135.885 93.6392 135.368 94.9299 135.368C95.9752 135.368 96.8445 135.725 97.5379 136.44C98.2419 137.155 98.5939 138.109 98.5939 139.304C98.5939 140.499 98.2419 141.453 97.5379 142.168C96.8445 142.883 95.9752 143.24 94.9299 143.24C93.6392 143.24 92.7059 142.723 92.1299 141.688H92.0979V146.2H90.9459ZM92.7699 141.32C93.2605 141.843 93.9059 142.104 94.7059 142.104C95.5059 142.104 96.1512 141.843 96.6419 141.32C97.1325 140.797 97.3779 140.125 97.3779 139.304C97.3779 138.483 97.1325 137.811 96.6419 137.288C96.1512 136.765 95.5059 136.504 94.7059 136.504C93.9059 136.504 93.2605 136.765 92.7699 137.288C92.2792 137.811 92.0339 138.483 92.0339 139.304C92.0339 140.125 92.2792 140.797 92.7699 141.32ZM103.285 143.24C102.24 143.24 101.365 142.883 100.661 142.168C99.968 141.453 99.6214 140.499 99.6214 139.304C99.6214 138.109 99.968 137.155 100.661 136.44C101.365 135.725 102.24 135.368 103.285 135.368C104.576 135.368 105.509 135.885 106.085 136.92H106.117V135.608H107.269V143H106.117V141.688H106.085C105.509 142.723 104.576 143.24 103.285 143.24ZM101.573 141.32C102.064 141.843 102.709 142.104 103.509 142.104C104.309 142.104 104.955 141.843 105.445 141.32C105.936 140.797 106.181 140.125 106.181 139.304C106.181 138.483 105.936 137.811 105.445 137.288C104.955 136.765 104.309 136.504 103.509 136.504C102.709 136.504 102.064 136.765 101.573 137.288C101.083 137.811 100.837 138.483 100.837 139.304C100.837 140.125 101.083 140.797 101.573 141.32ZM115.053 135.608V136.664H112.205V143H111.053V136.664H108.221V135.608H115.053ZM121.605 135.608H122.757V143H121.605V139.624H117.301V143H116.149V135.608H117.301V138.552H121.605V135.608ZM127.957 143.24C126.912 143.24 126.037 142.883 125.333 142.168C124.64 141.453 124.293 140.499 124.293 139.304C124.293 138.109 124.64 137.155 125.333 136.44C126.037 135.725 126.912 135.368 127.957 135.368C129.248 135.368 130.181 135.885 130.757 136.92H130.789V135.608H131.941V143H130.789V141.688H130.757C130.181 142.723 129.248 143.24 127.957 143.24ZM126.245 141.32C126.736 141.843 127.381 142.104 128.181 142.104C128.981 142.104 129.627 141.843 130.117 141.32C130.608 140.797 130.853 140.125 130.853 139.304C130.853 138.483 130.608 137.811 130.117 137.288C129.627 136.765 128.981 136.504 128.181 136.504C127.381 136.504 126.736 136.765 126.245 137.288C125.755 137.811 125.509 138.483 125.509 139.304C125.509 140.125 125.755 140.797 126.245 141.32ZM135.93 135.608H139.53V143H138.378V140.104H136.842L134.618 143H133.21L135.514 140.088C134.863 140.013 134.346 139.784 133.962 139.4C133.578 139.016 133.386 138.509 133.386 137.88C133.386 137.187 133.615 136.637 134.074 136.232C134.543 135.816 135.162 135.608 135.93 135.608ZM136.058 139.064H138.378V136.664H136.058C135.588 136.664 135.226 136.771 134.97 136.984C134.724 137.187 134.602 137.48 134.602 137.864C134.602 138.664 135.087 139.064 136.058 139.064ZM149.841 143.24C148.657 143.24 147.691 142.877 146.945 142.152C146.198 141.427 145.825 140.477 145.825 139.304C145.825 138.131 146.198 137.181 146.945 136.456C147.691 135.731 148.657 135.368 149.841 135.368C150.726 135.368 151.569 135.613 152.369 136.104L151.809 137.096C151.126 136.691 150.459 136.488 149.809 136.488C148.987 136.488 148.321 136.76 147.809 137.304C147.297 137.837 147.041 138.504 147.041 139.304C147.041 140.104 147.297 140.776 147.809 141.32C148.321 141.853 148.987 142.12 149.809 142.12C150.459 142.12 151.126 141.917 151.809 141.512L152.369 142.504C151.569 142.995 150.726 143.24 149.841 143.24ZM158.526 139.128C159.582 139.267 160.11 139.859 160.11 140.904C160.11 141.587 159.87 142.109 159.39 142.472C158.91 142.824 158.313 143 157.598 143H153.774V135.608H157.662C158.345 135.608 158.889 135.768 159.294 136.088C159.699 136.397 159.902 136.851 159.902 137.448C159.902 137.885 159.785 138.253 159.55 138.552C159.315 138.84 158.974 139.027 158.526 139.112V139.128ZM157.406 136.584H154.926V138.68H157.358C158.254 138.68 158.702 138.323 158.702 137.608C158.702 136.925 158.27 136.584 157.406 136.584ZM157.47 142.024C157.939 142.024 158.297 141.923 158.542 141.72C158.787 141.507 158.91 141.208 158.91 140.824C158.91 140.024 158.451 139.624 157.534 139.624H154.926V142.024H157.47ZM163.695 135.608H167.295V143H166.143V140.104H164.607L162.383 143H160.975L163.279 140.088C162.628 140.013 162.111 139.784 161.727 139.4C161.343 139.016 161.151 138.509 161.151 137.88C161.151 137.187 161.38 136.637 161.839 136.232C162.308 135.816 162.927 135.608 163.695 135.608ZM163.823 139.064H166.143V136.664H163.823C163.354 136.664 162.991 136.771 162.735 136.984C162.49 137.187 162.367 137.48 162.367 137.864C162.367 138.664 162.852 139.064 163.823 139.064ZM171.769 143.24C170.585 143.24 169.561 143.005 168.697 142.536L169.193 141.528C170.046 141.955 170.921 142.168 171.817 142.168C173.193 142.168 173.881 141.741 173.881 140.888C173.881 140.429 173.715 140.104 173.385 139.912C173.065 139.72 172.563 139.624 171.881 139.624H170.489V138.6H171.817C173.033 138.6 173.641 138.243 173.641 137.528C173.641 136.803 173.038 136.44 171.833 136.44C171.054 136.44 170.222 136.611 169.337 136.952L168.937 135.912C169.907 135.549 170.889 135.368 171.881 135.368C172.819 135.368 173.55 135.533 174.073 135.864C174.595 136.195 174.857 136.669 174.857 137.288C174.857 137.768 174.702 138.163 174.393 138.472C174.083 138.771 173.651 138.957 173.097 139.032V139.064C173.726 139.117 174.206 139.309 174.537 139.64C174.878 139.96 175.049 140.408 175.049 140.984C175.049 141.699 174.777 142.253 174.233 142.648C173.699 143.043 172.878 143.24 171.769 143.24ZM180.122 138.344C180.879 138.344 181.487 138.552 181.946 138.968C182.405 139.384 182.634 139.949 182.634 140.664C182.634 141.357 182.399 141.923 181.93 142.36C181.471 142.787 180.863 143 180.106 143H176.602V135.608H177.754V138.344H180.122ZM179.994 141.96C180.943 141.96 181.418 141.533 181.418 140.68C181.418 139.816 180.943 139.384 179.994 139.384H177.754V141.96H179.994ZM87.6761 157.368C88.8387 157.368 89.7934 157.741 90.5401 158.488C91.2974 159.224 91.6761 160.163 91.6761 161.304C91.6761 162.445 91.2974 163.389 90.5401 164.136C89.7934 164.872 88.8387 165.24 87.6761 165.24C86.5241 165.24 85.5694 164.872 84.8121 164.136C84.0547 163.389 83.6761 162.445 83.6761 161.304C83.6761 160.163 84.0547 159.224 84.8121 158.488C85.5694 157.741 86.5241 157.368 87.6761 157.368ZM89.6761 159.272C89.1534 158.76 88.4867 158.504 87.6761 158.504C86.8654 158.504 86.1987 158.76 85.6761 159.272C85.1534 159.784 84.8921 160.461 84.8921 161.304C84.8921 162.147 85.1534 162.824 85.6761 163.336C86.1987 163.848 86.8654 164.104 87.6761 164.104C88.4867 164.104 89.1534 163.848 89.6761 163.336C90.1987 162.824 90.4601 162.147 90.4601 161.304C90.4601 160.461 90.1987 159.784 89.6761 159.272ZM98.5292 157.608V158.664H95.6812V165H94.5292V158.664H91.6972V157.608H98.5292ZM110.332 165H108.748L105.356 161.272V165H104.204V157.608H105.356V160.824L108.396 157.608H109.98L106.572 160.984L110.332 165ZM117.933 157.608V165H116.781V158.696H113.069V163.096C113.069 163.757 112.909 164.253 112.589 164.584C112.28 164.904 111.853 165.064 111.309 165.064H110.605V164.008H111.165C111.667 164.008 111.917 163.699 111.917 163.08V157.608H117.933ZM119.985 165V157.608H121.153V163.24H121.185L125.409 157.608H126.577V165H125.409V159.368H125.377L121.169 165H119.985ZM131.874 157.368C133.036 157.368 133.916 157.731 134.514 158.456C135.122 159.171 135.426 160.104 135.426 161.256V161.464H129.282C129.292 162.275 129.543 162.92 130.034 163.4C130.524 163.88 131.159 164.12 131.938 164.12C132.364 164.12 132.754 164.04 133.106 163.88C133.468 163.709 133.735 163.539 133.906 163.368C134.087 163.187 134.274 162.968 134.466 162.712L135.298 163.464C134.455 164.648 133.34 165.24 131.954 165.24C130.791 165.24 129.858 164.883 129.154 164.168C128.46 163.443 128.114 162.493 128.114 161.32C128.114 160.136 128.455 159.181 129.138 158.456C129.831 157.731 130.743 157.368 131.874 157.368ZM131.81 158.44C131.148 158.44 130.588 158.627 130.13 159C129.682 159.373 129.415 159.901 129.33 160.584H134.178C134.124 159.901 133.89 159.373 133.474 159C133.068 158.627 132.514 158.44 131.81 158.44ZM142.425 157.608H143.577V165H142.425V161.624H138.121V165H136.969V157.608H138.121V160.552H142.425V157.608ZM151.389 157.608V158.664H148.541V165H147.389V158.664H144.557V157.608H151.389ZM155.364 157.368C156.526 157.368 157.481 157.741 158.228 158.488C158.985 159.224 159.364 160.163 159.364 161.304C159.364 162.445 158.985 163.389 158.228 164.136C157.481 164.872 156.526 165.24 155.364 165.24C154.212 165.24 153.257 164.872 152.5 164.136C151.742 163.389 151.364 162.445 151.364 161.304C151.364 160.163 151.742 159.224 152.5 158.488C153.257 157.741 154.212 157.368 155.364 157.368ZM157.364 159.272C156.841 158.76 156.174 158.504 155.364 158.504C154.553 158.504 153.886 158.76 153.364 159.272C152.841 159.784 152.58 160.461 152.58 161.304C152.58 162.147 152.841 162.824 153.364 163.336C153.886 163.848 154.553 164.104 155.364 164.104C156.174 164.104 156.841 163.848 157.364 163.336C157.886 162.824 158.148 162.147 158.148 161.304C158.148 160.461 157.886 159.784 157.364 159.272ZM165.659 161.128C166.715 161.267 167.243 161.859 167.243 162.904C167.243 163.587 167.003 164.109 166.523 164.472C166.043 164.824 165.445 165 164.731 165H160.907V157.608H164.795C165.477 157.608 166.021 157.768 166.427 158.088C166.832 158.397 167.035 158.851 167.035 159.448C167.035 159.885 166.917 160.253 166.683 160.552C166.448 160.84 166.107 161.027 165.659 161.112V161.128ZM164.539 158.584H162.059V160.68H164.491C165.387 160.68 165.835 160.323 165.835 159.608C165.835 158.925 165.403 158.584 164.539 158.584ZM164.603 164.024C165.072 164.024 165.429 163.923 165.675 163.72C165.92 163.507 166.043 163.208 166.043 162.824C166.043 162.024 165.584 161.624 164.667 161.624H162.059V164.024H164.603Z" fill="#141B41"/>
<rect x="95" y="43" width="60" height="60" rx="6" fill="#F7F8FD"/>
<path d="M125.01 58C127.437 58 129.854 58.5986 132.002 59.731C139.315 63.5896 142.127 72.6782 138.271 79.9936C135.641 84.9819 130.463 88 124.993 88C123.924 88 122.845 87.885 121.771 87.6472C121.166 87.5124 120.784 86.9125 120.918 86.3073C121.051 85.7021 121.65 85.3228 122.259 85.4536C127.845 86.6958 133.612 84.0146 136.285 78.9457C139.563 72.7271 137.172 64.9982 130.954 61.7185C129.129 60.7551 127.073 60.2464 125.009 60.2464C117.965 60.2464 112.246 65.9668 112.246 72.998C112.243 75.0462 112.742 77.0851 113.689 78.8968L113.977 79.4597C114.33 80.1204 114.408 80.941 114.18 81.6837C113.864 82.5161 113.601 83.3262 113.384 84.1322C114.227 83.8785 115.256 83.5046 116 83.2337L116.305 83.124C116.882 82.9086 117.531 83.2138 117.742 83.7979C117.954 84.3807 117.651 85.0255 117.068 85.2356L116.767 85.3453C115.655 85.7483 114.133 86.302 113.106 86.5319C113.018 86.5504 112.925 86.5623 112.839 86.5597C112.149 86.5597 111.729 86.2808 111.498 86.0456C111.143 85.6849 110.974 85.1788 110.993 84.5419C110.996 84.4692 111.005 84.3939 111.022 84.3212C111.289 83.1848 111.637 82.051 112.057 80.9529C112.087 80.8459 112.069 80.6516 111.983 80.4891L111.693 79.9275C110.585 77.8053 109.997 75.4043 110 72.9967C110 64.7273 116.726 58 124.993 58H125.01ZM124.993 71.2142C125.978 71.2142 126.777 72.015 126.777 72.9981C126.777 73.9813 125.978 74.7821 124.993 74.7821C124.009 74.7821 123.21 73.9813 123.21 72.9981C123.21 72.015 124.009 71.2142 124.993 71.2142ZM131.598 71.2142C132.582 71.2142 133.382 72.015 133.382 72.9981C133.382 73.9813 132.582 74.7821 131.598 74.7821C130.614 74.7821 129.815 73.9813 129.815 72.9981C129.815 72.015 130.614 71.2142 131.598 71.2142ZM118.389 71.2148C119.373 71.2148 120.172 72.0142 120.172 72.9987C120.172 73.9818 119.373 74.7813 118.389 74.7813C117.404 74.7813 116.605 73.9818 116.605 72.9987C116.605 72.0142 117.404 71.2148 118.389 71.2148Z" fill="#446DF6"/>
<defs>
<filter id="filter0_d_1788_95" x="0" y="0" width="250" height="240" filterUnits="userSpaceOnUse" color-interpolation-filters="sRGB">
<feFlood flood-opacity="0" result="BackgroundImageFix"/>
<feColorMatrix in="SourceAlpha" type="matrix" values="0 0 0 0 0 0 0 0 0 0 0 0 0 0 0 0 0 0 127 0" result="hardAlpha"/>
<feOffset dy="16"/>
<feGaussianBlur stdDeviation="10"/>
<feComposite in2="hardAlpha" operator="out"/>
<feColorMatrix type="matrix" values="0 0 0 0 0.0784314 0 0 0 0 0.105882 0 0 0 0 0.254902 0 0 0 0.03 0"/>
<feBlend mode="normal" in2="BackgroundImageFix" result="effect1_dropShadow_1788_95"/>
<feBlend mode="normal" in="SourceGraphic" in2="effect1_dropShadow_1788_95" result="shape"/>
</filter>
</defs>
</svg>
