<svg width="250" height="240" viewBox="0 0 250 240" fill="none" xmlns="http://www.w3.org/2000/svg">
<g filter="url(#filter0_d_1788_111)">
<rect x="20" y="4" width="210" height="200" rx="10" fill="white"/>
</g>
<path d="M67.1722 143H65.3322L59.9082 137.288V143H58.6762V131.8H59.9082V136.84L64.7082 131.8H66.4522L61.3322 136.984L67.1722 143ZM71.0667 135.368C72.2294 135.368 73.184 135.741 73.9307 136.488C74.688 137.224 75.0667 138.163 75.0667 139.304C75.0667 140.445 74.688 141.389 73.9307 142.136C73.184 142.872 72.2294 143.24 71.0667 143.24C69.9147 143.24 68.96 142.872 68.2027 142.136C67.4454 141.389 67.0667 140.445 67.0667 139.304C67.0667 138.163 67.4454 137.224 68.2027 136.488C68.96 135.741 69.9147 135.368 71.0667 135.368ZM73.0667 137.272C72.544 136.76 71.8774 136.504 71.0667 136.504C70.256 136.504 69.5894 136.76 69.0667 137.272C68.544 137.784 68.2827 138.461 68.2827 139.304C68.2827 140.147 68.544 140.824 69.0667 141.336C69.5894 141.848 70.256 142.104 71.0667 142.104C71.8774 142.104 72.544 141.848 73.0667 141.336C73.5894 140.824 73.8507 140.147 73.8507 139.304C73.8507 138.461 73.5894 137.784 73.0667 137.272ZM82.0659 135.608H83.2179V143H82.0659V139.624H77.7619V143H76.6099V135.608H77.7619V138.552H82.0659V135.608ZM91.0292 135.608V136.664H88.1812V143H87.0292V136.664H84.1972V135.608H91.0292ZM92.1256 146.2V135.608H93.2776V136.92H93.3096C93.8856 135.885 94.8189 135.368 96.1096 135.368C97.1549 135.368 98.0242 135.725 98.7176 136.44C99.4216 137.155 99.7736 138.109 99.7736 139.304C99.7736 140.499 99.4216 141.453 98.7176 142.168C98.0242 142.883 97.1549 143.24 96.1096 143.24C94.8189 143.24 93.8856 142.723 93.3096 141.688H93.2776V146.2H92.1256ZM93.9496 141.32C94.4402 141.843 95.0856 142.104 95.8856 142.104C96.6856 142.104 97.3309 141.843 97.8216 141.32C98.3122 140.797 98.5576 140.125 98.5576 139.304C98.5576 138.483 98.3122 137.811 97.8216 137.288C97.3309 136.765 96.6856 136.504 95.8856 136.504C95.0856 136.504 94.4402 136.765 93.9496 137.288C93.4589 137.811 93.2136 138.483 93.2136 139.304C93.2136 140.125 93.4589 140.797 93.9496 141.32ZM104.801 135.368C105.964 135.368 106.918 135.741 107.665 136.488C108.422 137.224 108.801 138.163 108.801 139.304C108.801 140.445 108.422 141.389 107.665 142.136C106.918 142.872 105.964 143.24 104.801 143.24C103.649 143.24 102.694 142.872 101.937 142.136C101.18 141.389 100.801 140.445 100.801 139.304C100.801 138.163 101.18 137.224 101.937 136.488C102.694 135.741 103.649 135.368 104.801 135.368ZM106.801 137.272C106.278 136.76 105.612 136.504 104.801 136.504C103.99 136.504 103.324 136.76 102.801 137.272C102.278 137.784 102.017 138.461 102.017 139.304C102.017 140.147 102.278 140.824 102.801 141.336C103.324 141.848 103.99 142.104 104.801 142.104C105.612 142.104 106.278 141.848 106.801 141.336C107.324 140.824 107.585 140.147 107.585 139.304C107.585 138.461 107.324 137.784 106.801 137.272ZM116.699 135.608V143H115.547V136.696H111.835V141.096C111.835 141.757 111.675 142.253 111.355 142.584C111.046 142.904 110.619 143.064 110.075 143.064H109.371V142.008H109.931C110.432 142.008 110.683 141.699 110.683 141.08V135.608H116.699ZM122.271 138.344C123.028 138.344 123.636 138.552 124.095 138.968C124.553 139.384 124.783 139.949 124.783 140.664C124.783 141.357 124.548 141.923 124.079 142.36C123.62 142.787 123.012 143 122.255 143H118.751V135.608H119.903V138.344H122.271ZM122.143 141.96C123.092 141.96 123.567 141.533 123.567 140.68C123.567 139.816 123.092 139.384 122.143 139.384H119.903V141.96H122.143ZM137.004 143H135.42L132.028 139.272V143H130.876V135.608H132.028V138.824L135.068 135.608H136.652L133.244 138.984L137.004 143ZM140.653 143.24C139.607 143.24 138.733 142.883 138.029 142.168C137.335 141.453 136.989 140.499 136.989 139.304C136.989 138.109 137.335 137.155 138.029 136.44C138.733 135.725 139.607 135.368 140.653 135.368C141.943 135.368 142.877 135.885 143.453 136.92H143.485V135.608H144.637V143H143.485V141.688H143.453C142.877 142.723 141.943 143.24 140.653 143.24ZM138.941 141.32C139.431 141.843 140.077 142.104 140.877 142.104C141.677 142.104 142.322 141.843 142.813 141.32C143.303 140.797 143.549 140.125 143.549 139.304C143.549 138.483 143.303 137.811 142.813 137.288C142.322 136.765 141.677 136.504 140.877 136.504C140.077 136.504 139.431 136.765 138.941 137.288C138.45 137.811 138.205 138.483 138.205 139.304C138.205 140.125 138.45 140.797 138.941 141.32ZM150.577 135.608H151.729V143H150.577V140.024H148.001C146.603 140.024 145.905 139.384 145.905 138.104V135.608H147.057V137.992C147.057 138.653 147.398 138.984 148.081 138.984H150.577V135.608ZM157.03 135.368C158.192 135.368 159.072 135.731 159.67 136.456C160.278 137.171 160.582 138.104 160.582 139.256V139.464H154.438C154.448 140.275 154.699 140.92 155.19 141.4C155.68 141.88 156.315 142.12 157.094 142.12C157.52 142.12 157.91 142.04 158.262 141.88C158.624 141.709 158.891 141.539 159.062 141.368C159.243 141.187 159.43 140.968 159.622 140.712L160.454 141.464C159.611 142.648 158.496 143.24 157.11 143.24C155.947 143.24 155.014 142.883 154.31 142.168C153.616 141.443 153.27 140.493 153.27 139.32C153.27 138.136 153.611 137.181 154.294 136.456C154.987 135.731 155.899 135.368 157.03 135.368ZM156.966 136.44C156.304 136.44 155.744 136.627 155.286 137C154.838 137.373 154.571 137.901 154.486 138.584H159.334C159.28 137.901 159.046 137.373 158.63 137C158.224 136.627 157.67 136.44 156.966 136.44ZM165.505 143.24C164.321 143.24 163.355 142.877 162.609 142.152C161.862 141.427 161.489 140.477 161.489 139.304C161.489 138.131 161.862 137.181 162.609 136.456C163.355 135.731 164.321 135.368 165.505 135.368C166.39 135.368 167.233 135.613 168.033 136.104L167.473 137.096C166.79 136.691 166.123 136.488 165.473 136.488C164.651 136.488 163.985 136.76 163.473 137.304C162.961 137.837 162.705 138.504 162.705 139.304C162.705 140.104 162.961 140.776 163.473 141.32C163.985 141.853 164.651 142.12 165.473 142.12C166.123 142.12 166.79 141.917 167.473 141.512L168.033 142.504C167.233 142.995 166.39 143.24 165.505 143.24ZM175.326 135.608V136.664H172.478V143H171.326V136.664H168.494V135.608H175.326ZM181.174 139.128C182.23 139.267 182.758 139.859 182.758 140.904C182.758 141.587 182.518 142.109 182.038 142.472C181.558 142.824 180.961 143 180.246 143H176.422V135.608H180.31C180.993 135.608 181.537 135.768 181.942 136.088C182.348 136.397 182.55 136.851 182.55 137.448C182.55 137.885 182.433 138.253 182.198 138.552C181.964 138.84 181.622 139.027 181.174 139.112V139.128ZM180.054 136.584H177.574V138.68H180.006C180.902 138.68 181.35 138.323 181.35 137.608C181.35 136.925 180.918 136.584 180.054 136.584ZM180.118 142.024C180.588 142.024 180.945 141.923 181.19 141.72C181.436 141.507 181.558 141.208 181.558 140.824C181.558 140.024 181.1 139.624 180.182 139.624H177.574V142.024H180.118ZM187.528 143.24C186.482 143.24 185.608 142.883 184.904 142.168C184.21 141.453 183.864 140.499 183.864 139.304C183.864 138.109 184.21 137.155 184.904 136.44C185.608 135.725 186.482 135.368 187.528 135.368C188.818 135.368 189.752 135.885 190.328 136.92H190.36V135.608H191.512V143H190.36V141.688H190.328C189.752 142.723 188.818 143.24 187.528 143.24ZM185.816 141.32C186.306 141.843 186.952 142.104 187.752 142.104C188.552 142.104 189.197 141.843 189.688 141.32C190.178 140.797 190.424 140.125 190.424 139.304C190.424 138.483 190.178 137.811 189.688 137.288C189.197 136.765 188.552 136.504 187.752 136.504C186.952 136.504 186.306 136.765 185.816 137.288C185.325 137.811 185.08 138.483 185.08 139.304C185.08 140.125 185.325 140.797 185.816 141.32ZM53.4928 168.2V157.608H54.6448V158.92H54.6768C55.2528 157.885 56.1861 157.368 57.4768 157.368C58.5221 157.368 59.3914 157.725 60.0848 158.44C60.7888 159.155 61.1408 160.109 61.1408 161.304C61.1408 162.499 60.7888 163.453 60.0848 164.168C59.3914 164.883 58.5221 165.24 57.4768 165.24C56.1861 165.24 55.2528 164.723 54.6768 163.688H54.6448V168.2H53.4928ZM55.3168 163.32C55.8074 163.843 56.4528 164.104 57.2528 164.104C58.0528 164.104 58.6981 163.843 59.1888 163.32C59.6794 162.797 59.9248 162.125 59.9248 161.304C59.9248 160.483 59.6794 159.811 59.1888 159.288C58.6981 158.765 58.0528 158.504 57.2528 158.504C56.4528 158.504 55.8074 158.765 55.3168 159.288C54.8261 159.811 54.5807 160.483 54.5807 161.304C54.5807 162.125 54.8261 162.797 55.3168 163.32ZM65.8323 165.24C64.7869 165.24 63.9123 164.883 63.2083 164.168C62.5149 163.453 62.1683 162.499 62.1683 161.304C62.1683 160.109 62.5149 159.155 63.2083 158.44C63.9123 157.725 64.7869 157.368 65.8323 157.368C67.1229 157.368 68.0563 157.885 68.6323 158.92H68.6643V157.608H69.8163V165H68.6643V163.688H68.6323C68.0563 164.723 67.1229 165.24 65.8323 165.24ZM64.1203 163.32C64.6109 163.843 65.2563 164.104 66.0563 164.104C66.8563 164.104 67.5016 163.843 67.9923 163.32C68.4829 162.797 68.7283 162.125 68.7283 161.304C68.7283 160.483 68.4829 159.811 67.9923 159.288C67.5016 158.765 66.8563 158.504 66.0563 158.504C65.2563 158.504 64.6109 158.765 64.1203 159.288C63.6296 159.811 63.3843 160.483 63.3843 161.304C63.3843 162.125 63.6296 162.797 64.1203 163.32ZM78.3325 164.136C77.6072 164.872 76.6312 165.24 75.4045 165.24C74.1778 165.24 73.1912 164.845 72.4445 164.056C71.6978 163.267 71.3245 162.04 71.3245 160.376C71.3245 159.341 71.4792 158.392 71.7885 157.528C72.1085 156.653 72.6365 156.003 73.3725 155.576C73.6605 155.416 73.9965 155.272 74.3805 155.144C74.7752 155.016 75.2338 154.888 75.7565 154.76C76.2898 154.632 76.5832 154.563 76.6365 154.552C77.2125 154.381 77.5165 154.109 77.5485 153.736H78.6845C78.6845 154.227 78.5618 154.611 78.3165 154.888C78.0818 155.155 77.7192 155.357 77.2285 155.496C77.1432 155.517 76.8552 155.581 76.3645 155.688C75.8845 155.795 75.4365 155.912 75.0205 156.04C74.6045 156.157 74.2632 156.285 73.9965 156.424C73.0472 156.925 72.5032 157.976 72.3645 159.576H72.4125C72.6792 158.904 73.1058 158.387 73.6925 158.024C74.2898 157.661 74.9725 157.48 75.7405 157.48C76.8392 157.48 77.7298 157.832 78.4125 158.536C79.0952 159.229 79.4365 160.141 79.4365 161.272C79.4365 162.445 79.0685 163.4 78.3325 164.136ZM75.4365 164.104C76.2365 164.104 76.8978 163.853 77.4205 163.352C77.9538 162.851 78.2205 162.179 78.2205 161.336C78.2205 160.483 77.9538 159.805 77.4205 159.304C76.8872 158.803 76.2258 158.552 75.4365 158.552C74.6472 158.552 73.9805 158.803 73.4365 159.304C72.9032 159.805 72.6365 160.477 72.6365 161.32C72.6365 162.163 72.9032 162.84 73.4365 163.352C73.9805 163.853 74.6472 164.104 75.4365 164.104ZM84.4808 157.368C85.6434 157.368 86.5981 157.741 87.3448 158.488C88.1021 159.224 88.4808 160.163 88.4808 161.304C88.4808 162.445 88.1021 163.389 87.3448 164.136C86.5981 164.872 85.6434 165.24 84.4808 165.24C83.3288 165.24 82.3741 164.872 81.6168 164.136C80.8594 163.389 80.4808 162.445 80.4808 161.304C80.4808 160.163 80.8594 159.224 81.6168 158.488C82.3741 157.741 83.3288 157.368 84.4808 157.368ZM86.4808 159.272C85.9581 158.76 85.2914 158.504 84.4808 158.504C83.6701 158.504 83.0034 158.76 82.4808 159.272C81.9581 159.784 81.6968 160.461 81.6968 161.304C81.6968 162.147 81.9581 162.824 82.4808 163.336C83.0034 163.848 83.6701 164.104 84.4808 164.104C85.2914 164.104 85.9581 163.848 86.4808 163.336C87.0034 162.824 87.2648 162.147 87.2648 161.304C87.2648 160.461 87.0034 159.784 86.4808 159.272ZM95.3339 157.608V158.664H92.4859V165H91.3339V158.664H88.5019V157.608H95.3339ZM99.9503 160.344C100.708 160.344 101.316 160.552 101.774 160.968C102.233 161.384 102.462 161.949 102.462 162.664C102.462 163.357 102.228 163.923 101.758 164.36C101.3 164.787 100.692 165 99.9343 165H96.4303V157.608H97.5823V160.344H99.9503ZM103.214 157.608H104.366V165H103.214V157.608ZM99.8223 163.96C100.772 163.96 101.246 163.533 101.246 162.68C101.246 161.816 100.772 161.384 99.8223 161.384H97.5823V163.96H99.8223ZM114.684 165.24C113.5 165.24 112.535 164.877 111.788 164.152C111.042 163.427 110.668 162.477 110.668 161.304C110.668 160.131 111.042 159.181 111.788 158.456C112.535 157.731 113.5 157.368 114.684 157.368C115.57 157.368 116.412 157.613 117.212 158.104L116.652 159.096C115.97 158.691 115.303 158.488 114.652 158.488C113.831 158.488 113.164 158.76 112.652 159.304C112.14 159.837 111.884 160.504 111.884 161.304C111.884 162.104 112.14 162.776 112.652 163.32C113.164 163.853 113.831 164.12 114.652 164.12C115.303 164.12 115.97 163.917 116.652 163.512L117.212 164.504C116.412 164.995 115.57 165.24 114.684 165.24ZM121.653 157.368C122.815 157.368 123.77 157.741 124.517 158.488C125.274 159.224 125.653 160.163 125.653 161.304C125.653 162.445 125.274 163.389 124.517 164.136C123.77 164.872 122.815 165.24 121.653 165.24C120.501 165.24 119.546 164.872 118.789 164.136C118.031 163.389 117.653 162.445 117.653 161.304C117.653 160.163 118.031 159.224 118.789 158.488C119.546 157.741 120.501 157.368 121.653 157.368ZM123.653 159.272C123.13 158.76 122.463 158.504 121.653 158.504C120.842 158.504 120.175 158.76 119.653 159.272C119.13 159.784 118.869 160.461 118.869 161.304C118.869 162.147 119.13 162.824 119.653 163.336C120.175 163.848 120.842 164.104 121.653 164.104C122.463 164.104 123.13 163.848 123.653 163.336C124.175 162.824 124.437 162.147 124.437 161.304C124.437 160.461 124.175 159.784 123.653 159.272ZM132.506 157.608V158.664H129.658V165H128.506V158.664H125.674V157.608H132.506ZM133.602 168.2V157.608H134.754V158.92H134.786C135.362 157.885 136.295 157.368 137.586 157.368C138.631 157.368 139.501 157.725 140.194 158.44C140.898 159.155 141.25 160.109 141.25 161.304C141.25 162.499 140.898 163.453 140.194 164.168C139.501 164.883 138.631 165.24 137.586 165.24C136.295 165.24 135.362 164.723 134.786 163.688H134.754V168.2H133.602ZM135.426 163.32C135.917 163.843 136.562 164.104 137.362 164.104C138.162 164.104 138.807 163.843 139.298 163.32C139.789 162.797 140.034 162.125 140.034 161.304C140.034 160.483 139.789 159.811 139.298 159.288C138.807 158.765 138.162 158.504 137.362 158.504C136.562 158.504 135.917 158.765 135.426 159.288C134.935 159.811 134.69 160.483 134.69 161.304C134.69 162.125 134.935 162.797 135.426 163.32ZM147.439 157.608H148.719L143.887 168.2H142.655L144.543 164.216L141.471 157.608H142.831L145.135 162.92L147.439 157.608ZM155.449 164.072H156.361V167.08H155.337V165.144H149.417V167.08H148.377V164.072H149.321C149.747 163.325 149.961 162.429 149.961 161.384V157.608H155.449V164.072ZM151.113 161.448C151.113 162.451 150.926 163.325 150.553 164.072H154.297V158.664H151.113V161.448ZM163.105 157.608H164.257V165H163.105V161.624H158.801V165H157.649V157.608H158.801V160.552H163.105V157.608ZM166.305 165V157.608H167.473V163.24H167.505L171.729 157.608H172.897V165H171.729V159.368H171.697L167.489 165H166.305ZM181.074 165H179.49L176.098 161.272V165H174.946V157.608H176.098V160.824L179.138 157.608H180.722L177.314 160.984L181.074 165ZM185.059 157.368C186.222 157.368 187.176 157.741 187.923 158.488C188.68 159.224 189.059 160.163 189.059 161.304C189.059 162.445 188.68 163.389 187.923 164.136C187.176 164.872 186.222 165.24 185.059 165.24C183.907 165.24 182.952 164.872 182.195 164.136C181.438 163.389 181.059 162.445 181.059 161.304C181.059 160.163 181.438 159.224 182.195 158.488C182.952 157.741 183.907 157.368 185.059 157.368ZM187.059 159.272C186.536 158.76 185.87 158.504 185.059 158.504C184.248 158.504 183.582 158.76 183.059 159.272C182.536 159.784 182.275 160.461 182.275 161.304C182.275 162.147 182.536 162.824 183.059 163.336C183.582 163.848 184.248 164.104 185.059 164.104C185.87 164.104 186.536 163.848 187.059 163.336C187.582 162.824 187.843 162.147 187.843 161.304C187.843 160.461 187.582 159.784 187.059 159.272ZM195.354 161.128C196.41 161.267 196.938 161.859 196.938 162.904C196.938 163.587 196.698 164.109 196.218 164.472C195.738 164.824 195.141 165 194.426 165H190.602V157.608H194.49C195.173 157.608 195.717 157.768 196.122 158.088C196.527 158.397 196.73 158.851 196.73 159.448C196.73 159.885 196.613 160.253 196.378 160.552C196.143 160.84 195.802 161.027 195.354 161.112V161.128ZM194.234 158.584H191.754V160.68H194.186C195.082 160.68 195.53 160.323 195.53 159.608C195.53 158.925 195.098 158.584 194.234 158.584ZM194.298 164.024C194.767 164.024 195.125 163.923 195.37 163.72C195.615 163.507 195.738 163.208 195.738 162.824C195.738 162.024 195.279 161.624 194.362 161.624H191.754V164.024H194.298Z" fill="#141B41"/>
<rect x="95" y="43" width="60" height="60" rx="6" fill="#F7F8FD"/>
<path d="M133.247 87.8791C133.062 87.8836 132.879 87.8371 132.719 87.7441L125.012 83.6851L118.226 87.3391C117.119 87.9391 115.733 87.5281 115.133 86.4196C115.125 86.4061 115.118 86.3926 115.11 86.3776C114.875 85.9141 114.792 85.3906 114.873 84.8776L116.193 77.0866L110.676 71.5006C109.775 70.5706 109.775 69.0916 110.676 68.1601C111.027 67.7911 111.492 67.5526 111.996 67.4836L119.561 66.3346L122.925 59.3251C123.449 58.1851 124.797 57.6841 125.939 58.2076C126.434 58.4341 126.83 58.8316 127.056 59.3251L130.436 66.3586L138.026 67.5211C138.639 67.6126 139.19 67.9516 139.55 68.4571C140.222 69.4231 140.12 70.7281 139.307 71.5786L133.815 77.0986L134.58 81.2971C134.687 81.9271 134.271 82.5286 133.643 82.6471C133.025 82.7581 132.434 82.3471 132.323 81.7276L131.544 77.5291C131.414 76.7596 131.658 75.9736 132.204 75.4171L137.709 69.8581L130.119 68.6806C129.35 68.5561 128.697 68.0461 128.39 67.3306L125.012 60.3271L121.592 67.4416C121.284 68.1586 120.632 68.6671 119.862 68.7916L112.298 69.9406L117.762 75.4906C118.307 76.0381 118.551 76.8136 118.422 77.5741L117.102 85.3651L123.887 81.7261C124.559 81.3481 125.379 81.3481 126.051 81.7261L133.748 85.7851C134.217 86.0416 134.456 86.5831 134.328 87.1036C134.211 87.6241 133.752 87.9946 133.22 88.0036L133.247 87.8791Z" fill="#446DF6"/>
<defs>
<filter id="filter0_d_1788_111" x="0" y="0" width="250" height="240" filterUnits="userSpaceOnUse" color-interpolation-filters="sRGB">
<feFlood flood-opacity="0" result="BackgroundImageFix"/>
<feColorMatrix in="SourceAlpha" type="matrix" values="0 0 0 0 0 0 0 0 0 0 0 0 0 0 0 0 0 0 127 0" result="hardAlpha"/>
<feOffset dy="16"/>
<feGaussianBlur stdDeviation="10"/>
<feComposite in2="hardAlpha" operator="out"/>
<feColorMatrix type="matrix" values="0 0 0 0 0.0784314 0 0 0 0 0.105882 0 0 0 0 0.254902 0 0 0 0.03 0"/>
<feBlend mode="normal" in2="BackgroundImageFix" result="effect1_dropShadow_1788_111"/>
<feBlend mode="normal" in="SourceGraphic" in2="effect1_dropShadow_1788_111" result="shape"/>
</filter>
</defs>
</svg>
