<svg width="250" height="240" viewBox="0 0 250 240" fill="none" xmlns="http://www.w3.org/2000/svg">
<g filter="url(#filter0_d_1788_119)">
<rect x="20" y="4" width="210" height="200" rx="10" fill="white"/>
</g>
<path d="M78.6699 136.488C79.7045 136.488 80.5419 136.776 81.1819 137.352C81.8219 137.928 82.1419 138.728 82.1419 139.752C82.1419 140.765 81.8219 141.56 81.1819 142.136C80.5419 142.712 79.7045 143 78.6699 143H74.6059V131.8H81.6299V132.968H75.8379V136.488H78.6699ZM78.5099 141.832C79.2565 141.832 79.8272 141.645 80.2219 141.272C80.6165 140.899 80.8139 140.392 80.8139 139.752C80.8139 139.101 80.6165 138.589 80.2219 138.216C79.8272 137.843 79.2565 137.656 78.5099 137.656H75.8379V141.832H78.5099ZM86.9283 135.368C88.0909 135.368 88.9709 135.731 89.5683 136.456C90.1763 137.171 90.4803 138.104 90.4803 139.256V139.464H84.3363C84.3469 140.275 84.5976 140.92 85.0883 141.4C85.5789 141.88 86.2136 142.12 86.9923 142.12C87.4189 142.12 87.8083 142.04 88.1603 141.88C88.5229 141.709 88.7896 141.539 88.9603 141.368C89.1416 141.187 89.3283 140.968 89.5203 140.712L90.3523 141.464C89.5096 142.648 88.3949 143.24 87.0083 143.24C85.8456 143.24 84.9123 142.883 84.2083 142.168C83.5149 141.443 83.1683 140.493 83.1683 139.32C83.1683 138.136 83.5096 137.181 84.1923 136.456C84.8856 135.731 85.7976 135.368 86.9283 135.368ZM86.8643 136.44C86.2029 136.44 85.6429 136.627 85.1843 137C84.7363 137.373 84.4696 137.901 84.3843 138.584H89.2323C89.1789 137.901 88.9443 137.373 88.5283 137C88.1229 136.627 87.5683 136.44 86.8643 136.44ZM95.403 143.24C94.219 143.24 93.2537 142.877 92.507 142.152C91.7603 141.427 91.387 140.477 91.387 139.304C91.387 138.131 91.7603 137.181 92.507 136.456C93.2537 135.731 94.219 135.368 95.403 135.368C96.2883 135.368 97.131 135.613 97.931 136.104L97.371 137.096C96.6883 136.691 96.0217 136.488 95.371 136.488C94.5497 136.488 93.883 136.76 93.371 137.304C92.859 137.837 92.603 138.504 92.603 139.304C92.603 140.104 92.859 140.776 93.371 141.32C93.883 141.853 94.5497 142.12 95.371 142.12C96.0217 142.12 96.6883 141.917 97.371 141.512L97.931 142.504C97.131 142.995 96.2883 143.24 95.403 143.24ZM105.465 143H103.881L100.489 139.272V143H99.3365V135.608H100.489V138.824L103.529 135.608H105.113L101.705 138.984L105.465 143ZM109.45 135.368C110.612 135.368 111.567 135.741 112.314 136.488C113.071 137.224 113.45 138.163 113.45 139.304C113.45 140.445 113.071 141.389 112.314 142.136C111.567 142.872 110.612 143.24 109.45 143.24C108.298 143.24 107.343 142.872 106.586 142.136C105.828 141.389 105.45 140.445 105.45 139.304C105.45 138.163 105.828 137.224 106.586 136.488C107.343 135.741 108.298 135.368 109.45 135.368ZM111.45 137.272C110.927 136.76 110.26 136.504 109.45 136.504C108.639 136.504 107.972 136.76 107.45 137.272C106.927 137.784 106.666 138.461 106.666 139.304C106.666 140.147 106.927 140.824 107.45 141.336C107.972 141.848 108.639 142.104 109.45 142.104C110.26 142.104 110.927 141.848 111.45 141.336C111.972 140.824 112.234 140.147 112.234 139.304C112.234 138.461 111.972 137.784 111.45 137.272ZM120.449 135.608H121.601V143H120.449V139.624H116.145V143H114.993V135.608H116.145V138.552H120.449V135.608ZM129.412 135.608V136.664H126.564V143H125.412V136.664H122.58V135.608H129.412ZM133.051 143.24C132.006 143.24 131.131 142.883 130.427 142.168C129.734 141.453 129.387 140.499 129.387 139.304C129.387 138.109 129.734 137.155 130.427 136.44C131.131 135.725 132.006 135.368 133.051 135.368C134.342 135.368 135.275 135.885 135.851 136.92H135.883V135.608H137.035V143H135.883V141.688H135.851C135.275 142.723 134.342 143.24 133.051 143.24ZM131.339 141.32C131.83 141.843 132.475 142.104 133.275 142.104C134.075 142.104 134.72 141.843 135.211 141.32C135.702 140.797 135.947 140.125 135.947 139.304C135.947 138.483 135.702 137.811 135.211 137.288C134.72 136.765 134.075 136.504 133.275 136.504C132.475 136.504 131.83 136.765 131.339 137.288C130.848 137.811 130.603 138.483 130.603 139.304C130.603 140.125 130.848 140.797 131.339 141.32ZM145.183 143H143.599L140.207 139.272V143H139.055V135.608H140.207V138.824L143.247 135.608H144.831L141.423 138.984L145.183 143ZM152.084 135.608V136.664H149.236V143H148.084V136.664H145.252V135.608H152.084ZM158.636 135.608H159.788V143H158.636V139.624H154.332V143H153.18V135.608H154.332V138.552H158.636V135.608ZM164.989 143.24C163.943 143.24 163.069 142.883 162.365 142.168C161.671 141.453 161.325 140.499 161.325 139.304C161.325 138.109 161.671 137.155 162.365 136.44C163.069 135.725 163.943 135.368 164.989 135.368C166.279 135.368 167.213 135.885 167.789 136.92H167.821V135.608H168.973V143H167.821V141.688H167.789C167.213 142.723 166.279 143.24 164.989 143.24ZM163.277 141.32C163.767 141.843 164.413 142.104 165.213 142.104C166.013 142.104 166.658 141.843 167.149 141.32C167.639 140.797 167.885 140.125 167.885 139.304C167.885 138.483 167.639 137.811 167.149 137.288C166.658 136.765 166.013 136.504 165.213 136.504C164.413 136.504 163.767 136.765 163.277 137.288C162.786 137.811 162.541 138.483 162.541 139.304C162.541 140.125 162.786 140.797 163.277 141.32ZM172.961 135.608H176.561V143H175.409V140.104H173.873L171.649 143H170.241L172.545 140.088C171.894 140.013 171.377 139.784 170.993 139.4C170.609 139.016 170.417 138.509 170.417 137.88C170.417 137.187 170.646 136.637 171.105 136.232C171.574 135.816 172.193 135.608 172.961 135.608ZM173.089 139.064H175.409V136.664H173.089C172.619 136.664 172.257 136.771 172.001 136.984C171.755 137.187 171.633 137.48 171.633 137.864C171.633 138.664 172.118 139.064 173.089 139.064ZM75.9104 157.368C77.0731 157.368 78.0278 157.741 78.7744 158.488C79.5318 159.224 79.9104 160.163 79.9104 161.304C79.9104 162.445 79.5318 163.389 78.7744 164.136C78.0278 164.872 77.0731 165.24 75.9104 165.24C74.7584 165.24 73.8038 164.872 73.0464 164.136C72.2891 163.389 71.9104 162.445 71.9104 161.304C71.9104 160.163 72.2891 159.224 73.0464 158.488C73.8038 157.741 74.7584 157.368 75.9104 157.368ZM77.9104 159.272C77.3878 158.76 76.7211 158.504 75.9104 158.504C75.0998 158.504 74.4331 158.76 73.9104 159.272C73.3878 159.784 73.1264 160.461 73.1264 161.304C73.1264 162.147 73.3878 162.824 73.9104 163.336C74.4331 163.848 75.0998 164.104 75.9104 164.104C76.7211 164.104 77.3878 163.848 77.9104 163.336C78.4331 162.824 78.6944 162.147 78.6944 161.304C78.6944 160.461 78.4331 159.784 77.9104 159.272ZM87.8057 157.608V165H86.6537V158.696H82.6057V165H81.4537V157.608H87.8057ZM96.3239 157.608V165H95.1719V158.696H91.4599V163.096C91.4599 163.757 91.2999 164.253 90.9799 164.584C90.6706 164.904 90.2439 165.064 89.6999 165.064H88.9959V164.008H89.5559C90.0573 164.008 90.3079 163.699 90.3079 163.08V157.608H96.3239ZM101.528 165.24C100.482 165.24 99.6076 164.883 98.9036 164.168C98.2102 163.453 97.8636 162.499 97.8636 161.304C97.8636 160.109 98.2102 159.155 98.9036 158.44C99.6076 157.725 100.482 157.368 101.528 157.368C102.818 157.368 103.752 157.885 104.328 158.92H104.36V157.608H105.512V165H104.36V163.688H104.328C103.752 164.723 102.818 165.24 101.528 165.24ZM99.8156 163.32C100.306 163.843 100.952 164.104 101.752 164.104C102.552 164.104 103.197 163.843 103.688 163.32C104.178 162.797 104.424 162.125 104.424 161.304C104.424 160.483 104.178 159.811 103.688 159.288C103.197 158.765 102.552 158.504 101.752 158.504C100.952 158.504 100.306 158.765 99.8156 159.288C99.3249 159.811 99.0796 160.483 99.0796 161.304C99.0796 162.125 99.3249 162.797 99.8156 163.32ZM113.295 157.608V158.664H110.447V165H109.295V158.664H106.463V157.608H113.295ZM116.934 165.24C115.888 165.24 115.014 164.883 114.31 164.168C113.616 163.453 113.27 162.499 113.27 161.304C113.27 160.109 113.616 159.155 114.31 158.44C115.014 157.725 115.888 157.368 116.934 157.368C118.224 157.368 119.158 157.885 119.734 158.92H119.766V157.608H120.918V165H119.766V163.688H119.734C119.158 164.723 118.224 165.24 116.934 165.24ZM115.222 163.32C115.712 163.843 116.358 164.104 117.158 164.104C117.958 164.104 118.603 163.843 119.094 163.32C119.584 162.797 119.83 162.125 119.83 161.304C119.83 160.483 119.584 159.811 119.094 159.288C118.603 158.765 117.958 158.504 117.158 158.504C116.358 158.504 115.712 158.765 115.222 159.288C114.731 159.811 114.486 160.483 114.486 161.304C114.486 162.125 114.731 162.797 115.222 163.32ZM127.704 168.2V157.608H128.856V158.92H128.888C129.464 157.885 130.397 157.368 131.688 157.368C132.733 157.368 133.602 157.725 134.296 158.44C135 159.155 135.352 160.109 135.352 161.304C135.352 162.499 135 163.453 134.296 164.168C133.602 164.883 132.733 165.24 131.688 165.24C130.397 165.24 129.464 164.723 128.888 163.688H128.856V168.2H127.704ZM129.528 163.32C130.018 163.843 130.664 164.104 131.464 164.104C132.264 164.104 132.909 163.843 133.4 163.32C133.89 162.797 134.136 162.125 134.136 161.304C134.136 160.483 133.89 159.811 133.4 159.288C132.909 158.765 132.264 158.504 131.464 158.504C130.664 158.504 130.018 158.765 129.528 159.288C129.037 159.811 128.792 160.483 128.792 161.304C128.792 162.125 129.037 162.797 129.528 163.32ZM140.043 165.24C138.998 165.24 138.123 164.883 137.419 164.168C136.726 163.453 136.379 162.499 136.379 161.304C136.379 160.109 136.726 159.155 137.419 158.44C138.123 157.725 138.998 157.368 140.043 157.368C141.334 157.368 142.267 157.885 142.843 158.92H142.875V157.608H144.027V165H142.875V163.688H142.843C142.267 164.723 141.334 165.24 140.043 165.24ZM138.331 163.32C138.822 163.843 139.467 164.104 140.267 164.104C141.067 164.104 141.713 163.843 142.203 163.32C142.694 162.797 142.939 162.125 142.939 161.304C142.939 160.483 142.694 159.811 142.203 159.288C141.713 158.765 141.067 158.504 140.267 158.504C139.467 158.504 138.822 158.765 138.331 159.288C137.841 159.811 137.595 160.483 137.595 161.304C137.595 162.125 137.841 162.797 138.331 163.32ZM152.543 164.136C151.818 164.872 150.842 165.24 149.615 165.24C148.389 165.24 147.402 164.845 146.655 164.056C145.909 163.267 145.535 162.04 145.535 160.376C145.535 159.341 145.69 158.392 145.999 157.528C146.319 156.653 146.847 156.003 147.583 155.576C147.871 155.416 148.207 155.272 148.591 155.144C148.986 155.016 149.445 154.888 149.967 154.76C150.501 154.632 150.794 154.563 150.847 154.552C151.423 154.381 151.727 154.109 151.759 153.736H152.895C152.895 154.227 152.773 154.611 152.527 154.888C152.293 155.155 151.93 155.357 151.439 155.496C151.354 155.517 151.066 155.581 150.575 155.688C150.095 155.795 149.647 155.912 149.231 156.04C148.815 156.157 148.474 156.285 148.207 156.424C147.258 156.925 146.714 157.976 146.575 159.576H146.623C146.89 158.904 147.317 158.387 147.903 158.024C148.501 157.661 149.183 157.48 149.951 157.48C151.05 157.48 151.941 157.832 152.623 158.536C153.306 159.229 153.647 160.141 153.647 161.272C153.647 162.445 153.279 163.4 152.543 164.136ZM149.647 164.104C150.447 164.104 151.109 163.853 151.631 163.352C152.165 162.851 152.431 162.179 152.431 161.336C152.431 160.483 152.165 159.805 151.631 159.304C151.098 158.803 150.437 158.552 149.647 158.552C148.858 158.552 148.191 158.803 147.647 159.304C147.114 159.805 146.847 160.477 146.847 161.32C146.847 162.163 147.114 162.84 147.647 163.352C148.191 163.853 148.858 164.104 149.647 164.104ZM158.692 157.368C159.854 157.368 160.809 157.741 161.556 158.488C162.313 159.224 162.692 160.163 162.692 161.304C162.692 162.445 162.313 163.389 161.556 164.136C160.809 164.872 159.854 165.24 158.692 165.24C157.54 165.24 156.585 164.872 155.828 164.136C155.07 163.389 154.692 162.445 154.692 161.304C154.692 160.163 155.07 159.224 155.828 158.488C156.585 157.741 157.54 157.368 158.692 157.368ZM160.692 159.272C160.169 158.76 159.502 158.504 158.692 158.504C157.881 158.504 157.214 158.76 156.692 159.272C156.169 159.784 155.908 160.461 155.908 161.304C155.908 162.147 156.169 162.824 156.692 163.336C157.214 163.848 157.881 164.104 158.692 164.104C159.502 164.104 160.169 163.848 160.692 163.336C161.214 162.824 161.476 162.147 161.476 161.304C161.476 160.461 161.214 159.784 160.692 159.272ZM169.545 157.608V158.664H166.697V165H165.545V158.664H162.713V157.608H169.545ZM174.161 160.344C174.919 160.344 175.527 160.552 175.985 160.968C176.444 161.384 176.673 161.949 176.673 162.664C176.673 163.357 176.439 163.923 175.969 164.36C175.511 164.787 174.903 165 174.145 165H170.641V157.608H171.793V160.344H174.161ZM177.425 157.608H178.577V165H177.425V157.608ZM174.033 163.96C174.983 163.96 175.457 163.533 175.457 162.68C175.457 161.816 174.983 161.384 174.033 161.384H171.793V163.96H174.033Z" fill="#141B41"/>
<rect x="95" y="43" width="60" height="60" rx="6" fill="#F7F8FD"/>
<path d="M131.321 58.75C136.107 58.75 140 62.7322 140 67.6284V78.3716C140 83.2678 136.107 87.25 131.321 87.25C130.769 87.25 130.321 86.7916 130.321 86.2268C130.321 85.662 130.769 85.2037 131.321 85.2037C135.004 85.2037 138 82.1396 138 78.3716V69.7975H133.075C131.457 69.7988 130.139 71.1467 130.137 72.8029C130.139 74.459 131.457 75.8069 133.075 75.8083H135.121C135.673 75.8083 136.121 76.2666 136.121 76.8314C136.121 77.3962 135.673 77.8546 135.121 77.8546H133.075C130.353 77.8532 128.139 75.5873 128.137 72.8029C128.139 70.0185 130.353 67.7525 133.075 67.7511H138V67.6284C138 63.8604 135.004 60.7963 131.321 60.7963H118.677C115.709 60.7963 113.219 62.799 112.351 65.5425H125.532C126.084 65.5425 126.532 66.0008 126.532 66.5656C126.532 67.1318 126.084 67.5888 125.532 67.5888H112.004L112 67.6284V78.3716C112 82.1396 114.995 85.2037 118.677 85.2037H125.039C125.591 85.2037 126.039 85.662 126.039 86.2268C126.039 86.7916 125.591 87.25 125.039 87.25H118.677C113.892 87.25 110 83.2678 110 78.3716V67.6284C110 62.7322 113.892 58.75 118.677 58.75H131.321ZM133.746 71.6875C134.298 71.6875 134.746 72.1459 134.746 72.7106C134.746 73.2754 134.298 73.7338 133.746 73.7338H133.291C132.739 73.7338 132.291 73.2754 132.291 72.7106C132.291 72.1459 132.739 71.6875 133.291 71.6875H133.746Z" fill="#446DF6"/>
<defs>
<filter id="filter0_d_1788_119" x="0" y="0" width="250" height="240" filterUnits="userSpaceOnUse" color-interpolation-filters="sRGB">
<feFlood flood-opacity="0" result="BackgroundImageFix"/>
<feColorMatrix in="SourceAlpha" type="matrix" values="0 0 0 0 0 0 0 0 0 0 0 0 0 0 0 0 0 0 127 0" result="hardAlpha"/>
<feOffset dy="16"/>
<feGaussianBlur stdDeviation="10"/>
<feComposite in2="hardAlpha" operator="out"/>
<feColorMatrix type="matrix" values="0 0 0 0 0.0784314 0 0 0 0 0.105882 0 0 0 0 0.254902 0 0 0 0.03 0"/>
<feBlend mode="normal" in2="BackgroundImageFix" result="effect1_dropShadow_1788_119"/>
<feBlend mode="normal" in="SourceGraphic" in2="effect1_dropShadow_1788_119" result="shape"/>
</filter>
</defs>
</svg>
